<svg version="1.1" id="pay-later-schema" xmlns="http://www.w3.org/2000/svg" xmlns:xlink="http://www.w3.org/1999/xlink" x="0px" y="0px"
	 viewBox="0 0 219 74.2" style="enable-background:new 0 0 219 74.2;" xml:space="preserve">
<g id="Graphics">
	<rect x="35.2" y="31" style="fill:#347EBF;" width="5.9" height="5.9"/>
	<rect x="27" y="42.9" style="fill:#347EBF;" width="5.9" height="5.9"/>
	<rect x="35.2" y="42.9" style="fill:#003086;" width="5.9" height="5.9"/>
	<rect x="43.3" y="30.9" style="fill:#347EBF;" width="5.9" height="5.9"/>
	<rect x="10.6" y="42.9" style="fill:#347EBF;" width="5.9" height="5.9"/>
	<rect x="18.7" y="42.9" style="fill:#347EBF;" width="5.9" height="5.9"/>
	<rect x="27" y="54.5" style="fill:#003086;" width="5.9" height="5.9"/>
	<rect x="43.4" y="54.5" style="fill:#003086;" width="5.9" height="5.9"/>
	<rect x="10.6" y="54.5" style="fill:#003086;" width="5.9" height="5.9"/>
	<rect x="18.8" y="54.5" style="fill:#003086;" width="5.9" height="5.9"/>
	<rect x="18.9" y="31" style="fill:#347EBF;" width="5.9" height="5.9"/>
	<rect x="27" y="30.9" style="fill:#347EBF;" width="5.9" height="5.9"/>
	<circle style="fill:#49A31F;" cx="52.9" cy="61.6" r="12.2"/>
	<path style="fill:#003086;" d="M49.2,48v-5.2h-5.9v5.9h3.8C47.8,48.5,48.5,48.2,49.2,48z"/>
	<path style="fill:#003086;" d="M39.4,65.3c-11.2,0-22.4,0-33.6,0c0-13.2,0-26.4,0-39.6c16.1,0,32.2,0,48.4,0c0,7.3,0,14.6,0,22
		c2.1,0.2,4,0.8,5.8,1.9c0-12.7,0-25.4,0-38.2c-1.9,0-3.9,0-5.8,0v5.4h-8.6v-5.4c-10.4,0-20.8,0-31.1,0v5.4H5.8v-5.4
		c-1.9,0-3.8,0-5.8,0c0,20,0,39.8,0,59.7c14.2,0,28.4,0,42.5,0C41,69.4,39.9,67.4,39.4,65.3z"/>
	<path style="fill:#003086;" d="M40.8,54.5h-5.5v5.9h3.6C39.1,58.3,39.7,56.3,40.8,54.5z"/>
	<rect x="7.5" y="7.7" style="fill:#003086;" width="5.2" height="7.2"/>
	<rect x="47.2" y="7.7" style="fill:#003086;" width="5.2" height="7.2"/>
	<polygon style="fill:#FFFFFF;" points="52.3,66.7 47.2,61.6 49.3,59.5 52.3,62.4 57.1,57.7 59.2,59.8 	"/>
	<rect x="111.8" y="31.4" style="fill:#347EBF;" width="5.9" height="5.9"/>
	<rect x="103.6" y="43.3" style="fill:#347EBF;" width="5.9" height="5.9"/>
	<rect x="111.8" y="43.3" style="fill:#347EBF;" width="5.9" height="5.9"/>
	<rect x="120" y="31.3" style="fill:#347EBF;" width="5.9" height="5.9"/>
	<rect x="87.2" y="43.3" style="fill:#347EBF;" width="5.9" height="5.9"/>
	<rect x="95.3" y="43.3" style="fill:#347EBF;" width="5.9" height="5.9"/>
	<rect x="103.6" y="54.9" style="fill:#003086;" width="5.9" height="5.9"/>
	<rect x="120" y="54.9" style="fill:#003086;" width="5.9" height="5.9"/>
	<rect x="87.2" y="54.9" style="fill:#003086;" width="5.9" height="5.9"/>
	<rect x="95.4" y="54.9" style="fill:#003086;" width="5.9" height="5.9"/>
	<rect x="95.5" y="31.4" style="fill:#347EBF;" width="5.9" height="5.9"/>
	<rect x="103.6" y="31.3" style="fill:#347EBF;" width="5.9" height="5.9"/>
	<circle style="fill:#49A31F;" cx="129.5" cy="62" r="12.2"/>
	<path style="fill:#003086;" d="M125.8,48.4v-5.2H120v5.9h3.8C124.4,48.9,125.1,48.6,125.8,48.4z"/>
	<path style="fill:#003086;" d="M116,65.7c-11.2,0-22.4,0-33.6,0c0-13.2,0-26.4,0-39.6c16.1,0,32.2,0,48.4,0c0,7.3,0,14.6,0,22
		c2.1,0.2,4,0.8,5.8,1.9c0-12.7,0-25.4,0-38.2c-1.9,0-3.9,0-5.8,0v5.4h-8.6v-5.4c-10.4,0-20.8,0-31.1,0v5.4h-8.6v-5.4
		c-1.9,0-3.8,0-5.8,0c0,20,0,39.8,0,59.7c14.2,0,28.4,0,42.5,0C117.7,69.8,116.6,67.8,116,65.7z"/>
	<path style="fill:#003086;" d="M117.4,54.9h-5.5v5.9h3.6C115.7,58.7,116.3,56.7,117.4,54.9z"/>
	<rect x="84.2" y="8.1" style="fill:#003086;" width="5.2" height="7.2"/>
	<rect x="123.8" y="8.1" style="fill:#003086;" width="5.2" height="7.2"/>
	<polygon style="fill:#FFFFFF;" points="128.9,67.1 123.8,62 126,59.8 128.9,62.8 133.7,58 135.8,60.2 	"/>
	<rect x="189.2" y="31.4" style="fill:#347EBF;" width="5.9" height="5.9"/>
	<rect x="181" y="43.3" style="fill:#347EBF;" width="5.9" height="5.9"/>
	<rect x="189.2" y="43.3" style="fill:#003086;" width="5.9" height="5.9"/>
	<rect x="197.3" y="31.3" style="fill:#347EBF;" width="5.9" height="5.9"/>
	<rect x="164.6" y="43.3" style="fill:#347EBF;" width="5.9" height="5.9"/>
	<rect x="172.7" y="43.3" style="fill:#347EBF;" width="5.9" height="5.9"/>
	<rect x="181" y="54.9" style="fill:#003086;" width="5.9" height="5.9"/>
	<rect x="197.4" y="54.9" style="fill:#003086;" width="5.9" height="5.9"/>
	<rect x="164.6" y="54.9" style="fill:#003086;" width="5.9" height="5.9"/>
	<rect x="172.8" y="54.9" style="fill:#003086;" width="5.9" height="5.9"/>
	<rect x="172.9" y="31.4" style="fill:#347EBF;" width="5.9" height="5.9"/>
	<rect x="181" y="31.3" style="fill:#347EBF;" width="5.9" height="5.9"/>
	<circle style="fill:#49A31F;" cx="206.9" cy="62" r="12.2"/>
	<path style="fill:#003086;" d="M203.2,48.4v-5.2h-5.9v5.9h3.8C201.8,48.9,202.5,48.6,203.2,48.4z"/>
	<path style="fill:#003086;" d="M193.3,65.7c-11.2,0-22.4,0-33.6,0c0-13.2,0-26.4,0-39.6c16.1,0,32.2,0,48.4,0c0,7.3,0,14.6,0,22
		c2.1,0.2,4,0.8,5.8,1.9c0-12.7,0-25.4,0-38.2c-1.9,0-3.9,0-5.8,0v5.4h-8.6v-5.4c-10.4,0-20.8,0-31.1,0v5.4h-8.6v-5.4
		c-1.9,0-3.8,0-5.8,0c0,20,0,39.8,0,59.7c14.2,0,28.4,0,42.5,0C195,69.8,193.9,67.8,193.3,65.7z"/>
	<path style="fill:#003086;" d="M194.7,54.9h-5.5v5.9h3.6C193.1,58.7,193.7,56.7,194.7,54.9z"/>
	<rect x="161.5" y="8.1" style="fill:#003086;" width="5.2" height="7.2"/>
	<rect x="201.2" y="8.1" style="fill:#003086;" width="5.2" height="7.2"/>
	<polygon style="fill:#FFFFFF;" points="206.3,67.1 201.2,62 203.3,59.8 206.3,62.8 211.1,58 213.2,60.2 	"/>
	<g>
		<g>
			<path style="fill:#003086;" d="M25.2,8.1h-1.7l1.1-5.7h-1.5l0.2-1.2l3.3-0.5L25.2,8.1z"/>
			<path style="fill:#003086;" d="M34.6,4.1L34.6,4.1l0.1-0.5h0.8c0.3,0,0.5-0.1,0.6-0.3s0.3-0.4,0.3-0.7c0-0.2,0-0.4-0.1-0.6
				C36.2,2,36,1.9,35.8,1.9c-0.2,0-0.4,0.1-0.5,0.2c-0.2,0.1-0.3,0.3-0.3,0.5h-1.6l0,0c0.1-0.6,0.4-1.1,0.9-1.5
				c0.5-0.4,1.1-0.5,1.7-0.5c0.7,0,1.3,0.2,1.7,0.6C38,1.5,38.2,2,38.1,2.7C38,3,37.9,3.4,37.6,3.6s-0.5,0.5-0.9,0.7
				c0.3,0.2,0.6,0.4,0.8,0.7c0.2,0.3,0.2,0.6,0.2,1c-0.1,0.7-0.4,1.2-1,1.6c-0.5,0.4-1.2,0.6-2,0.6c-0.6,0-1.2-0.2-1.6-0.5
				c-0.4-0.4-0.6-0.9-0.5-1.6l0,0h1.7c0,0.2,0,0.4,0.1,0.6c0.1,0.2,0.3,0.2,0.5,0.2c0.3,0,0.5-0.1,0.7-0.3C35.8,6.4,35.9,6.2,36,6
				c0.1-0.4,0-0.6-0.1-0.8s-0.3-0.2-0.6-0.2h-0.8L34.6,4.1z"/>
		</g>
		<polygon style="fill:#003086;" points="28.9,9.3 27.6,9.3 30.3,0 31.6,0 		"/>
	</g>
	
		<text transform="matrix(1 0 0 1 64.7326 47.642)" style="fill:#003086;stroke:#003086;stroke-miterlimit:10; font-family:'Roboto-Medium'; font-size:12.534px;">+</text>
	
		<text transform="matrix(1 0 0 1 141.6672 47.642)" style="fill:#003086;stroke:#003086;stroke-miterlimit:10; font-family:'Roboto-Medium'; font-size:12.534px;">+</text>
	<g>
		<g>
			<path style="fill:#003086;" d="M102.4,8.1h-1.7l1.1-5.7h-1.5l0.2-1.2l3.3-0.5L102.4,8.1z"/>
			<path style="fill:#003086;" d="M111.8,4.1L111.8,4.1l0.1-0.5h0.8c0.3,0,0.5-0.1,0.6-0.3c0.2-0.2,0.3-0.4,0.3-0.7
				c0-0.2,0-0.4-0.1-0.6c-0.1-0.2-0.3-0.2-0.5-0.2c-0.2,0-0.4,0.1-0.5,0.2c-0.2,0.1-0.3,0.3-0.3,0.5h-1.6l0,0
				c0.1-0.6,0.4-1.1,0.9-1.5c0.5-0.4,1.1-0.5,1.7-0.5c0.7,0,1.3,0.2,1.7,0.6c0.4,0.4,0.6,0.9,0.5,1.6c-0.1,0.4-0.2,0.7-0.4,0.9
				s-0.5,0.5-0.9,0.7c0.3,0.2,0.6,0.4,0.8,0.7c0.2,0.3,0.2,0.6,0.2,1c-0.1,0.7-0.4,1.2-1,1.6c-0.5,0.4-1.2,0.6-2,0.6
				c-0.6,0-1.2-0.2-1.6-0.5c-0.4-0.4-0.6-0.9-0.5-1.6l0,0h1.7c0,0.2,0,0.4,0.1,0.6c0.1,0.2,0.3,0.2,0.5,0.2c0.3,0,0.5-0.1,0.7-0.3
				c0.2-0.2,0.3-0.4,0.3-0.6c0.1-0.4,0-0.6-0.1-0.8s-0.3-0.2-0.6-0.2h-0.8L111.8,4.1z"/>
		</g>
		<polygon style="fill:#003086;" points="106.1,9.3 104.8,9.3 107.5,0 108.8,0 		"/>
	</g>
	<g>
		<g>
			<path style="fill:#003086;" d="M179.5,8.1h-1.7l1.1-5.7h-1.5l0.2-1.2l3.3-0.5L179.5,8.1z"/>
			<path style="fill:#003086;" d="M188.9,4.1L188.9,4.1l0.1-0.5h0.8c0.3,0,0.5-0.1,0.6-0.3c0.2-0.2,0.3-0.4,0.3-0.7
				c0-0.2,0-0.4-0.1-0.6c-0.1-0.2-0.3-0.2-0.5-0.2c-0.2,0-0.4,0.1-0.5,0.2c-0.2,0.1-0.3,0.3-0.3,0.5h-1.6l0,0
				c0.1-0.6,0.4-1.1,0.9-1.5c0.5-0.4,1.1-0.5,1.7-0.5c0.7,0,1.3,0.2,1.7,0.6c0.4,0.4,0.6,0.9,0.5,1.6c-0.1,0.4-0.2,0.7-0.4,0.9
				s-0.5,0.5-0.9,0.7c0.3,0.2,0.6,0.4,0.8,0.7c0.2,0.3,0.2,0.6,0.2,1c-0.1,0.7-0.4,1.2-1,1.6c-0.5,0.4-1.2,0.6-2,0.6
				c-0.6,0-1.2-0.2-1.6-0.5c-0.4-0.4-0.6-0.9-0.5-1.6l0,0h1.7c0,0.2,0,0.4,0.1,0.6c0.1,0.2,0.3,0.2,0.5,0.2c0.3,0,0.5-0.1,0.7-0.3
				c0.2-0.2,0.3-0.4,0.3-0.6c0.1-0.4,0-0.6-0.1-0.8c-0.1-0.2-0.3-0.2-0.6-0.2h-0.8L188.9,4.1z"/>
		</g>
		<polygon style="fill:#003086;" points="183.2,9.3 181.9,9.3 184.6,0 185.9,0 		"/>
	</g>
</g>
</svg>
