<svg version="1.1" id="american-express" xmlns="http://www.w3.org/2000/svg" xmlns:xlink="http://www.w3.org/1999/xlink" x="0px" y="0px"
        viewBox="0 0 137.6 86" style="enable-background:new 0 0 137.6 86;" xml:space="preserve">
    <g>
        <g>
            <g>
                <g>
                    <g>
                        <defs>
                            <path id="SVGID_1_" d="M0,6.5C0,2.9,2.9,0,6.5,0h124.7c3.5,0,6.5,2.9,6.5,6.5v72.9c0,3.6-2.9,6.5-6.5,6.5H6.5
                                C2.9,86,0,83.1,0,79.5V6.5z"/>
                        </defs>
                        <clipPath id="SVGID_2_">
                            <use xlink:href="#SVGID_1_"  style="overflow:visible;"/>
                        </clipPath>
                        <path class="svg-dark-gray blue" d="M0,8.5C0,3.8,3.7,0,8.3,0h121c4.6,0,8.3,3.8,8.3,8.5v69.1
                            c0,4.6-3.7,8.5-8.3,8.5H8.3C3.7,86,0,82.2,0,77.6V8.5z"/>
                    </g>
                </g>
            </g>
        </g>
        <g>
            <g>
                <g>
                    <defs>
                        <path id="SVGID_3_" d="M136.1,53.1h-6.9c-0.6,0-1.2,0-1.5,0.3c-0.4,0.2-0.5,0.7-0.5,1.2c0,0.7,0.3,1,0.9,1.2
                            c0.4,0.1,0.9,0.2,1.4,0.2h2c2,0.1,3.4,0.4,4.3,1.3c0.1,0.1,0.2,0.2,0.3,0.4V53.1L136.1,53.1z M136.1,63.7
                            c-1,1.4-2.7,2.1-5.2,2.1h-7.3v-3.5h7.3c0.8,0,1.2-0.1,1.5-0.4c0.2-0.2,0.4-0.5,0.4-1.1c0-0.4-0.2-0.9-0.4-1.1
                            c-0.3-0.2-0.6-0.3-1.3-0.3c-3.5-0.1-8,0.1-8-5c0-2.3,1.5-4.8,5.4-4.8h7.5v-3.2h-7c-2.2,0-3.7,0.5-4.7,1.3v-1.3H114
                            c-1.6,0-3.5,0.4-4.5,1.3v-1.3H91.1v1.3c-1.5-1.1-4-1.3-5.1-1.3H73.8v1.3c-1.2-1.1-3.8-1.3-5.4-1.3H54.8L51.7,50l-2.9-3.4H28.4
                            V69h20l3.2-3.5l3,3.5H67v-5.2h1.2c1.6,0,3.5,0,5.3-0.8v6h10.2v-5.8h0.5c0.6,0,0.6,0,0.6,0.7V69h30.9c1.9,0,4-0.5,5.2-1.4V69
                            h9.8c2,0,4-0.3,5.6-1v-4.3H136.1z M121,57.2c0.8,0.8,1.2,1.7,1.2,3.4c0,3.5-2.2,5-5.9,5h-7.4v-3.4h7.3c0.8,0,1.2-0.1,1.5-0.4
                            c0.2-0.2,0.4-0.5,0.4-1.1c0-0.4-0.2-0.9-0.4-1.1c-0.3-0.2-0.6-0.3-1.4-0.3c-3.5-0.1-8,0.1-8-5c0-2.3,1.4-4.8,5.4-4.8h7.5v3.4
                            h-6.9c-0.8,0-1.2,0-1.5,0.3c-0.4,0.2-0.5,0.7-0.5,1.2c0,0.7,0.3,1,0.9,1.2c0.4,0.1,0.9,0.2,1.5,0.2h2
                            C118.8,56,120.1,56.3,121,57.2z M86.9,56.2c-0.5,0.3-1.2,0.3-1.8,0.3h-4.6V53h4.6c0.6,0,1.4,0,1.8,0.3c0.5,0.2,0.8,0.8,0.8,1.4
                            C87.7,55.4,87.4,55.9,86.9,56.2z M89.2,58.2c0.9,0.3,1.5,0.9,1.8,1.3c0.5,0.8,0.6,1.5,0.6,2.9v3.2H88v-2c0-1,0.1-2.4-0.6-3.2
                            c-0.5-0.5-1.4-0.8-2.8-0.8h-4.1v5.9h-3.8V49.7h8.7c1.9,0,3.3,0.1,4.5,0.8c1.2,0.8,1.9,1.7,1.9,3.6
                            C91.8,56.6,90.2,57.9,89.2,58.2z M94,49.7h12.6v3.4h-8.8V56h8.6v3.3h-8.6v3.2h8.8v3.4H94V49.7z M68.5,57.1h-4.9v-4h4.9
                            c1.4,0,2.3,0.5,2.3,2C70.9,56.3,69.9,57.1,68.5,57.1z M59.8,64.3L54,57.8l5.8-6.3V64.3z M44.8,62.3h-9.2v-3.2h8.3v-3.3h-8.3V53
                            h9.5l4.1,4.7L44.8,62.3z M74.8,54.9c0,4.5-3.2,5.3-6.6,5.3h-4.7v5.3h-7.3l-4.6-5.3l-4.8,5.3h-15V49.7H47l4.6,5.2l4.8-5.2h12
                            C71.5,49.7,74.8,50.6,74.8,54.9z"/>
                    </defs>
                    <clipPath id="SVGID_4_">
                        <use xlink:href="#SVGID_3_"  style="overflow:visible;"/>
                    </clipPath>
                    <rect class="svg-white"x="23" y="41.1" style="clip-path:url(#SVGID_4_);" width="118.5" height="33.3"/>
                </g>
            </g>
        </g>
        <g>
            <g>
                <g>
                    <g>
                        <defs>
                            <path id="SVGID_5_" d="M13.8,31.1l-2.6-6.4l-2.6,6.4H13.8z M70.8,28.6C70.2,29,69.6,29,68.9,29h-4.6v-3.6h4.6
                                c0.6,0,1.4,0,1.8,0.3c0.5,0.2,0.8,0.8,0.8,1.4C71.5,27.9,71.2,28.4,70.8,28.6z M103.5,31.1l-2.6-6.4l-2.6,6.4H103.5z
                                M42.5,38.1h-3.9V25.6l-5.5,12.5h-3.3l-5.5-12.5v12.5h-7.6l-1.5-3.6H7.3l-1.5,3.6H1.7l6.8-16h5.6l6.5,15.2V22.1h6.1L31.6,33
                                l4.5-10.9h6.2v16H42.5z M57.8,38.1H45.3v-16h12.6v3.4H49v2.8h8.6v3.3H49v3.2h8.8V38.1z M75.7,26.3c0,2.5-1.7,3.9-2.7,4.3
                                c0.9,0.3,1.5,0.9,1.8,1.3c0.5,0.8,0.6,1.5,0.6,2.9V38h-3.8v-2.1c0-1,0.1-2.4-0.6-3.2c-0.5-0.5-1.4-0.7-2.8-0.7h-4.1v5.8h-3.8
                                V22.1H69c1.9,0,3.3,0.1,4.6,0.8C74.9,23.5,75.7,24.6,75.7,26.3z M77.8,38.1h3.9v-16h-3.9V38.1z M126.5,38.1h-5.4l-7.2-12v12
                                h-7.7l-1.5-3.6H97l-1.4,3.6h-4.4c-1.8,0-4.2-0.4-5.5-1.7c-1.3-1.4-2-3.2-2-6.1c0-2.4,0.4-4.6,2-6.2c1.2-1.3,3.1-1.9,5.7-1.9
                                h3.7v3.4h-3.5c-1.4,0-2.2,0.2-2.9,1c-0.6,0.7-1.1,2-1.1,3.6c0,1.7,0.3,2.9,1.1,3.8c0.5,0.7,1.6,0.9,2.6,0.9H93l5.4-12.7h5.7
                                l6.3,15.2V22.1h5.8l6.7,11.1V22.1h3.9v16H126.5z M1.6,41.3h6.5l1.5-3.6h3.2l1.4,3.6H27v-2.7l1.2,2.7h6.6l1.1-2.7v2.7h31.6
                                v-5.9h0.6c0.4,0,0.5,0.1,0.5,0.8v5.1h16.3v-1.4c1.3,0.8,3.3,1.4,6,1.4h6.9l1.5-3.6h3.2l1.4,3.6h13.2v-3.4l2,3.4h10.6V18.9
                                h-10.5v2.6l-1.5-2.6h-10.8v2.6l-1.4-2.6H91.2c-2.5,0-4.6,0.3-6.3,1.3v-1.3h-10v1.3c-1.1-1-2.6-1.3-4.3-1.3H33.9l-2.5,5.8
                                l-2.5-5.8H17.3v2.6L16,18.9H6.1L1.6,29.5V41.3z"/>
                        </defs>
                        <clipPath id="SVGID_6_">
                            <use xlink:href="#SVGID_5_"  style="overflow:visible;"/>
                        </clipPath>
                        <rect class="svg-white" x="-3.8" y="13.5" style="clip-path:url(#SVGID_6_);" width="138.9" height="33.3"/>
                    </g>
                </g>
            </g>
            <rect class="svg-dark-gray blue" x="77.8" y="22.1" width="3.9" height="16"/>
        </g>
    </g>
    </svg>
    