<svg version="1.1" id="check-card" class="payment-card" xmlns="http://www.w3.org/2000/svg" xmlns:xlink="http://www.w3.org/1999/xlink" x="0px" y="0px"
	 viewBox="0 0 137.6 86" style="enable-background:new 0 0 137.6 86;" xml:space="preserve">
<g>
	<path class="svg-white" d="M129,85.6H8.6c-4.4,0-8-3.6-8-8V8.5c0-4.4,3.6-8,8-8H129c4.4,0,8,3.6,8,8v69.1
		C137.1,82,133.5,85.6,129,85.6z"/>
	<g id="_65-Check_2_">
		<path class="svg-dark-gray blue" d="M95.8,43.5c0,0.9,0.8,1.7,1.7,1.7h4.9c0.5,0,0.9-0.2,1.2-0.5l19.5-19.5c0.7-0.7,0.7-1.8,0-2.4
			l-4.9-4.9c-0.7-0.7-1.8-0.7-2.4,0L96.3,37.4c-0.3,0.3-0.5,0.8-0.5,1.2V43.5z M111,27.6l2.4,2.4l-11.7,11.7h-2.4v-2.4L111,27.6z"/>
	</g>
	<g>
		<g>
			<path class="svg-dark-gray blue" d="M129.5,1.4c3.7,0,6.8,3,6.8,6.8v69.7c0,3.7-3,6.8-6.8,6.8H8.1c-3.7,0-6.8-3-6.8-6.8V8.1
				c0-3.7,3-6.8,6.8-6.8L129.5,1.4 M129.5,0H8.1C3.6,0,0,3.6,0,8.1v69.7C0,82.4,3.6,86,8.1,86h121.4c4.5,0,8.1-3.6,8.1-8.1V8.1
				C137.6,3.6,134,0,129.5,0L129.5,0z"/>
		</g>
	</g>
	<g>
		<g>
			<path class="svg-dark-gray blue" d="M22.8,42.5c0.8,0,1.5-0.2,1.9-0.5c0.4-0.4,0.8-0.9,1.1-1.8h3.7c-0.1,1.2-0.5,2.2-1.2,3
				s-1.5,1.5-2.4,1.9c-1,0.4-2,0.6-3.2,0.6c-2.3,0-4.1-0.7-5.5-2.2s-2-3.5-2-6.2s0.7-4.7,2-6.2c1.4-1.5,3.2-2.2,5.5-2.2
				c1.8,0,3.3,0.5,4.6,1.4c1.3,0.9,2,2.3,2.2,4h-3.7c-0.3-0.8-0.7-1.4-1.1-1.8c-0.4-0.4-1.1-0.5-1.9-0.5c-1.2,0-2.1,0.5-2.7,1.4
				s-0.9,2.2-0.9,3.8s0.3,2.9,0.9,3.8C20.7,42,21.6,42.5,22.8,42.5z"/>
			<path class="svg-dark-gray blue" d="M41,29.2h3.7v16.1H41v-6.6h-5.9v6.6h-3.7V29.2h3.7v6.6H41V29.2z"/>
			<path class="svg-dark-gray blue" d="M50.8,42.2h8v3.2H47V29.2h11.4v3.2h-7.7v3.3h6.6v3h-6.6L50.8,42.2L50.8,42.2z"/>
			<path class="svg-dark-gray blue" d="M67.7,42.5c0.8,0,1.5-0.2,1.9-0.5c0.4-0.4,0.8-0.9,1.1-1.8h3.7c-0.1,1.2-0.5,2.2-1.2,3
				s-1.5,1.5-2.4,1.9c-1,0.4-2,0.6-3.2,0.6c-2.3,0-4.1-0.7-5.5-2.2s-2-3.5-2-6.2s0.7-4.7,2-6.2c1.4-1.5,3.2-2.2,5.5-2.2
				c1.8,0,3.3,0.5,4.6,1.4c1.3,0.9,2,2.3,2.2,4h-3.7c-0.3-0.8-0.7-1.4-1.1-1.8c-0.4-0.4-1.1-0.5-1.9-0.5c-1.2,0-2.1,0.5-2.7,1.4
				s-0.9,2.2-0.9,3.8s0.3,2.9,0.9,3.8C65.6,42,66.5,42.5,67.7,42.5z"/>
			<path class="svg-dark-gray blue" d="M87.2,45.3L82.3,39l-2.4,2.8v3.5h-3.7V29.2h3.7v7.6l6.5-7.6h4.2l-6.1,7.2l6.8,8.9
				C91.3,45.3,87.2,45.3,87.2,45.3z"/>
		</g>
	</g>
	<rect x="15.1" y="55" class="svg-gray" width="103.8" height="3.8"/>
	<rect x="15.1" y="63.9" class="svg-gray" width="103.8" height="3.8"/>
</g>
</svg>

