<svg version="1.1" id="Layer_1" xmlns="http://www.w3.org/2000/svg" xmlns:xlink="http://www.w3.org/1999/xlink" x="0px" y="0px"
	 viewBox="0 0 137.6 86" style="enable-background:new 0 0 137.6 86;" xml:space="preserve">
<g id="Page-1_4_">
	<g id="DISCOVER_2_">
		<path id="Rectangle-1_6_" style="fill-rule:evenodd;clip-rule:evenodd;fill:#F4F4F4;" d="M127.2,0.1c-6.9,0-79.6,0-120.2,0
			C3.6,0.1,0.2,3.5,0.2,7v68.7C0.2,82.6,3.6,86,10.5,86c38.3,0,109.9,0,116.7,0c6.8,0,10.3-3.4,10.3-10.3V10.4
			C137.5,3.5,134,0.1,127.2,0.1z"/>
		<path id="Rectangle-1-copy_2_" style="fill-rule:evenodd;clip-rule:evenodd;fill:#8C8C8C;" d="M42.7,85.9c36.9,0,79.3,0,84.5,0
			c6.9,0,10.3-3.4,10.3-10.3V34.8C137.5,34.8,117,70.8,42.7,85.9z"/>
		<path id="NETWORK_2_" style="fill-rule:evenodd;clip-rule:evenodd;" d="M44.8,42.1H46l3.8,5.7l0,0v-5.7h0.9V49h-1.2l-3.9-5.7l0,0
			V49h-0.9v-6.9H44.8z M52.6,42.1h4.5V43h-3.5v2h3.3v0.9h-3.3v2.2h3.7V49h-4.7V42.1z M60,43h-2.2v-0.9h5.4V43H61v6h-1V43z
			 M63.3,42.1h1l1.5,5.5l0,0l1.6-5.5h1.1l1.6,5.5l0,0l1.5-5.5h1l-2,6.9h-1l-1.7-5.7l0,0L66.4,49h-1L63.3,42.1z M76.8,49.2
			c-0.5,0-1-0.1-1.5-0.3c-0.4-0.2-0.8-0.4-1.1-0.8c-0.3-0.3-0.6-0.7-0.7-1.2c-0.2-0.4-0.3-0.9-0.3-1.4s0.1-1,0.3-1.4
			c0.2-0.4,0.4-0.8,0.7-1.2s0.7-0.6,1.1-0.8s0.9-0.3,1.5-0.3c0.5,0,1,0.1,1.5,0.3c0.4,0.2,0.8,0.4,1.1,0.8s0.6,0.7,0.7,1.2
			c0.2,0.4,0.3,0.9,0.3,1.4s-0.1,1-0.3,1.4c-0.2,0.4-0.4,0.8-0.7,1.2c-0.3,0.3-0.7,0.6-1.1,0.8C77.8,49.1,77.4,49.2,76.8,49.2z
			 M76.8,48.3c0.4,0,0.8-0.1,1.1-0.2c0.3-0.1,0.6-0.3,0.8-0.6c0.2-0.2,0.4-0.5,0.5-0.9c0.1-0.3,0.2-0.7,0.2-1.1s-0.1-0.7-0.2-1.1
			c-0.1-0.3-0.3-0.6-0.5-0.9c-0.2-0.2-0.5-0.4-0.8-0.6c-0.3-0.1-0.7-0.2-1.1-0.2s-0.8,0.1-1.1,0.2s-0.6,0.3-0.8,0.6
			c-0.2,0.2-0.4,0.5-0.5,0.9c-0.1,0.3-0.2,0.7-0.2,1.1s0.1,0.7,0.2,1.1c0.1,0.3,0.3,0.6,0.5,0.9c0.2,0.2,0.5,0.4,0.8,0.6
			C76.1,48.2,76.4,48.3,76.8,48.3C76.8,48.3,76.4,48.3,76.8,48.3z M81.8,42.1h2.4c0.4,0,0.8,0.1,1.1,0.2s0.5,0.3,0.7,0.5
			s0.3,0.4,0.3,0.6c0.1,0.2,0.1,0.5,0.1,0.7s0,0.4-0.1,0.6c-0.1,0.2-0.2,0.4-0.3,0.6c-0.1,0.2-0.3,0.3-0.5,0.4
			c-0.2,0.1-0.4,0.2-0.7,0.2l2,3.2h-1.2L83.8,46h-1v3h-0.9L81.8,42.1L81.8,42.1z M82.7,45.1H84c0.2,0,0.4,0,0.5,0s0.3-0.1,0.5-0.2
			s0.3-0.2,0.3-0.3c0.1-0.1,0.1-0.3,0.1-0.6c0-0.2,0-0.4-0.1-0.6c-0.1-0.1-0.2-0.3-0.3-0.3S84.7,43,84.5,43s-0.4,0-0.5,0h-1.2v2.1
			H82.7z M87.8,42.1h0.9v3h0.1l3.1-3h1.3l-3.3,3.2l3.6,3.7H92l-3.2-3.5h-0.1V49h-0.9V42.1z"/>
		<path style="fill-rule:evenodd;clip-rule:evenodd;" d="M12.3,20.6h6.5c1.1,0,2.1,0.2,3.1,0.5s1.9,0.8,2.7,1.5
			c0.8,0.7,1.4,1.5,1.9,2.6c0.5,1,0.7,2.2,0.7,3.6s-0.3,2.6-0.8,3.6s-1.2,1.9-2.1,2.5c-0.8,0.7-1.8,1.2-2.8,1.5s-2,0.5-3,0.5h-6.1
			V20.6H12.3z M17.4,34.4c0.9,0,1.8-0.1,2.6-0.3c0.8-0.2,1.5-0.5,2.1-1s1.1-1,1.4-1.7s0.5-1.6,0.5-2.6s-0.2-1.8-0.5-2.5
			s-0.7-1.3-1.3-1.7c-0.5-0.4-1.2-0.8-1.9-1c-0.7-0.2-1.6-0.3-2.5-0.3h-2.7v11.1H17.4z M29.8,20.6h2.9V37h-2.9
			C29.8,37,29.8,20.6,29.8,20.6z M44.4,24.1c-0.3-0.4-0.7-0.8-1.2-1s-1.1-0.3-1.6-0.3c-0.3,0-0.7,0-1,0.1s-0.6,0.2-0.9,0.4
			c-0.3,0.2-0.5,0.4-0.6,0.7c-0.2,0.3-0.2,0.6-0.2,1c0,0.6,0.2,1,0.6,1.3c0.4,0.3,0.9,0.5,1.4,0.8c0.6,0.2,1.2,0.4,1.9,0.6
			s1.3,0.5,1.9,0.8c0.6,0.4,1.1,0.8,1.4,1.4c0.4,0.6,0.6,1.4,0.6,2.3s-0.2,1.6-0.5,2.3s-0.8,1.2-1.3,1.6c-0.5,0.4-1.2,0.8-1.9,1
			s-1.5,0.3-2.3,0.3c-1,0-2-0.2-2.9-0.5S36,36,35.4,35.2l2.2-2.1c0.4,0.5,0.8,1,1.4,1.3s1.2,0.5,1.8,0.5c0.3,0,0.7,0,1-0.1
			s0.6-0.2,0.9-0.4c0.3-0.2,0.5-0.4,0.7-0.7s0.3-0.6,0.3-1c0-0.6-0.2-1.1-0.6-1.4c-0.4-0.3-0.9-0.6-1.4-0.8
			c-0.6-0.2-1.2-0.4-1.9-0.6s-1.3-0.5-1.9-0.8c-0.6-0.3-1.1-0.8-1.4-1.4s-0.6-1.4-0.6-2.3c0-0.8,0.2-1.6,0.5-2.2s0.8-1.1,1.4-1.5
			c0.6-0.4,1.2-0.7,1.9-0.9s1.5-0.3,2.2-0.3c0.9,0,1.7,0.1,2.5,0.4s1.5,0.7,2.2,1.3c0,0-0.6-0.6,0,0L44.4,24.1z M60.9,24.4
			c-0.6-0.6-1.2-1.1-1.7-1.3s-1.1-0.3-1.7-0.3c-0.8,0-1.6,0.2-2.3,0.5s-1.3,0.7-1.8,1.3c-0.5,0.5-0.9,1.2-1.1,1.9
			c-0.3,0.7-0.4,1.5-0.4,2.3c0,0.9,0.1,1.7,0.4,2.4c0.3,0.7,0.7,1.4,1.1,1.9c0.5,0.5,1.1,1,1.8,1.3s1.5,0.5,2.3,0.5
			c0.7,0,1.3-0.2,1.9-0.5s1.2-0.8,1.7-1.5l2.4,1.7c-0.7,1-1.6,1.8-2.7,2.2c-1.1,0.5-2.2,0.7-3.4,0.7c-1.3,0-2.4-0.2-3.5-0.6
			c-1.1-0.4-2-1-2.7-1.7c-0.8-0.7-1.4-1.6-1.8-2.7c-0.4-1.1-0.6-2.2-0.6-3.5s0.2-2.5,0.6-3.6c0.4-1.1,1-2,1.8-2.7
			c0.8-0.8,1.7-1.3,2.7-1.7c1.1-0.4,2.2-0.6,3.5-0.6c1.1,0,2.1,0.2,3.1,0.6s1.8,1.1,2.7,2c0,0-0.8-0.9,0,0L60.9,24.4z M82.9,20.6
			h3.4L90.7,33l4.6-12.4h3.2L91.9,37h-2.5L82.9,20.6z M100.3,20.6h10.9v2.6h-7.9v4h7.5v2.6h-7.5v4.4h8.4V37h-11.3L100.3,20.6
			L100.3,20.6z M114.4,20.6h5.7c0.8,0,1.5,0.1,2.3,0.2c0.7,0.1,1.4,0.4,2,0.8s1,0.8,1.4,1.4c0.3,0.6,0.5,1.4,0.5,2.3
			c0,1.2-0.3,2.2-1,3s-1.6,1.3-2.8,1.5l4.4,7.3h-3.5l-3.8-7h-2.1v7h-2.9V20.6H114.4z M119.6,27.5c0.4,0,0.8,0,1.3-0.1
			c0.4,0,0.8-0.1,1.1-0.3c0.3-0.1,0.6-0.4,0.8-0.7s0.3-0.7,0.3-1.3c0-0.5-0.1-0.9-0.3-1.2c-0.2-0.3-0.5-0.5-0.8-0.7
			c-0.3-0.1-0.7-0.2-1.1-0.3c-0.4,0-0.8-0.1-1.1-0.1h-2.5v4.4h2.3V27.5z"/>
		<circle id="Oval-1_2_" style="fill-rule:evenodd;clip-rule:evenodd;fill:#8C8C8C;" cx="74" cy="28.8" r="8.6"/>
	</g>
</g>
</svg>
