<svg version="1.1" id="Layer_1" xmlns="http://www.w3.org/2000/svg" xmlns:xlink="http://www.w3.org/1999/xlink" x="0px" y="0px"
	 viewBox="0 0 351.4 219.6" style="enable-background:new 0 0 351.4 219.6;" xml:space="preserve">
<g>
	<g>
		<g>
			<path style="fill:#FFFFFF;" d="M330.2,218.6H21.5c-11,0-19.9-8.9-19.9-19.9V21.2c0-11,8.9-19.9,19.9-19.9h308.7
				c11,0,19.9,8.9,19.9,19.9v177.5C350.1,209.7,341.2,218.6,330.2,218.6z"/>
			<g>
				<path d="M330.7,3.6c9.4,0,17.4,7.7,17.4,17.4v178c0,9.4-7.7,17.4-17.4,17.4h-310c-9.4,0-17.4-7.7-17.4-17.4V20.7
					c0-9.4,7.7-17.4,17.4-17.4L330.7,3.6 M330.7,0h-310C9.2,0,0,9.2,0,20.7v178c0,11.7,9.2,20.9,20.7,20.9h310
					c11.5,0,20.7-9.2,20.7-20.7V20.7C351.4,9.2,342.2,0,330.7,0L330.7,0z"/>
			</g>
		</g>
	</g>
	<g>
		<path d="M88.7,184.8c2.3,0,4.2,0.7,5.7,2.1c1.5,1.4,2.2,3.2,2.2,5.4v11.9h-4.3v-10.5c0-1.6-0.4-2.8-1.2-3.7
			c-0.8-0.9-1.9-1.3-3.3-1.3s-2.6,0.4-3.6,1.3c-1,0.9-1.4,2.1-1.4,3.7v10.5h-4.3v-10.5c0-1.6-0.4-2.8-1.2-3.7
			c-0.8-0.9-1.9-1.3-3.3-1.3s-2.6,0.4-3.6,1.3c-1,0.9-1.4,2.1-1.4,3.7v10.5h-4.3v-18.9h4.2v2.3c1.3-1.9,3.3-2.8,6-2.8
			c1.5,0,2.8,0.3,3.9,0.9c1.2,0.6,2.1,1.4,2.8,2.5C83,185.9,85.3,184.8,88.7,184.8z"/>
		<path d="M121.6,185.3v18.9h-4.2V202c-1.5,1.8-3.5,2.8-6.1,2.8c-2.7,0-5-0.9-6.9-2.8c-1.9-1.9-2.8-4.3-2.8-7.1
			c0-2.9,0.9-5.2,2.8-7.1c1.9-1.9,4.2-2.8,6.9-2.8c2.6,0,4.6,0.9,6.1,2.8v-2.3h4.2V185.3z M111.8,188.7c-1.8,0-3.2,0.6-4.3,1.7
			s-1.6,2.6-1.6,4.3s0.5,3.2,1.6,4.3s2.5,1.7,4.3,1.7c1.7,0,3.1-0.6,4.2-1.7c1.1-1.1,1.6-2.6,1.6-4.3c0-1.8-0.5-3.2-1.6-4.3
			C114.9,189.3,113.5,188.7,111.8,188.7z"/>
		<path d="M143.3,186.8l-1.8,3.2c-0.7-0.4-1.6-0.8-2.7-1.1c-1.1-0.3-2.2-0.5-3.3-0.5s-2,0.2-2.7,0.6c-0.7,0.4-1,1-1,1.6
			c0,0.3,0.1,0.6,0.2,0.8c0.2,0.2,0.4,0.4,0.7,0.6c0.3,0.1,0.6,0.3,1,0.3s0.8,0.2,1.3,0.2l2,0.3c4.5,0.6,6.7,2.5,6.7,5.6
			c0,1.9-0.8,3.4-2.3,4.5c-1.6,1.1-3.7,1.7-6.5,1.7c-3.3,0-6.1-0.8-8.3-2.4l2-3.1c1.7,1.3,3.9,1.9,6.4,1.9c1.4,0,2.5-0.2,3.3-0.6
			c0.8-0.4,1.1-1,1.1-1.7c0-1.1-1.1-1.8-3.4-2.1l-2-0.3c-2.1-0.3-3.8-0.9-4.9-1.8c-1.1-0.9-1.7-2.2-1.7-3.7c0-1.9,0.7-3.4,2.2-4.4
			c1.4-1.1,3.4-1.6,5.9-1.6C138.5,184.8,141.2,185.5,143.3,186.8z"/>
		<path d="M161.9,185.3v3.8h-7.4v8.2c0,1.2,0.3,2.1,0.9,2.7s1.3,0.9,2.2,0.9c1.2,0,2.5-0.4,3.9-1.3l1.7,3.3c-1.9,1.3-3.9,1.9-6,1.9
			c-2.2,0-4-0.6-5.2-1.8s-1.8-3.1-1.8-5.5v-8.3h-3.9v-3.8h3.9v-5.7h4.3v5.7L161.9,185.3L161.9,185.3z"/>
		<path d="M175.4,184.8c2.7,0,4.9,0.9,6.6,2.8c1.7,1.8,2.5,4.2,2.6,7.2c0,0.4,0,0.9-0.1,1.5h-14.3c0.3,1.6,0.9,2.8,2,3.6
			s2.3,1.2,3.8,1.2c2,0,3.9-0.7,5.6-2l2.1,2.9c-2.1,1.8-4.8,2.7-8,2.7c-2.9,0-5.3-0.9-7.2-2.7s-2.8-4.2-2.8-7.2s0.9-5.4,2.7-7.2
			C170.2,185.7,172.5,184.8,175.4,184.8z M175.3,188.5c-1.5,0-2.6,0.4-3.5,1.3s-1.4,2-1.7,3.4h10.1c-0.2-1.5-0.8-2.6-1.6-3.4
			C177.7,188.9,176.6,188.5,175.3,188.5z"/>
		<path d="M199.6,184.8c1.3,0,2.3,0.2,3.3,0.5l-1,4.1c-0.9-0.5-2-0.7-3.2-0.7c-1.4,0-2.5,0.5-3.3,1.4c-0.9,0.9-1.3,2.1-1.3,3.7v10.4
			h-4.2v-18.9h4.2v2.1C195.2,185.7,197.1,184.8,199.6,184.8z"/>
		<path d="M215.2,184.8c1.5,0,2.8,0.3,4.1,0.8s2.3,1.3,3.2,2.3l-2.7,2.8c-1.4-1.3-3-2-4.7-2c-1.6,0-3,0.6-4.1,1.7
			c-1.1,1.1-1.6,2.6-1.6,4.4c0,1.8,0.5,3.2,1.6,4.4c1.1,1.1,2.5,1.7,4.1,1.7c1.7,0,3.3-0.7,4.8-2l2.6,2.8c-1.8,2-4.2,3-7.2,3
			s-5.5-0.9-7.4-2.8s-2.8-4.3-2.8-7.1c0-2.9,0.9-5.2,2.8-7.1C209.7,185.8,212.1,184.8,215.2,184.8z"/>
		<path d="M245.4,185.3v18.9h-4.2V202c-1.5,1.8-3.5,2.8-6.1,2.8c-2.7,0-5-0.9-6.9-2.8c-1.9-1.9-2.8-4.3-2.8-7.1
			c0-2.9,0.9-5.2,2.8-7.1c1.9-1.9,4.2-2.8,6.9-2.8c2.6,0,4.6,0.9,6.1,2.8v-2.3h4.2V185.3z M235.6,188.7c-1.8,0-3.2,0.6-4.3,1.7
			s-1.6,2.6-1.6,4.3s0.5,3.2,1.6,4.3s2.5,1.7,4.3,1.7c1.7,0,3.1-0.6,4.2-1.7c1.1-1.1,1.6-2.6,1.6-4.3c0-1.8-0.5-3.2-1.6-4.3
			C238.7,189.3,237.3,188.7,235.6,188.7z"/>
		<path d="M261.8,184.8c1.3,0,2.3,0.2,3.3,0.5l-1,4.1c-0.9-0.5-2-0.7-3.2-0.7c-1.4,0-2.5,0.5-3.3,1.4c-0.9,0.9-1.3,2.1-1.3,3.7v10.4
			H252v-18.9h4.2v2.1C257.5,185.7,259.3,184.8,261.8,184.8z"/>
		<path d="M276.9,184.8c2.6,0,4.6,0.9,6.1,2.8v-11.8h4.2v28.5H283V202c-1.5,1.8-3.5,2.8-6.1,2.8c-2.7,0-5-0.9-6.9-2.8
			c-1.9-1.9-2.8-4.3-2.8-7.1c0-2.9,0.9-5.2,2.8-7.1C271.9,185.8,274.2,184.8,276.9,184.8z M277.4,188.7c-1.8,0-3.2,0.6-4.3,1.7
			s-1.6,2.6-1.6,4.3s0.5,3.2,1.6,4.3s2.5,1.7,4.3,1.7c1.7,0,3.1-0.6,4.2-1.7c1.1-1.1,1.6-2.6,1.6-4.3c0-1.8-0.5-3.2-1.6-4.3
			C280.6,189.3,279.1,188.7,277.4,188.7z"/>
	</g>
	<g>
		<path style="fill:#494949;" d="M130.5,171.3c-43,0-77.9-34.9-77.9-77.9s34.9-77.9,77.9-77.9s77.9,34.9,77.9,77.9
			S173.5,171.3,130.5,171.3z"/>
		<path style="fill:#AAAAAA;" d="M220.9,171.3c-43,0-77.9-34.9-77.9-77.9s34.9-77.9,77.9-77.9s77.9,34.9,77.9,77.9
			S263.9,171.3,220.9,171.3z"/>
		<path style="fill:#858585;" d="M175.7,30c19.8,14.1,32.7,37.3,32.7,63.4s-12.9,49.3-32.7,63.4c-19.8-14.1-32.7-37.3-32.7-63.4
			S155.9,44.1,175.7,30z"/>
	</g>
</g>
</svg>
