 <svg version="1.1" id="microsoft-gold" xmlns="http://www.w3.org/2000/svg" xmlns:xlink="http://www.w3.org/1999/xlink" x="0px" y="0px"
        viewBox="0 0 150.3 67.8" style="enable-background:new 0 0 150.3 67.8;" xml:space="preserve">
    <path id="Badge_2" style="fill:#CCCDCD;" d="M31.4,0c-1.4,6.3-2.8,12.6-4.2,19c-0.3,1.5-0.7,3-1,4.5c0,0.2-0.1,0.3-0.3,0.3
        c-2.1,0-4.3,0-6.4,0c0,0-0.1,0-0.2,0c0.9-4.2,1.8-8.4,2.8-12.5c0,0,0,0,0,0c-0.1,0.1-0.1,0.2-0.2,0.3c-2,4-4,8-6,11.9
        c-0.1,0.2-0.2,0.3-0.5,0.3c-1.4,0-2.7,0-4.1,0c-0.1,0-0.2,0-0.4,0c-0.1-4.2-0.2-8.3-0.3-12.5c0,0,0,0,0,0c-0.1,0.2-0.1,0.5-0.2,0.7
        c-0.9,3.8-1.9,7.6-2.8,11.4c-0.1,0.3-0.2,0.4-0.4,0.4c-2,0-4.1,0-6.1,0c-0.1,0-0.2,0-0.4,0c0.1-0.4,0.2-0.8,0.2-1.2
        c1.5-6.7,3-13.4,4.4-20.1C5.4,1.6,5.6,0.8,5.8,0c3.1,0,6.3,0,9.4,0c0,0,0,0.1,0,0.1c0.1,2.4,0.2,4.7,0.2,7.1
        c0.1,1.8,0.1,3.7,0.2,5.5c0,0.1,0,0.2,0.1,0.4c2.1-4.4,4.2-8.8,6.3-13.1C25.1,0,28.2,0,31.4,0z M0.4,39.5c0,0.1,0.1,0.2,0.1,0.3
        c0.1,1,0.3,1.9,0.8,2.8c1.4,2.7,5.4,3.2,7.2,1c0.1-0.1,0.1-0.1,0.2-0.2c0,0.1,0.1,0.1,0.1,0.1C8.8,43.7,8.9,43.8,9,44
        c0.3,0.8,0.2,0.8,1.1,0.8c0.2,0,0.3-0.1,0.3-0.3c0-1.9,0-3.9,0-5.8c0-0.2-0.1-0.3-0.3-0.3c-1.4,0-2.8,0-4.2,0
        c-0.2,0-0.3,0.1-0.3,0.3c0,0.5,0,1,0,1.6c0,0.2,0.1,0.3,0.3,0.3c0.5,0,1,0,1.5,0c0.4,0,0.5,0.1,0.4,0.5c-0.2,1.3-1.4,1.9-2.6,1.6
        c-1-0.3-1.4-1-1.6-1.9c-0.3-1.1-0.3-2.2-0.1-3.3c0.1-0.6,0.3-1.3,0.7-1.8c0.6-0.9,1.9-1.1,2.8-0.5c0.6,0.4,0.8,0.9,0.9,1.6
        c0,0.1,0.2,0.3,0.2,0.3c0.7-0.1,1.5-0.2,2.2-0.3c0.1,0,0.2-0.2,0.1-0.2c-0.3-1.2-0.8-2.3-1.8-3.1c-1-0.7-2-0.8-3.2-0.8
        c-1,0-1.8,0.3-2.6,0.9c-1.3,1-1.9,2.3-2.1,3.9c-0.1,0.3-0.1,0.6-0.2,1C0.4,38.7,0.4,39.1,0.4,39.5z M33,0c-0.3,1.3-0.6,2.6-0.9,3.9
        c2.1,0,4.2,0,6.4,0c0.1-0.5,0.2-1,0.4-1.6C39,1.5,39.2,0.8,39.3,0C37.2,0,35.1,0,33,0z M150.3,7.7c0-0.1,0-0.2-0.1-0.3
        c-0.3-1.1-1.3-1.7-2.4-1.4c-1,0.3-1.6,1.3-1.4,2.4c0.3,1.1,1.4,1.7,2.4,1.3c0.8-0.3,1.2-0.9,1.4-1.7C150.3,7.9,150.3,7.8,150.3,7.7z
        M148.3,6.2c0.9,0,1.6,0.7,1.6,1.6c0,0.9-0.7,1.6-1.6,1.6c-0.9,0-1.6-0.7-1.6-1.6C146.7,7,147.4,6.2,148.3,6.2z M54,23.7
        c0.1,0,0.1,0,0.1,0c1.9,0,3.9,0,5.8,0c0.2,0,0.2-0.1,0.3-0.3c0.3-1.1,0.5-2.3,0.8-3.4c0.4-1.6,0.8-3.1,1.3-4.7
        c0.5-1.6,1.6-2.8,3.1-3.6c0.5-0.2,1-0.3,1.5-0.3c-0.1,0.1-0.1,0.2-0.1,0.3c-0.9,1.9-1.3,3.9-1,6c0.5,2.9,2.3,5.4,5.7,6.1
        c1.4,0.3,2.8,0.3,4.2,0.1c3.2-0.5,5.7-1.9,7.6-4.5c0.2-0.3,0.4-0.5,0.6-0.9c0,0.1,0,0.2,0,0.3c0,0.9,0.3,1.8,0.8,2.5
        c0.7,1,1.8,1.6,3,2.1c1.6,0.6,3.4,0.7,5.1,0.7c1.5,0,3-0.1,4.4-0.5c2.3-0.6,4.1-1.9,5-4.1c0.8-1.7,0.8-3.4-0.3-5
        c-0.7-1.1-1.8-1.7-3.1-2c-1.1-0.3-2.1-0.4-3.2-0.7c-0.7-0.2-1.5-0.3-2.1-0.7c-0.8-0.5-0.7-1.4,0.1-1.9c0.7-0.4,1.5-0.5,2.3-0.3
        c1,0.2,1.4,0.9,1.4,1.9c0,0.1,0,0.2,0,0.4c2,0,3.9,0,5.9,0c0.1,0,0.2-0.1,0.2-0.2c0.2-1.4,0-2.7-1.1-3.8c-0.7-0.7-1.5-1.1-2.5-1.3
        c-2.5-0.7-4.9-0.7-7.4-0.3c-1.4,0.2-2.8,0.8-3.9,1.8c-1.4,1.3-2.1,2.8-1.7,4.7c0.3,1.5,1.2,2.4,2.5,3.1c1.5,0.8,3.1,1.2,4.7,1.5
        c0.7,0.1,1.3,0.3,1.7,0.8c0.5,0.5,0.5,1.1,0.1,1.7c-0.2,0.4-0.6,0.6-1,0.8c-1,0.3-1.9,0.3-2.9,0c-0.8-0.3-1.2-0.9-1.2-1.7
        c0-0.2,0-0.4,0-0.7c-3.8,0-7.7,0-11.5,0c0-0.1,0.1-0.1,0.1-0.1c1.7-0.6,3.4-1.2,5-1.8c0.4-0.1,0.7-0.4,0.8-0.8
        c0.1-0.7,0.2-1.4,0.2-2c0-3.3-1.6-5.7-4.6-6.8c-1.7-0.7-3.6-0.8-5.4-0.6c-2,0.3-3.9,1-5.5,2.4c-0.6,0.5-1.2,1.1-1.8,1.7
        c0.3-1.2,0.7-2.5,1-3.8c-2.2,0.1-4.3,0.6-5.9,2.4c0.2-0.7,0.3-1.4,0.5-2.1c-1.9,0-3.8,0-5.8,0C56.7,12,55.4,17.8,54,23.7z M75,10.3
        c0.5-0.5,1-0.8,1.7-0.8c1.1-0.1,2,0.5,2.3,1.7c0.3,1.2,0.2,2.4-0.1,3.6c-0.4,1.7-1.2,3.2-2.6,4.4c-0.5,0.4-1,0.6-1.7,0.7
        c-1.2,0.1-2.2-0.7-2.4-2c-0.1-0.4-0.1-0.8-0.1-1.1C72.2,14.1,73.2,12,75,10.3z M135.5,10.2c0,0.1,0,0.2,0,0.3
        c-0.6,2.6-1.1,5.1-1.7,7.7c-0.2,0.9-0.4,1.7-0.3,2.6c0.1,0.7,0.3,1.4,0.8,1.9c0.6,0.6,1.4,0.8,2.2,1c1.6,0.3,3.2,0.1,4.9,0
        c0.2,0,0.2-0.1,0.3-0.3c0.3-1.1,0.5-2.2,0.8-3.3c0-0.1,0-0.3,0.1-0.5c-0.7,0-1.3,0-1.9,0c-0.8-0.1-1-0.4-0.9-1.2c0,0,0-0.1,0-0.1
        c0.4-1.9,0.8-3.8,1.2-5.7c0.2-0.8,0.3-1.6,0.5-2.4c1,0,2,0,3,0c0.3-1.4,0.6-2.7,0.9-4.1c-1,0-2,0-3,0c0.3-1.4,0.6-2.8,0.9-4.2
        c-2,0-3.9,0-5.8,0c-0.3,1.4-0.6,2.8-0.9,4.2c-1.2,0-2.4,0-3.7,0c0.1-0.7,0.2-1.4,0.6-1.9c0.5-0.6,1.2-0.5,1.9-0.6
        c0.2-1.1,0.4-2.2,0.7-3.3c-0.1,0-0.1,0-0.2-0.1c-1.6-0.2-3.2-0.2-4.8,0.1c-1.1,0.2-2,0.6-2.7,1.5c-0.6,0.8-1,1.7-1.3,2.6
        c-0.1,0.5-0.3,1-0.4,1.6c-0.9,0-1.9,0-2.8,0c-0.2,0-0.3,0.1-0.4,0.3c-0.1,0.7-0.3,1.3-0.4,1.9c-0.1,0.3-0.1,0.6-0.2,0.9
        c-0.1,0.3-0.1,0.6-0.2,0.9c0-0.1-0.1-0.1-0.1-0.1c0-0.1-0.1-0.2-0.1-0.2c-0.6-1.4-1.6-2.5-2.9-3.3c-1.6-0.9-3.4-1.2-5.3-1.1
        c-4,0.2-7.1,2-9.2,5.4c-1.4,2.3-2.1,4.9-1.5,7.6c0.5,2.5,2,4.3,4.4,5.2c2.1,0.7,4.2,1,6.4,0.4c4-1,6.8-3.4,8.1-7.4
        c0.5-1.4,0.8-2.9,0.6-4.4c-0.1-0.7-0.3-1.3-0.4-2c1,0,2.1,0,3.1,0c-1,4.5-2,8.9-3,13.4c2.1,0,4.2,0,6.3,0c1-4.5,2-8.9,3-13.4
        C133.2,10.2,134.4,10.2,135.5,10.2z M114.1,19c-0.7,0.7-1.6,1-2.6,0.8c-0.7-0.2-1.2-0.6-1.5-1.2c-0.3-0.8-0.4-1.7-0.2-2.6
        c0.3-2.1,1.1-3.9,2.5-5.4c0.5-0.5,1.1-0.9,1.8-1c1.1-0.2,2,0.3,2.4,1.3c0.2,0.6,0.3,1.3,0.4,1.7C116.8,15.2,115.9,17.3,114.1,19z
        M54.6,17.2c-2.1,0-4.1,0-6.2,0c-0.2,0-0.3,0.1-0.3,0.2c-0.4,0.8-1,1.5-1.8,2c-0.8,0.5-1.8,0.4-2.4-0.1c-0.7-0.6-0.9-1.4-0.9-2.2
        c0-2.2,0.7-4.2,2.2-5.9c0.5-0.6,1-1,1.7-1.2c1.3-0.4,2.2,0.1,2.4,1.5c0,0.1,0,0.2,0,0.3c0,0.3,0,0.6,0,1c2.2,0,4.3,0,6.5,0
        c0-0.1,0-0.2,0-0.2c0.2-2.8-1.3-5-3.8-6.1c-2-0.8-4.1-0.9-6.3-0.5c-6,1-9.7,6.8-9,12.2c0.4,3,2.4,5.2,5.3,5.9c1.6,0.4,3.2,0.3,4.9,0
        c2.6-0.5,4.7-1.7,6.4-3.7c0.7-0.9,1.2-1.9,1.6-3C54.7,17.2,54.7,17.2,54.6,17.2z M34.1,23.6c1.3-5.8,2.6-11.7,3.9-17.5
        c-2.1,0-4.3,0-6.4,0c-1.3,5.8-2.6,11.7-3.9,17.5C29.9,23.6,32,23.6,34.1,23.6z M87.9,44.3c-0.6-1.5-1.3-3-1.9-4.5
        c-0.1-0.2-0.1-0.4,0.2-0.5c0.2-0.1,0.4-0.2,0.6-0.3c1-0.8,1.3-1.8,1.2-3c-0.1-1.6-1.1-2.8-2.7-3.1c-0.5-0.1-0.9-0.1-1.4-0.2
        c-1.7,0-3.5,0-5.2,0c-0.3,0-0.3,0.1-0.3,0.3c0,3.8,0,7.6,0,11.3c0,0.3,0.1,0.4,0.3,0.4c0.7,0,1.4,0,2.1,0c0.3,0,0.4-0.1,0.4-0.4
        c0-1.3,0-2.7,0-4c0-0.1,0-0.3,0-0.4c0.6,0,1.2,0,1.7,0c0.3,0,0.4,0.1,0.5,0.3c0.5,1.4,1.1,2.8,1.6,4.1c0.1,0.2,0.2,0.3,0.4,0.3
        c0.6,0,1.2,0,1.9,0c0.3,0,0.5,0,0.8,0C88,44.6,87.9,44.4,87.9,44.3z M81.1,36.5c0-0.5,0-1,0-1.4c0-0.1,0.1-0.2,0.2-0.2
        c0.9,0,1.8,0,2.6,0c0.8,0.1,1.2,0.7,1.2,1.6c0,0.7-0.5,1.4-1.2,1.5c-0.9,0.1-1.8,0-2.7,0C81.1,37.5,81.1,37,81.1,36.5z M135.9,44.4
        c0,0.2,0,0.4,0.3,0.4c1.5,0,3,0,4.5-0.1c1.6-0.1,2.9-0.8,3.9-2.1c1.2-1.7,1.4-3.6,0.9-5.5c-0.3-1.5-1.2-2.8-2.5-3.6
        c-1-0.6-2.1-0.6-3.2-0.7c-1.2,0-2.4,0-3.5,0c-0.3,0-0.4,0.1-0.4,0.4c0,1.9,0,3.7,0,5.6C135.9,40.6,135.9,42.5,135.9,44.4z
        M138.6,35.3c0-0.3,0.1-0.4,0.4-0.4c0.5,0,1,0,1.6,0.1c0.6,0.1,1.1,0.4,1.5,0.9c0.8,1,1,2.2,0.8,3.5c-0.1,0.8-0.3,1.5-0.8,2.2
        c-0.5,0.6-1.1,1-1.8,1c-0.4,0-0.8,0-1.2,0.1c-0.3,0-0.4-0.1-0.4-0.4c0-1.2,0-2.3,0-3.5C138.6,37.6,138.6,36.4,138.6,35.3z
        M36.3,44.4c0,0.3,0.1,0.4,0.3,0.4c1.5,0,3,0,4.5-0.1c1.4-0.1,2.6-0.6,3.5-1.7c1.5-1.8,1.8-3.9,1.3-6.1c-0.4-1.7-1.3-3-2.9-3.7
        c-0.9-0.4-1.8-0.5-2.8-0.5c-1.2,0-2.3,0-3.5,0c-0.3,0-0.4,0.1-0.4,0.4c0,1.9,0,3.7,0,5.6C36.4,40.6,36.4,42.5,36.3,44.4z M39,35.3
        c0-0.3,0.1-0.4,0.4-0.4c0.5,0,1,0,1.5,0.1c0.7,0.1,1.2,0.5,1.6,1c0.6,0.9,0.9,2,0.8,3.1c-0.1,0.8-0.3,1.6-0.8,2.3
        c-0.5,0.7-1.1,1.1-1.9,1.1c-0.4,0-0.8,0-1.2,0.1c-0.3,0-0.4-0.1-0.4-0.4c0-1.2,0-2.3,0-3.5C39,37.6,39.1,36.4,39,35.3z M13.7,35.6
        c-0.8,2-0.8,4.1,0,6.2c0.4,1,1,1.9,2,2.5c1.2,0.7,2.5,0.8,3.8,0.5c1.2-0.2,2.1-0.9,2.8-1.9c0.8-1.4,1.2-2.9,1.1-4.5
        c0-0.9-0.2-1.7-0.5-2.5c-0.8-2.1-2.2-3.4-4.6-3.4C15.8,32.5,14.4,33.8,13.7,35.6z M16.4,36.2c0.4-1.1,1.2-1.5,2.3-1.3
        c0.7,0.1,1.1,0.5,1.3,1.1c0.2,0.5,0.3,1,0.4,1.5c0.2,1.2,0.1,2.4-0.2,3.6c-0.1,0.5-0.3,0.9-0.7,1.3c-0.9,0.8-2.2,0.6-2.8-0.4
        c-0.4-0.6-0.5-1.2-0.6-1.9C16,39.6,16,39.2,15.9,39C16,37.9,16,37,16.4,36.2z M67,44.4c0,0.2,0,0.4,0.3,0.4c2.7,0,5.3,0,8,0
        c0.2,0,0.3-0.1,0.3-0.3c0-0.5,0-1,0-1.6c0-0.4,0-0.4-0.4-0.4c-1.6,0-3.3,0-4.9,0c-0.3,0-0.4-0.1-0.4-0.4c0-0.6,0-1.3,0-1.9
        c0-0.3,0.1-0.4,0.4-0.4c1.3,0,2.5,0,3.8,0c0.3,0,0.4-0.1,0.4-0.4c0-0.5,0-1,0-1.4c0-0.3-0.1-0.4-0.4-0.4c-1.2,0-2.5,0-3.7,0
        c-0.4,0-0.4,0-0.4-0.4c0-0.6,0-1.2,0-1.7c0-0.4,0-0.4,0.4-0.4c1.6,0,3.3,0,4.9,0c0.4,0,0.4,0,0.4-0.4c0-0.5,0-0.9,0-1.4
        c0-0.3-0.1-0.4-0.4-0.4c-2.6,0-5.2,0-7.8,0c-0.3,0-0.4,0.1-0.4,0.4c0,1.9,0,3.7,0,5.6C67,40.6,67,42.5,67,44.4z M124.6,44.4
        c0,0.2,0,0.4,0.3,0.4c2.7,0,5.3,0,8,0c0.2,0,0.3-0.1,0.3-0.3c0-0.5,0-1,0-1.6c0-0.4,0-0.4-0.4-0.4c-1.6,0-3.2,0-4.8,0
        c-0.5,0-0.5,0-0.5-0.5c0-0.6,0-1.3,0-1.9c0-0.3,0.1-0.4,0.4-0.3c1.3,0,2.5,0,3.8,0c0.3,0,0.4-0.1,0.4-0.4c0-0.5,0-0.9,0-1.4
        c0-0.3-0.1-0.4-0.4-0.4c-1.3,0-2.5,0-3.8,0c-0.3,0-0.4-0.1-0.4-0.4c0-0.6,0-1.2,0-1.8c0-0.4,0-0.4,0.4-0.4c1.6,0,3.3,0,4.9,0
        c0.3,0,0.4-0.1,0.4-0.4c0-0.5,0-1,0-1.5c0-0.3-0.1-0.4-0.4-0.4c-2.6,0-5.2,0-7.8,0c-0.3,0-0.4,0.1-0.4,0.4c0,1.9,0,3.7,0,5.6
        C124.6,40.6,124.6,42.5,124.6,44.4z M63.6,37.2c0.6,0,0.6-0.1,0.6-0.7c-0.2-1.1-0.6-2.1-1.5-2.9c-1.2-1-2.6-1.1-4-1
        c-2,0.2-3.3,1.3-4,3.1c-0.6,1.5-0.7,3.1-0.4,4.7c0.2,1.3,0.8,2.4,1.8,3.3c1.4,1.2,3,1.4,4.8,1.1c1.8-0.4,3.2-1.8,3.5-3.9
        c0-0.2,0-0.3-0.2-0.3c-0.7,0-1.3-0.1-2-0.1c-0.3,0-0.4,0.1-0.5,0.4c-0.1,0.3-0.2,0.7-0.4,1c-0.3,0.5-0.7,0.8-1.2,0.9
        c-1.3,0.2-2.2-0.3-2.5-1.5c-0.3-1-0.4-2.1-0.2-3.1c0.1-0.7,0.2-1.4,0.4-2c0.2-0.6,0.7-1.1,1.3-1.2c1.2-0.2,2.1,0.4,2.4,1.5
        c0.1,0.3,0.1,0.6,0.2,1C62.2,37.3,62.9,37.3,63.6,37.2z M1.1,51.7c-0.1,0-0.2,0-0.4,0c-0.1,0-0.2,0.1-0.2,0.2c0,0.1,0.1,0.2,0.1,0.2
        c0.1,0,0.2,0,0.3,0c48.1,0,96.2,0,144.3,0c0.1,0,0.2,0,0.2,0c0.1,0,0.1-0.1,0.2-0.2c-0.1-0.1-0.1-0.2-0.2-0.2c-0.1,0-0.2,0-0.3,0
        c-24,0-48.1,0-72.1,0C49.2,51.7,25.1,51.7,1.1,51.7z M145.9,52.6c0.1-0.1,0.2-0.2,0.3-0.3l0.3-0.5l-0.4-0.4
        c-0.1-0.1-0.2-0.2-0.4-0.3c-0.2-0.1-0.3,0-0.5,0L1,51.1c-0.1,0-0.3,0-0.4,0C0.3,51.2,0,51.5,0,51.8c0,0.4,0.3,0.7,0.5,0.8
        c0.2,0.1,0.4,0.1,0.5,0.1l144.3,0c0,0,0.1,0,0.1,0C145.6,52.7,145.7,52.7,145.9,52.6z M110.6,40.1c1.2,0,2.4,0,3.7,0
        c0.3,0,0.4-0.1,0.4-0.3c0-0.5,0-1,0-1.5c0-0.3-0.1-0.4-0.4-0.4c-1.2,0-2.5,0-3.7,0c-0.3,0-0.4-0.1-0.4-0.4c0-0.7,0-1.4,0-2
        c0-0.5,0-0.5,0.5-0.5c1.6,0,3.2,0,4.8,0c0.3,0,0.4-0.1,0.4-0.4c0-0.5,0-1.1,0-1.6c0-0.2-0.1-0.3-0.3-0.3c-2.6,0-5.3,0-7.9,0
        c-0.2,0-0.3,0.1-0.3,0.3c0,3.8,0,7.6,0,11.4c0,0.2,0.1,0.3,0.3,0.3c0.8,0,1.5,0,2.3,0c0.3,0,0.3-0.1,0.3-0.3c0-1.3,0-2.6,0-3.9
        c0-0.1,0-0.3,0-0.4C110.4,40.1,110.5,40.1,110.6,40.1z M95.8,35.4c0-0.3,0.1-0.4,0.4-0.4c0.8,0,1.5,0,2.3,0c0.3,0,0.4-0.1,0.4-0.4
        c0-0.5,0-1.1,0-1.6c0-0.2-0.1-0.3-0.3-0.3c-2.7,0-5.4,0-8.1,0c-0.2,0-0.3,0.1-0.3,0.3c0,0.5,0,1.1,0,1.6c0,0.3,0.1,0.4,0.4,0.4
        c0.8,0,1.5,0,2.3,0c0.3,0,0.4,0.1,0.4,0.4c0,0.1,0,0.2,0,0.3c0,2.9,0,5.8,0,8.6c0,0.3,0.1,0.4,0.4,0.4c0.7,0,1.3,0,2,0
        c0.3,0,0.4-0.1,0.4-0.4c0-1.5,0-3,0-4.5C95.8,38.4,95.8,36.9,95.8,35.4z M26.2,44.4c0,0.3,0.1,0.4,0.3,0.4c2.3,0,4.6,0,6.9,0
        c0.3,0,0.4-0.1,0.4-0.3c0-0.5,0-1.1,0-1.6c0-0.3-0.1-0.4-0.4-0.4c-1.3,0-2.6,0-3.9,0c-0.5,0-0.5,0-0.5-0.5c0-3,0-5.9,0-8.9
        c0-0.3-0.1-0.4-0.4-0.4c-0.7,0-1.4,0-2,0c-0.3,0-0.4,0.1-0.4,0.4c0,1.9,0,3.7,0,5.6C26.2,40.6,26.2,42.5,26.2,44.4z M118.4,44.4
        c0,0.3,0.1,0.3,0.3,0.3c0.7,0,1.4,0,2.1,0c0.2,0,0.3-0.1,0.3-0.3c0-3.8,0-7.6,0-11.4c0-0.2-0.1-0.3-0.3-0.3c-0.7,0-1.4,0-2.1,0
        c-0.3,0-0.4,0.1-0.4,0.4c0,1.9,0,3.7,0,5.6C118.4,40.6,118.4,42.5,118.4,44.4z M101.1,44.4c0,0.2,0,0.4,0.3,0.4c0.7,0,1.4,0,2.2,0
        c0.2,0,0.3-0.1,0.3-0.3c0-3.8,0-7.6,0-11.4c0-0.2-0.1-0.3-0.3-0.3c-0.7,0-1.4,0-2.1,0c-0.3,0-0.4,0.1-0.4,0.4c0,1.9,0,3.7,0,5.6
        C101.1,40.6,101.1,42.5,101.1,44.4z M50.8,67.5c0.3,0,0.3-0.1,0.4-0.3c0.2-1.2,0.4-2.3,0.6-3.5c0-0.3,0.2-0.4,0.5-0.4c1,0,2,0,3-0.1
        c1.9-0.2,3.1-1.8,2.9-3.7c-0.2-1.1-1-2.1-2.1-2.2c-1.4-0.1-2.7-0.1-4.1-0.1c-0.1,0-0.2,0.1-0.2,0.2c-0.1,0.6-0.2,1.3-0.3,1.9
        c-0.3,2-0.7,4.1-1,6.1c-0.1,0.7-0.2,1.3-0.3,2C50.2,67.5,50.5,67.5,50.8,67.5z M52.2,60.8c0.1-0.8,0.2-1.5,0.4-2.2
        c0-0.1,0.2-0.3,0.2-0.3c0.9,0,1.8,0,2.6,0.1c0.8,0.1,1.3,0.8,1.3,1.7c0.1,1.4-0.8,2.3-2.1,2.4c-0.9,0-1.8,0-2.7,0
        C52.1,61.8,52.1,61.3,52.2,60.8z M63.2,66.3c0,0.1,0,0.2,0,0.3c-0.2,0.9-0.1,1,0.8,1c0.2,0,0.3,0,0.3-0.3c0-0.2,0-0.4,0-0.6
        c0.2-1.5,0.4-3,0.7-4.4c0.1-0.8-0.1-1.5-0.8-1.9c-1.2-0.8-3.3-0.8-4.5,0.1c-0.3,0.3-0.6,0.6-1,1c0.4,0.2,0.6,0.3,0.9,0.4
        c0.2,0.1,0.3,0,0.3-0.1c0.5-0.9,1.4-1.2,2.4-1.1c0.9,0.1,1.4,0.5,1.6,1.4c0,0.2,0,0.4,0,0.6c0,0.3-0.1,0.3-0.4,0.3c-0.7,0-1.4,0-2,0
        c-0.9,0-1.7,0.2-2.4,0.7c-0.8,0.6-1.2,1.4-1,2.4c0.2,0.9,0.8,1.5,1.7,1.7c1,0.2,2,0,2.8-0.8c0.2-0.2,0.5-0.5,0.7-0.8
        C63.1,66.2,63.2,66.2,63.2,66.3z M63.3,63.7c0.2,0,0.2,0,0.2,0.2c-0.3,1.5-1.4,2.7-2.6,2.9c-0.7,0.1-1.4-0.1-1.7-0.7
        c-0.3-0.6-0.1-1.4,0.5-1.9c0.6-0.4,1.2-0.5,1.9-0.6c0.3,0,0.5,0,0.8,0C62.7,63.7,63,63.7,63.3,63.7z M89.4,66
        c-0.6,0.8-1.4,1-2.4,0.8c-0.9-0.2-1.6-1.1-1.6-2.1c0-1.1-0.1-0.9,0.9-0.9c1.5,0,3,0,4.4,0c0.3,0,0.4-0.1,0.4-0.4c0-0.3,0-0.5,0-0.8
        c-0.1-1.1-0.5-2-1.5-2.6c-1.4-0.8-3.4-0.3-4.4,1c-0.7,0.9-1,1.8-1,2.9c-0.1,1,0.1,2,0.8,2.7c1,1.1,2.2,1.2,3.5,0.8
        c1-0.2,1.6-0.9,2.1-1.8c-0.3-0.2-0.6-0.3-0.9-0.4C89.7,65.6,89.5,65.8,89.4,66z M88,60.5c1.2-0.1,2.2,0.8,2.1,2.2
        c0,0.1-0.1,0.2-0.2,0.2c-1.4,0-2.8,0-4.2,0C85.6,61.8,86.8,60.6,88,60.5z M76.8,67.5c0.2,0,0.3-0.1,0.3-0.2c0.1-0.7,0.2-1.5,0.4-2.2
        c0.2-1,0.3-2,0.8-3c0.4-0.7,0.8-1.3,1.6-1.5c1.3-0.3,2.1,0.5,2,1.7c-0.2,1.5-0.5,3-0.7,4.5c-0.1,0.7-0.1,0.7,0.6,0.7
        c0.2,0,0.3,0,0.4-0.3c0.2-1.6,0.5-3.3,0.8-4.9c0.3-1.6-1-2.9-2.8-2.5c-0.8,0.2-1.3,0.7-1.8,1.3c-0.1,0.1-0.2,0.3-0.3,0.4
        c0,0-0.1,0-0.1,0c0.1-0.5,0.2-1,0.2-1.5c-0.2,0-0.4,0-0.6,0c-0.3,0-0.4,0.1-0.4,0.4c-0.3,1.8-0.6,3.5-0.9,5.3
        c-0.1,0.6-0.2,1.3-0.3,1.9C76.4,67.5,76.6,67.5,76.8,67.5z M74.2,66.8c-0.7,0.1-1.2-0.4-1.1-1.1c0.3-1.5,0.5-3.1,0.8-4.6
        c0-0.2,0.1-0.3,0.3-0.3c0.4,0,0.8,0,1.2,0c0.1,0,0.2-0.1,0.3-0.1c0.1-0.2,0.1-0.5,0.1-0.7c-0.6,0-1.1,0-1.7,0
        c0.1-0.7,0.2-1.3,0.3-1.9c-0.3,0-0.5,0-0.8,0c-0.2,0-0.3,0.1-0.3,0.3c0,0.4-0.1,0.8-0.2,1.2c0,0.3-0.1,0.4-0.4,0.4
        c-0.2,0-0.4,0-0.6,0c-0.1,0-0.2,0.1-0.2,0.1c-0.1,0.2-0.1,0.4-0.1,0.7c0.4,0,0.8,0,1.1,0c0,0.1,0,0.1,0,0.2
        c-0.1,0.8-0.3,1.6-0.4,2.5c-0.1,0.9-0.3,1.9-0.3,2.8c0,0.6,0.3,1.1,0.9,1.2c0.3,0.1,0.6,0.2,0.9,0.2c1.1,0.1,1.2,0,1.3-0.8
        c0,0,0,0,0-0.1C74.8,66.8,74.5,66.8,74.2,66.8z M67,67.5c0.2,0,0.3-0.1,0.4-0.3c0.1-0.6,0.2-1.1,0.3-1.7c0.2-1.1,0.4-2.2,0.9-3.1
        c0.4-0.8,1-1.4,1.9-1.5c0.2,0,0.5,0,0.6-0.1c0.1-0.1,0.1-0.4,0.2-0.7c0,0,0,0,0,0c0-0.2,0-0.3-0.3-0.3c-0.5,0-1.1,0.1-1.4,0.5
        c-0.4,0.4-0.7,0.9-1.1,1.3c-0.1,0.1-0.1,0.2-0.2,0.3c0,0,0,0-0.1,0c0.1-0.5,0.2-1,0.3-1.6c0-0.2,0-0.3-0.2-0.3c-0.2,0-0.4,0-0.6,0
        c-0.2,0-0.3,0.1-0.3,0.3c-0.3,1.8-0.6,3.6-0.9,5.3c-0.1,0.6-0.2,1.3-0.3,2C66.5,67.5,66.7,67.5,67,67.5z M95.4,60.3
        c-0.4,0.4-0.7,0.9-1.1,1.3c-0.1,0.1-0.1,0.1-0.2,0.2c0-0.4,0-0.8,0.1-1.1c0.2-0.9,0.3-0.8-0.6-0.8c-0.2,0-0.3,0.1-0.4,0.3
        c-0.4,2.3-0.8,4.6-1.2,7c0,0.2,0,0.3,0.3,0.3c0.2,0,0.3,0,0.5,0c0.2,0,0.3-0.1,0.3-0.3c0.1-0.8,0.3-1.6,0.4-2.4
        c0.2-1.1,0.5-2.2,1.2-3.1c0.4-0.5,0.9-0.8,1.5-0.9c0.2,0,0.5,0,0.6-0.1c0.1-0.1,0.1-0.4,0.2-0.6c0-0.1,0-0.2,0-0.4
        C96.4,59.7,95.8,59.8,95.4,60.3z M147.8,8.6c0-0.1,0.1-0.3,0.1-0.4c0-0.1,0.1-0.2,0.2-0.2c0.1,0,0.2,0.1,0.3,0.2
        c0.1,0.1,0.1,0.3,0.2,0.5c0.1,0.2,0.2,0.3,0.4,0.2c-0.1-0.1-0.1-0.3-0.2-0.4c-0.1-0.1-0.1-0.3-0.2-0.4c0.1-0.1,0.2-0.1,0.3-0.1
        c0.4-0.2,0.4-0.9,0-1c-0.3-0.1-0.7-0.1-1,0c0,0-0.1,0.1-0.1,0.2c-0.1,0.6-0.3,1.2-0.4,1.8C147.6,8.9,147.7,8.8,147.8,8.6z M148,7.4
        c0.1-0.4,0.4-0.5,0.7-0.4c0.1,0,0.2,0.2,0.1,0.2c0,0.1-0.1,0.2-0.2,0.3c-0.2,0.1-0.5,0.1-0.7,0.1C148,7.5,148,7.5,148,7.4z"/>
    </svg>