<svg class="microsoft-gold" enable-background="new 0 0 127 58" version="1.1" viewBox="0 0 127 58" xml:space="preserve" xmlns="http://www.w3.org/2000/svg">
<path class="black" d="m37 20.7c7.5 0.2 9.2-5.8 9.2-5.9h-5.6c-0.2 0.3-0.9 2.2-2.6 2.1-2.1-0.1-2.2-2.6-1.4-4.8 0.7-1.9 1.9-3.5 3.4-3.6 1.8-0.1 1.6 2.2 1.5 2.4h5.5c0.1-0.1 0.2-1.9-0.9-3.4-0.8-1.2-2.4-2.4-5.2-2.5-3-0.2-5.4 0.9-7.2 2.5-1.3 1.3-2.2 2.9-2.7 4.6-1.1 4.1 0.7 8.5 6 8.6zm13.6-0.4l1.2-5.3c0.3-1.3 0.7-2.2 1.1-2.9 1.1-1.9 2.6-2.1 3.5-2.1-0.4 0.7-0.7 1.4-0.8 2.1-1 4.1 0.8 8.4 6.4 8.6 4.3 0.1 7.5-2.2 8.9-4.9-0.2 1.7 0.6 4.9 7.5 4.9 7.8 0.1 8.4-4.9 8.4-5.9-0.1-1.3-0.5-2.2-1.1-2.8-1.3-1.2-3.4-1.4-5.4-1.9-2.5-0.5-2-2.4 0.2-2.4 2.4 0 1.8 1.9 1.8 1.9h5.1c-0.1-0.2 0.2-1.1-0.2-2.2-0.5-1.3-2-2.7-6.2-2.7-3-0.1-5.9 0.7-7.1 2.7-0.3 0.5-0.5 1-0.6 1.7-0.2 1.3 0.2 2.2 0.8 2.9 1.5 1.6 4.3 2.1 5.3 2.3 3 0.5 2.1 3-0.1 3-3.2 0-2.4-2.2-2.4-2.2h-10l4.4-1.6c0.4-0.2 0.7-0.3 0.8-0.7 0.1-0.3 0.1-0.5 0.1-0.8 0.2-1.8-0.2-3.3-1-4.6-1.2-1.4-3-2.4-5.6-2.5-3.1-0.2-5.6 1-7.3 2.7-0.3 0.3-0.5 0.6-0.8 0.9l0.2-0.9 0.7-2.4c-0.9 0-1.8 0.2-2.6 0.4-1 0.4-1.8 0.9-2.5 1.7l0.4-1.9h-4.9l-0.4 2.1-1 4.6-1.9 8.2h5.1zm10.6-8.2c0.7-2.1 2.2-4.1 4-3.8 1.5 0.3 1.9 2 1.5 3.8-0.4 2.5-2.2 5.3-4.4 4.8-1.7-0.3-1.8-2.6-1.1-4.8zm32.7 8.7c6 0.2 9.7-4.4 10-8.6 0.2-1.7-0.2-3.3-1.1-4.6-1-1.5-2.8-2.6-5.4-2.7-3.1-0.2-5.6 1-7.3 2.7-1.3 1.3-2.2 2.9-2.6 4.6-1 4 0.9 8.4 6.4 8.6zm-0.8-8.7c0.7-2.1 2.3-4.1 4-3.8 1.5 0.3 1.9 2 1.5 3.8-0.4 2.5-2.2 5.3-4.4 4.8-1.7-0.3-1.8-2.6-1.1-4.8zm12.5 0l-1.8 8.2h5.3l1.8-8.2 0.7-3.2h3l-0.7 3.2-0.9 4.3c-0.4 2 0.3 2.8 0.9 3.3 1.4 1 5.7 0.5 5.7 0.5l0.8-3.4s-2.1 0.3-2.4-0.3c-0.1-0.4 0-0.7 0.1-1.1l0.7-3.2 0.7-3.2h2.5l0.3-1.4 0.4-2.1h-2.6l0.8-3.6h-5l-0.8 3.6h-3.2l0.1-0.4c0.2-1.1 0.3-1.7 2-1.7l0.6-2.8s-4.2-0.5-5.9 0.8c-1.1 0.9-1.5 1.9-2.1 4.1h-2.6l-0.5 2.1-0.3 1.4h2.7l-0.3 3.1zm19.8-6.8c-0.9 0-1.6 0.7-1.6 1.6 0 0.2 0.1 0.4 0.2 0.6 0.2 0.6 0.8 1 1.5 1s1.3-0.4 1.5-1c0.1-0.2 0.1-0.4 0.1-0.6-0.1-0.9-0.8-1.6-1.7-1.6zm1.2 2.2c-0.2 0.5-0.7 0.8-1.3 0.8-0.5 0-1-0.3-1.3-0.8v-0.6c0-0.8 0.6-1.4 1.4-1.4s1.4 0.6 1.4 1.4c0 0.3-0.1 0.5-0.2 0.6zm-1-1.5h-0.6l-0.3 1.5-0.1 0.2h0.3v-0.2l0.1-0.5h0.3l0.2 0.5 0.1 0.2h0.3l-0.1-0.2-0.2-0.5c0.3-0.1 0.5-0.2 0.5-0.5s-0.1-0.5-0.5-0.5zm-0.2 0.8h-0.3l0.1-0.5h0.4c0.2 0 0.3 0.1 0.3 0.2 0 0.3-0.3 0.3-0.5 0.3zm-117.4 5.3l0.6-2.6 0.1 2.6 0.2 8.2h4.1l4.1-8.2 1.3-2.6-0.5 2.6-1.9 8.2h5.7l1.8-8.2 1-4.6 1.6-7.3h-7.9l-3.5 7.3-1.9 3.9-0.1-3.9-0.2-7.3h-8l-1.5 7.3-1 4.6-1.8 8.2h5.8l2-8.2zm17 0l-1.8 8.2h5.4l1.8-8.2 1-4.6 0.5-2.1h-5.4l-0.5 2.1-1 4.6zm8-11.8h-5.4l-0.7 3.3h5.4l0.7-3.3z"></path>
<path class="gold" d="m80.9 38.3v-8.3h2.6v-2h-7.6v2h2.6v8.2h2.4zm19.1 0h2.4v-10.3h-2.4v10.3zm-50-8.5c0.7 0 1.2 0.3 1.4 0.9 0.2 0.3 0.2 0.6 0.3 1.3l2.5-0.2c-0.2-1.2-0.4-1.8-0.9-2.5-0.7-1-1.8-1.5-3.3-1.5s-2.6 0.5-3.4 1.5c-0.8 0.9-1.2 2.2-1.2 3.7 0 3.2 1.8 5.3 4.5 5.3 1.5 0 2.7-0.6 3.4-1.6 0.5-0.6 0.7-1.1 0.8-2.1l-2.4-0.1c-0.2 1.3-0.8 1.9-1.8 1.9-1.3 0-1.9-1-1.9-3.2 0.1-2.3 0.7-3.4 2-3.4zm13.7 0.1v-1.9h-7.3v10.2h7.3v-2h-4.9v-2.2h3.8v-1.9h-3.8v-2.1h4.9zm54.3-1.9h-3.1v10.2h3.5c1.6 0 2.7-0.5 3.6-1.5 0.8-1 1.3-2.2 1.3-3.7 0-1.4-0.4-2.7-1.3-3.7-1-1-2.1-1.3-4-1.3zm2 7.5c-0.4 0.5-1 0.8-1.9 0.8h-1v-6.5h1c0.8 0 1.4 0.3 1.8 0.8 0.4 0.7 0.7 1.4 0.7 2.4 0.2 1-0.1 1.9-0.6 2.5zm-7.4-5.6v-1.9h-7.3v10.2h7.3v-2h-4.9v-2.2h3.8v-1.9h-3.8v-2.1h4.9zm-14.7 0.1v-2h-7.3v10.2h2.5v-4h3.8v-1.9h-3.8v-2.3h4.8zm-12.6 8.3h2.4v-10.3h-2.4v10.3zm-85.2 5.7h123.2v-1.1h-123.2v1.1zm4.1-5.6c1.3 0 2-0.3 2.8-1.4 0.2 0.5 0.3 0.7 0.4 1.2h1.1v-5.5h-4.2v1.9h1.9c0 0.5-0.1 0.8-0.3 1.1-0.3 0.4-0.8 0.6-1.3 0.6-1.4 0-2.1-1.1-2.1-3.2 0-2.2 0.7-3.4 2-3.4 0.7 0 1.1 0.3 1.5 0.8 0.2 0.3 0.2 0.5 0.3 1l2.3-0.3c-0.4-2.2-1.8-3.5-4-3.5-2.7 0-4.5 2.1-4.5 5.4-0.1 3.3 1.5 5.3 4.1 5.3zm17.6-10.4v10.2h6.5v-2h-4.1v-8.2h-2.4zm30.3 22.8c-1.3 0-2.2 0.5-2.7 1.5l0.9 0.4c0.4-0.8 1-1.1 1.9-1.1s1.5 0.4 1.5 1.3c0 0.2 0 0.3-0.1 0.7h-0.2-0.8c-1 0-1.7 0.1-2.2 0.2-1.1 0.3-1.8 1.1-1.8 2.1 0 1.1 0.9 1.9 2.1 1.9 0.9 0 1.7-0.4 2.4-1.5-0.1 0.4-0.1 0.6-0.1 1v0.3h1l-0.1-0.3c0-0.2 0.1-0.7 0.2-1.2 0.5-3 0.5-3.2 0.5-3.5 0.1-1-1-1.8-2.5-1.8zm0.9 4.9c-0.5 0.8-1.3 1.3-2 1.3s-1.1-0.4-1.1-1.1c0-0.5 0.3-1 0.9-1.3 0.4-0.2 1.1-0.3 2-0.3 0.3 0 0.5 0.1 0.9 0.1-0.3 0.5-0.4 0.9-0.7 1.3zm21.2-24.6c0-0.9-0.4-1.9-1-2.4-0.7-0.5-1.4-0.7-2.7-0.7h-4.5v10.2h2.4v-4.1h1.7l1.6 4.1h2.7l-1.9-4.5c0.5-0.2 0.7-0.3 0.9-0.6 0.6-0.5 0.8-1.3 0.8-2zm-3 1.1c-0.3 0.2-0.5 0.2-1.3 0.2h-1.5v-2.6h1.4c0.9 0 1.1 0.1 1.4 0.3s0.5 0.6 0.5 1c0.1 0.5-0.2 0.9-0.5 1.1zm-3.1 18.6c-0.9 0-1.7 0.5-2.3 1.6l0.3-1.4h-0.9l-1.1 6.5h0.9l0.4-2.4c0.2-1.2 0.4-1.9 0.8-2.4 0.4-0.8 1-1.1 1.7-1.1s1.2 0.5 1.2 1.2c0 0.2-0.1 0.5-0.1 0.9l-0.7 3.8h1l0.6-3.8c0.1-0.4 0.2-0.8 0.2-1.1 0-0.9-0.9-1.8-2-1.8zm6.3 0c-1.9 0-3.3 1.7-3.3 3.9 0 1.8 1.1 3 2.7 3 1.3 0 2.1-0.5 2.8-1.7l-0.9-0.4c-0.7 0.9-1.1 1.3-1.9 1.3-1.1 0-1.8-0.8-1.8-2 0-0.2 0-0.3 0.1-0.5h4.8c0.1-0.3 0.1-0.5 0.1-0.8 0-1.7-1-2.8-2.6-2.8zm1.6 2.8h-3.7c0.2-1.2 1-2 2.1-2 1 0 1.6 0.7 1.6 1.7v0.3zm-13.3-4.2l-1 0.1-0.3 1.6h-1l-0.2 0.8h1l-0.5 3.1c-0.2 1-0.2 1-0.2 1.4 0 0.9 0.5 1.4 1.6 1.4h0.4l0.3-0.1h0.2l0.1-0.8-0.2 0.1c-0.3 0-0.5 0.1-0.7 0.1-0.5 0-0.8-0.3-0.8-0.7 0-0.2 0.1-0.5 0.1-0.8l0.6-3.6h1.5l0.1-0.8h-1.5l0.5-1.8zm-5.2 3.4l0.3-1.7h-1l-1.1 6.5h1l0.3-1.5c0.2-1.3 0.4-2 0.7-2.6 0.5-1.1 1.1-1.6 2.1-1.6h0.2l0.2-1h-0.2c-1.1-0.1-1.8 0.5-2.5 1.9zm21.9 0l0.3-1.7h-1l-1.1 6.5h1l0.2-1.5c0.2-1.3 0.4-2 0.7-2.6 0.5-1.1 1.2-1.6 2.1-1.6h0.3l0.2-1h-0.2c-1.1-0.1-1.7 0.5-2.5 1.9zm-64.2-24.9c-1.4 0-2.5 0.5-3.3 1.5s-1.1 2.3-1.1 3.8 0.4 2.8 1.1 3.8c0.8 1 1.9 1.5 3.2 1.5 1.4 0 2.6-0.5 3.3-1.5 0.7-0.9 1.1-2.4 1.1-3.8s-0.4-2.7-1.2-3.8c-0.7-1.1-1.8-1.5-3.1-1.5zm-0.1 8.5c-1.3 0-1.9-1.1-1.9-3.3s0.6-3.3 1.9-3.3c0.7 0 1.1 0.2 1.4 0.8s0.4 1.4 0.4 2.5c0.1 2.2-0.5 3.3-1.8 3.3zm32.8 12.8c-0.5-0.3-1-0.4-2.1-0.4h-2.4l-1.5 8.8h1l0.6-3.6h1.8c1.3 0 2-0.2 2.6-0.7s1-1.4 1-2.1c0-0.8-0.4-1.6-1-2zm-1 3.7c-0.4 0.2-0.7 0.3-2 0.3h-1.2l0.6-3.5h1.9c0.3 0 0.8 0.1 1 0.3 0.4 0.2 0.6 0.8 0.6 1.3 0 0.6-0.3 1.3-0.9 1.6zm-16.5-24.9v10.2h3.5c1.6 0 2.7-0.5 3.6-1.5 0.8-1 1.3-2.2 1.3-3.7 0-1.4-0.4-2.7-1.3-3.7-0.9-1.1-2-1.4-3.9-1.4h-3.2zm5.2 2.7c0.4 0.7 0.7 1.4 0.7 2.4 0 0.9-0.3 1.8-0.7 2.5-0.4 0.5-1 0.8-1.9 0.8h-1v-6.5h1c1 0 1.5 0.2 1.9 0.8z"></path>
</svg>