<svg version="1.1" id="money-back-guarantee" xmlns="http://www.w3.org/2000/svg" xmlns:xlink="http://www.w3.org/1999/xlink" x="0px" y="0px"
        viewBox="0 0 121.8 110.3" style="enable-background:new 0 0 121.8 110.3;" xml:space="preserve">
    <path id="Badge_1" style="fill:#CCCDCD;" d="M60.8,98.8l0.9,3.2h-1.9L60.8,98.8L60.8,98.8z M52.4,97.1L51,96.9l-0.4,2.3l1.3,0.3
        c0.4,0.1,0.7,0.1,1-0.1c0.3-0.1,0.4-0.4,0.5-0.7s0-0.7-0.2-0.9C53.1,97.4,52.8,97.2,52.4,97.1z M43.6,98.8l0.4-3.3l0,0L41.9,98
        L43.6,98.8z M31.5,21.9l-2.8-1.7l0,0l1.5,2.9L31.5,21.9z M63.1,7.7L63.1,7.7L62,10.8l1.9,0.1L63.1,7.7z M66,30.7l-0.9,3h1.8L66,30.7
        L66,30.7z M48.4,31.2l-1.5,2.4h1.6v-2.6l0,0L48.4,31.2z M58.2,29.9h-1v5.4h1c0.5,0,0.9-0.2,1.2-0.5c0.3-0.4,0.4-0.8,0.4-1.4v-1.5
        c0-0.6-0.1-1-0.4-1.4C59.1,30.1,58.7,29.9,58.2,29.9z M114.6,41.8c-1.2-0.3-2.4-0.5-3.7-0.5H10.8c-1.1,0-2.1,0.1-3.2,0.4
        C13.7,17.7,35.3,0,61.1,0C87,0,108.7,17.8,114.6,41.8z M85.7,12.2L81,19.7l1.7,1.1l4.7-7.5L85.7,12.2z M79.3,10.7l-3,6.6l1.9,0.9
        l3-6.6l2.1,1l0.7-1.4l-6.1-2.8l-0.7,1.4L79.3,10.7z M68.2,13.9c0.5,0.8,1.3,1.4,2.3,1.6c1,0.3,1.9,0.2,2.6-0.2
        c0.7-0.4,1.2-1.1,1.5-2.1v0l-1.9-0.5c-0.2,0.6-0.4,0.9-0.7,1.1s-0.6,0.2-1.1,0.1c-0.5-0.1-0.8-0.4-1-0.8c-0.2-0.4-0.2-1-0.1-1.6
        l0.4-1.8c0.1-0.6,0.4-1,0.7-1.3c0.4-0.3,0.8-0.4,1.2-0.3c0.5,0.1,0.9,0.4,1,0.7c0.1,0.3,0.2,0.8,0.1,1.3l1.9,0.5l0,0
        c0.2-1,0-1.9-0.4-2.6c-0.4-0.7-1.2-1.2-2.3-1.5c-1-0.3-1.9-0.1-2.7,0.4c-0.8,0.5-1.3,1.3-1.6,2.3l-0.4,1.8
        C67.5,12.1,67.7,13,68.2,13.9z M58.8,13.9l2.1,0.1l0.6-1.7l2.8,0.1l0.4,1.7l2.1,0.1l-2.4-9l-2.2-0.1L58.8,13.9z M29,28.5
        c0-0.7-0.3-1.3-1-1.8c-0.6-0.4-1.3-0.6-1.9-0.4c-0.7,0.2-1.4,0.6-2.2,1.2c-0.6,0.4-1,0.7-1.3,0.7c-0.3,0.1-0.5,0.1-0.7-0.1
        s-0.3-0.4-0.3-0.7s0.1-0.6,0.3-1c0.2-0.3,0.5-0.5,0.8-0.6c0.3-0.1,0.6,0,0.9,0.2l1.2-1.6l0,0c-0.6-0.5-1.3-0.6-2.1-0.4
        c-0.8,0.2-1.5,0.7-2,1.5c-0.6,0.8-0.9,1.6-0.9,2.4s0.3,1.4,0.9,1.8c0.6,0.4,1.3,0.6,1.9,0.4c0.7-0.2,1.4-0.7,2.4-1.4
        c0.5-0.3,0.8-0.5,1.1-0.6c0.3-0.1,0.5,0,0.8,0.2c0.2,0.1,0.3,0.4,0.4,0.6c0,0.3-0.1,0.6-0.3,0.9c-0.3,0.4-0.7,0.7-1,0.8
        c-0.4,0.1-0.7,0-1.1-0.3L23.6,32l0,0c0.7,0.6,1.6,0.7,2.4,0.4c0.8-0.3,1.6-0.9,2.1-1.7S29,29.2,29,28.5z M35.9,22.3l-8.2-4.5
        l-1.6,1.5l4,8.4l1.5-1.4l-0.8-1.6l2-1.9l1.6,0.9L35.9,22.3z M37.5,21.3l1.7-1.1l-4-6.1l1.9-1.3l-0.9-1.3l-5.6,3.7l0.9,1.3l1.9-1.3
        L37.5,21.3z M42.7,28.4L38.8,29v1.4h1.9v6.4h1.9V28.4z M43.9,17.7l-3.9-8l-1.8,0.9l3.9,8L43.9,17.7z M45.9,16.1
        c0.8,0.2,1.8,0.2,2.7-0.1c1-0.3,1.6-0.8,2.1-1.4c0.4-0.6,0.6-1.3,0.3-2c-0.2-0.7-0.7-1.2-1.3-1.5s-1.5-0.4-2.5-0.4
        c-0.7,0-1.2-0.1-1.5-0.1c-0.3-0.1-0.4-0.2-0.5-0.5c-0.1-0.2,0-0.5,0.1-0.7c0.2-0.2,0.4-0.4,0.8-0.6c0.4-0.1,0.7-0.1,1,0
        s0.5,0.4,0.6,0.7L49.8,9v0c-0.2-0.8-0.7-1.3-1.5-1.6c-0.7-0.3-1.6-0.3-2.5,0c-1,0.3-1.7,0.8-2.1,1.4c-0.5,0.6-0.6,1.3-0.4,2
        c0.2,0.7,0.7,1.2,1.3,1.4c0.6,0.2,1.5,0.3,2.7,0.3c0.6,0,1,0.1,1.2,0.2c0.3,0.1,0.4,0.3,0.5,0.6c0.1,0.3,0.1,0.5-0.1,0.7
        c-0.1,0.2-0.4,0.4-0.8,0.5c-0.5,0.2-1,0.2-1.3,0.1c-0.3-0.1-0.6-0.4-0.7-0.9l-1.9,0.6v0C44.5,15.3,45,15.8,45.9,16.1z M51.3,33.5
        h-0.8v-5.1h-1.9v0l-3.4,5.4l0.1,1.2h3.3v1.8h1.9V35h0.8V33.5z M54.8,14.5L54.3,11l3.5-0.4L57.6,9l-3.5,0.4l-0.3-2.1L58,6.8l-0.2-1.6
        L51.6,6l1.1,8.8L54.8,14.5z M61.8,31.9c0-1-0.3-1.8-1-2.5c-0.7-0.7-1.5-1-2.5-1h-3v8.4h3c1,0,1.8-0.3,2.5-1c0.7-0.7,1-1.5,1-2.5
        V31.9z M69.8,36.8l-2.7-8.4H65l-2.7,8.4h2l0.5-1.6h2.7l0.5,1.6H69.8z M76.4,28.4h-2.1l-1.7,3.7h0l-1.7-3.7h-2.1l2.8,5.3v3h1.9v-3
        L76.4,28.4z M83.4,34.6c0-0.7-0.2-1.3-0.7-1.7c-0.5-0.4-1.2-0.8-2.1-1c-0.6-0.2-1-0.4-1.3-0.6c-0.2-0.1-0.3-0.4-0.3-0.6
        c0-0.2,0.1-0.5,0.3-0.6c0.2-0.2,0.5-0.3,0.9-0.3c0.4,0,0.7,0.1,0.9,0.3c0.2,0.2,0.3,0.5,0.3,0.8h1.9l0,0c0-0.7-0.3-1.4-0.9-1.8
        c-0.6-0.5-1.3-0.7-2.3-0.7c-0.9,0-1.7,0.2-2.3,0.7c-0.6,0.4-0.9,1-0.9,1.7c0,0.7,0.3,1.3,0.8,1.7c0.5,0.4,1.3,0.7,2.4,1.1
        c0.5,0.2,0.9,0.3,1,0.5c0.2,0.2,0.3,0.4,0.3,0.7c0,0.3-0.1,0.5-0.3,0.6c-0.2,0.2-0.5,0.2-0.9,0.2c-0.5,0-0.9-0.1-1.2-0.3
        c-0.3-0.2-0.4-0.6-0.4-1h-1.9l0,0c0,0.9,0.3,1.6,1,2.1c0.7,0.5,1.5,0.7,2.5,0.7c0.9,0,1.7-0.2,2.3-0.6
        C83.1,35.9,83.4,35.3,83.4,34.6z M89.4,24.9c1-0.1,1.8-0.5,2.5-1.4l1-1.2c0.7-0.8,1-1.7,1-2.7c-0.1-1-0.5-1.8-1.4-2.6
        c-0.8-0.7-1.8-1-2.7-1c-1,0.1-1.8,0.5-2.6,1.4l-1,1.2c-0.7,0.8-1,1.7-1,2.7c0.1,1,0.5,1.9,1.4,2.6C87.5,24.7,88.4,25,89.4,24.9z
        M101.8,27.7l-1.2-1.6L96,29.4l0,0l2.6-6l-1.2-1.6l-7.1,5.3l1.2,1.6l4.5-3.4l0,0l-2.6,6l1.2,1.6L101.8,27.7z M91.6,18.3
        c-0.4-0.4-0.9-0.5-1.4-0.4c-0.5,0.1-0.9,0.4-1.3,0.9l-1,1.2c-0.4,0.5-0.7,1-0.7,1.5c0,0.5,0.1,0.9,0.6,1.3c0.4,0.4,0.9,0.5,1.3,0.4
        c0.5-0.1,0.9-0.4,1.4-0.9l1-1.2c0.4-0.5,0.6-1,0.7-1.5C92.2,19.1,92,18.6,91.6,18.3z M76.7,55.4h-1.9v2.7h1.7c0.5,0,1-0.1,1.2-0.3
        c0.3-0.2,0.4-0.5,0.4-1c0-0.5-0.1-0.8-0.4-1.1C77.6,55.5,77.2,55.4,76.7,55.4z M77.3,53.4c0.3-0.2,0.4-0.5,0.4-0.9
        c0-0.5-0.1-0.8-0.4-1c-0.3-0.2-0.7-0.3-1.3-0.3h-1.2v2.6H76C76.6,53.7,77.1,53.6,77.3,53.4z M121.8,54.7c0,6-4.9,10.8-10.8,10.8
        H10.8C4.9,65.5,0,60.7,0,54.7s4.9-10.8,10.8-10.8H111C116.9,43.9,121.8,48.8,121.8,54.7z M21.6,60.1V49.2h-3.3l-2.5,7.6h0l-2.4-7.6
        H10v10.9h2.6v-2.7l-0.2-4.9h0l2.6,7.6h1.7l2.6-7.7h0l-0.2,5v2.7H21.6L21.6,60.1z M33.2,55.6v-2c0-1.3-0.4-2.4-1.3-3.3
        c-0.9-0.9-2-1.3-3.3-1.3c-1.4,0-2.5,0.4-3.4,1.3c-0.9,0.9-1.3,2-1.3,3.3v2c0,1.3,0.4,2.4,1.3,3.3s2,1.3,3.4,1.3
        c1.4,0,2.5-0.4,3.3-1.3C32.8,58.1,33.2,57,33.2,55.6L33.2,55.6z M44.7,49l-2.5,0v7.1l0,0L38,49h-2.4v11.1h2.5v-7l0,0l4,7h2.5V49z
        M54.9,49l-7.6,0.1v11h7.6v-1.9h-5v-2.7h4.3v-1.9h-4.3v-2.4h5.1V49z M65.9,49h-2.8l-2.2,4.9h0L58.7,49l-2.7,0l3.6,7.1v4h2.5v-3.8
        L65.9,49z M80.7,56.9c0-0.6-0.1-1.1-0.4-1.5c-0.3-0.4-0.8-0.7-1.4-0.9c0.5-0.2,0.9-0.5,1.1-0.9c0.2-0.4,0.4-0.9,0.4-1.4
        c0-1-0.4-1.9-1.1-2.4S77.3,49,76,49h-3.8l0,11.1h4.3c1.3,0,2.4-0.3,3.1-0.8C80.3,58.7,80.7,57.9,80.7,56.9z M92,60.1l-3.5-10.9h-2.7
        l-3.5,10.9h2.5l0.6-2.1h3.4l0.6,2.1H92z M102,53c-0.1-1.3-0.5-2.3-1.2-3c-0.7-0.7-1.8-1-3.2-1c-1.3,0-2.4,0.4-3.2,1.3
        c-0.8,0.8-1.2,1.9-1.2,3.2v2.3c0,1.3,0.4,2.4,1.3,3.2c0.8,0.8,1.9,1.3,3.3,1.3c1.3,0,2.4-0.3,3.1-1c0.7-0.7,1.1-1.7,1.1-2.9l0,0
        h-2.5c0,0.7-0.2,1.2-0.4,1.6c-0.2,0.3-0.7,0.5-1.3,0.5c-0.6,0-1.1-0.2-1.5-0.7c-0.4-0.5-0.5-1.1-0.5-1.8v-2.3c0-0.7,0.1-1.3,0.5-1.8
        c0.3-0.5,0.8-0.7,1.4-0.7c0.7,0,1.2,0.2,1.4,0.5c0.3,0.4,0.4,0.9,0.5,1.6L102,53L102,53z M113.5,60.1l-3.7-6l3.4-4.9h-3.2l-2.4,4.3
        h-0.9v-4.3h-2.5v10.9h2.5v-4.4h1.2l2.4,4.4H113.5z M87,52.1L85.9,56h2.3L87,52.1L87,52.1z M28.6,51c-0.7,0-1.2,0.2-1.6,0.7
        c-0.4,0.5-0.5,1.1-0.5,1.9v2c0,0.8,0.2,1.4,0.5,1.9c0.4,0.5,0.9,0.7,1.6,0.7c0.7,0,1.2-0.2,1.6-0.7c0.4-0.5,0.5-1.1,0.5-1.9v-2
        c0-0.8-0.2-1.4-0.5-1.9C29.8,51.2,29.2,51,28.6,51z M40.7,77.4c0.3,0,0.5-0.1,0.7-0.4c0.2-0.3,0.3-0.6,0.4-1l0.2-1
        c0.1-0.4,0-0.7-0.1-1c-0.1-0.3-0.4-0.4-0.7-0.4c-0.3,0-0.5,0.1-0.7,0.4c-0.2,0.2-0.3,0.6-0.4,1l-0.2,1c-0.1,0.4-0.1,0.8,0.1,1
        C40.1,77.3,40.3,77.4,40.7,77.4z M49.3,77c0.2-0.3,0.3-0.6,0.4-1l0.2-1c0.1-0.4,0-0.7-0.1-1c-0.1-0.3-0.4-0.4-0.7-0.4
        c-0.3,0-0.5,0.1-0.7,0.4c-0.2,0.2-0.3,0.6-0.4,1l-0.2,1c-0.1,0.4-0.1,0.8,0.1,1c0.1,0.2,0.4,0.4,0.7,0.4
        C48.8,77.4,49.1,77.3,49.3,77z M71.9,85.8c0.2-0.2,0.3-0.5,0.4-0.9l0.2-1c0.1-0.4,0-0.7-0.1-1c-0.1-0.2-0.4-0.4-0.7-0.4h-0.4
        l-0.7,3.6h0.7C71.5,86.2,71.7,86.1,71.9,85.8z M51.8,83.2L51.8,83.2l-0.9,1.9h1L51.8,83.2z M114.9,67.4
        c-5.6,24.6-27.5,42.9-53.8,42.9C34.9,110.3,13,92,7.4,67.6c1.1,0.3,2.2,0.5,3.4,0.5H111C112.3,68,113.7,67.8,114.9,67.4z M92,82.5
        l4.4,3.7l1.3-1.6l-4.4-3.7L92,82.5z M86.4,78c0.4,0.3,0.9,0.4,1.4,0.4c0.6,0,1.1-0.1,1.5-0.4c0.4-0.3,0.7-0.6,0.7-1.1
        c0.1-0.5,0-0.9-0.2-1.2c-0.2-0.3-0.7-0.5-1.2-0.7c-0.4-0.2-0.7-0.3-0.8-0.4c-0.1-0.1-0.1-0.3-0.1-0.5c0-0.1,0.1-0.2,0.2-0.3
        c0.1-0.1,0.3-0.1,0.4-0.1c0.2,0,0.4,0.1,0.5,0.2C89,74,89,74.1,89,74.4h1.3l0,0c0.1-0.5,0-0.9-0.3-1.3s-0.8-0.5-1.4-0.5
        c-0.6,0-1,0.1-1.5,0.4s-0.7,0.6-0.7,1.1c-0.1,0.5,0,0.8,0.3,1.1c0.3,0.3,0.7,0.6,1.4,0.8c0.3,0.1,0.5,0.3,0.7,0.4
        c0.1,0.1,0.1,0.3,0.1,0.5c0,0.1-0.1,0.2-0.3,0.3c-0.1,0.1-0.3,0.1-0.4,0.1c-0.2,0-0.4,0-0.6-0.1c-0.1-0.1-0.2-0.3-0.1-0.6H86v0
        C85.9,77.3,86,77.7,86.4,78z M80,78.3h1.3l0.7-3.5h0l1.1,3.5h1.3l1.1-5.7h-1.3l-0.7,3.5h0l-1.1-3.5h-1.3L80,78.3z M75.2,77.7
        c0.4,0.5,0.9,0.7,1.5,0.7c0.7,0,1.2-0.2,1.7-0.6c0.5-0.4,0.8-1,0.9-1.8l0.2-1c0.1-0.7,0-1.2-0.4-1.7c-0.4-0.5-0.9-0.7-1.5-0.7
        c-0.7,0-1.2,0.2-1.7,0.6c-0.4,0.4-0.7,1-0.9,1.8l-0.2,1C74.7,76.7,74.8,77.2,75.2,77.7z M73,72.7l-1.1,5.6h1.3l1.1-5.6H73z
        M68.3,83.8h-2l0.2-1.2h2.4l0.2-1h-3.7l-1.1,5.6H68l0.2-1h-2.4l0.3-1.4h2L68.3,83.8L68.3,83.8z M62.6,84.3l2-2.8h-1.7l-1.3,2.2h-0.4
        l0.4-2.2h-1.3l-1.1,5.6h1.3l0.4-2.2h0.4l0.7,2.2h1.5L62.6,84.3z M69,87.1h2.1c0.6,0,1.2-0.2,1.6-0.6c0.4-0.4,0.7-1,0.9-1.7l0.2-1
        c0.1-0.7,0-1.2-0.4-1.7c-0.4-0.4-0.9-0.7-1.5-0.7h-1.8L69,87.1z M67.8,73.7h1.3l-0.9,4.6h1.3l0.9-4.6h1.3l0.2-1h-4L67.8,73.7z
        M62.8,78c0.4,0.3,0.9,0.4,1.4,0.4c0.6,0,1.1-0.1,1.5-0.4c0.4-0.3,0.7-0.6,0.7-1.1c0.1-0.5,0-0.9-0.2-1.2c-0.2-0.3-0.7-0.5-1.2-0.7
        c-0.4-0.2-0.7-0.3-0.8-0.4C64,74.5,64,74.3,64,74.1c0-0.1,0.1-0.2,0.2-0.3c0.1-0.1,0.3-0.1,0.4-0.1c0.2,0,0.4,0.1,0.5,0.2
        c0.1,0.1,0.1,0.3,0.1,0.5h1.3l0,0c0.1-0.5,0-0.9-0.3-1.3s-0.8-0.5-1.4-0.5s-1,0.1-1.5,0.4c-0.4,0.3-0.7,0.6-0.7,1.1
        c-0.1,0.5,0,0.8,0.3,1.1c0.3,0.3,0.7,0.6,1.4,0.8c0.3,0.1,0.5,0.3,0.7,0.4c0.1,0.1,0.1,0.3,0.1,0.5c0,0.1-0.1,0.2-0.3,0.3
        c-0.1,0.1-0.3,0.1-0.4,0.1c-0.2,0-0.4,0-0.6-0.1c-0.1-0.1-0.2-0.3-0.1-0.6h-1.3v0C62.3,77.3,62.4,77.7,62.8,78z M57.4,78.3h3.7
        l0.2-1h-2.4l0.3-1.4h2l0.2-1h-2l0.2-1.2H62l0.2-1h-3.7L57.4,78.3z M52.5,77.9c0.4,0.4,0.8,0.5,1.5,0.5c0.7,0,1.2-0.2,1.7-0.5
        s0.8-0.8,0.9-1.5l0.8-3.8h-1.3l-0.8,3.8c-0.1,0.3-0.2,0.6-0.4,0.8c-0.2,0.1-0.4,0.2-0.7,0.2c-0.3,0-0.5-0.1-0.6-0.2
        c-0.1-0.1-0.1-0.4-0.1-0.8l0.8-3.8H53l-0.8,3.8C52.1,77,52.2,77.5,52.5,77.9z M51.5,81.5l-2.8,5.6h1.3l0.5-1.1H52l0.1,1.1h1.3
        l-0.5-5.6H51.5z M39,77.7c0.4,0.5,0.9,0.7,1.5,0.7c0.7,0,1.2-0.2,1.7-0.6c0.5-0.4,0.8-1,0.9-1.8l0.2-1c0.1-0.7,0-1.2-0.4-1.7
        c-0.4-0.5-0.9-0.7-1.5-0.7c-0.7,0-1.2,0.2-1.7,0.6c-0.4,0.4-0.7,1-0.9,1.8l-0.2,1C38.5,76.7,38.6,77.2,39,77.7z M32.5,78.3h1.3
        l0.7-3.5h0l1.1,3.5H37l1.1-5.6h-1.3l-0.7,3.5h0L35,72.7h-1.3L32.5,78.3z M30.6,89.6l-2.4-2.5l-1,1l1,1l-1,1c-0.2,0-0.4-0.1-0.5-0.2
        c-0.2-0.1-0.4-0.3-0.7-0.6c-0.4-0.4-0.5-0.8-0.4-1.3c0.1-0.5,0.3-0.9,0.8-1.4l1.3-1.3c0.4-0.4,0.9-0.7,1.4-0.7s0.9,0.1,1.2,0.4
        c0.3,0.4,0.5,0.7,0.5,1c0,0.3-0.1,0.7-0.4,1.1l1.4,1.4l0,0c0.6-0.7,0.9-1.4,0.9-2.2c0-0.8-0.4-1.6-1.3-2.4c-0.7-0.8-1.6-1.1-2.6-1.1
        s-1.8,0.4-2.6,1.1l-1.3,1.3c-0.8,0.8-1.2,1.6-1.2,2.6c0,1,0.4,1.8,1.2,2.6c0.6,0.6,1.2,1,1.8,1.3c0.6,0.2,1.1,0.3,1.6,0.3L30.6,89.6
        z M37.5,96.3l3.3-4.9L39,90.2l-3.3,4.9c-0.3,0.4-0.7,0.7-1,0.8c-0.4,0.1-0.8-0.1-1.2-0.3c-0.4-0.3-0.7-0.6-0.8-1
        c-0.1-0.4,0-0.8,0.3-1.3l3.3-4.9l-1.7-1.2l-3.3,4.9c-0.6,0.8-0.7,1.7-0.5,2.5s0.8,1.6,1.8,2.2c0.9,0.6,1.8,0.9,2.7,0.8
        C36.2,97.6,37,97.1,37.5,96.3z M46,93.7l-2.1-0.9l-6.1,7.2l1.9,0.8l1.1-1.4l2.6,1.1l-0.2,1.8l1.9,0.8L46,93.7z M46.9,77.8
        c0.4,0.5,0.9,0.7,1.5,0.7c0.1,0,0.3,0,0.4,0c0.1,0,0.3-0.1,0.4-0.1l0.7,0.9l0.9-0.7l-0.7-0.9c0.2-0.2,0.4-0.5,0.5-0.7
        c0.1-0.3,0.2-0.6,0.3-1l0.2-1c0.1-0.7,0-1.2-0.4-1.7c-0.4-0.5-0.9-0.7-1.5-0.7c-0.7,0-1.2,0.2-1.7,0.6c-0.4,0.4-0.7,1-0.9,1.8
        l-0.2,1C46.3,76.7,46.5,77.2,46.9,77.8z M55,96.8c-0.5-0.6-1.3-1-2.3-1.2l-3.4-0.7l-1.8,8.8l2,0.4l0.7-3.4l1.4,0.3
        c0.4,0.1,0.7,0.3,0.9,0.5c0.2,0.3,0.2,0.6,0.1,1l-0.1,0.5c-0.1,0.3-0.1,0.6-0.1,0.9c0,0.3,0.1,0.6,0.2,0.7l2.1,0.4l0-0.1
        c-0.1-0.1-0.2-0.4-0.2-0.7c0-0.3,0-0.6,0.1-0.8l0.1-0.6c0.1-0.5,0.1-1-0.1-1.4c-0.2-0.4-0.5-0.7-1-1c0.5-0.1,0.9-0.3,1.2-0.6
        c0.3-0.3,0.5-0.7,0.6-1.1C55.6,98.1,55.5,97.4,55,96.8z M56.3,87.3c0.6,0,1.1-0.1,1.5-0.4c0.4-0.3,0.7-0.6,0.7-1.1
        c0.1-0.5,0-0.9-0.2-1.2c-0.2-0.3-0.7-0.5-1.2-0.7c-0.4-0.2-0.7-0.3-0.8-0.4c-0.1-0.1-0.1-0.3-0.1-0.5c0-0.1,0.1-0.2,0.2-0.3
        c0.1-0.1,0.3-0.1,0.4-0.1c0.2,0,0.4,0.1,0.5,0.2c0.1,0.1,0.1,0.3,0.1,0.5h1.3l0,0c0.1-0.5,0-0.9-0.3-1.3c-0.3-0.3-0.8-0.5-1.4-0.5
        c-0.6,0-1,0.1-1.5,0.4c-0.4,0.3-0.7,0.6-0.7,1.1c-0.1,0.5,0,0.8,0.3,1.1c0.3,0.3,0.7,0.6,1.4,0.8c0.3,0.1,0.5,0.3,0.7,0.4
        c0.1,0.1,0.1,0.3,0.1,0.5c0,0.1-0.1,0.2-0.3,0.3s-0.3,0.1-0.4,0.1c-0.2,0-0.4,0-0.6-0.1c-0.1-0.1-0.2-0.3-0.1-0.6h-1.3v0
        c-0.1,0.6,0,1,0.4,1.3S55.8,87.3,56.3,87.3z M64.8,105.4l-2.9-9h-2.2l-2.9,9h2.1l0.5-1.7h2.8l0.5,1.7L64.8,105.4z M74.6,103.6
        l-1.8-8.8l-2,0.4l1.1,5.6l0,0l-4.3-5l-2,0.4l1.8,8.8l2-0.4l-1.1-5.6l0,0l4.3,5L74.6,103.6z M81,101.2l-2.8-6.8l2.2-0.9L79.8,92
        l-6.3,2.6l0.6,1.5l2.2-0.9l2.8,6.8L81,101.2z M90.6,95.9l-0.8-1.4l-3.5,2.2l-1.2-1.9l3-1.9l-0.8-1.4l-3,1.9l-1-1.6l3.5-2.2l-0.8-1.4
        l-5.3,3.3l4.8,7.6L90.6,95.9z M97.3,90.1l-1.1-1.2l-3.1,2.8L91.6,90l2.6-2.4l-1.1-1.2l-2.6,2.4l-1.3-1.4l3.1-2.8l-1.1-1.2l-4.6,4.2
        l6,6.7L97.3,90.1z M100.2,86.7l-1.3-1.1l-1.3,1.6l1.3,1.1L100.2,86.7z M76.9,77.4c0.3,0,0.5-0.1,0.7-0.4c0.2-0.3,0.3-0.6,0.4-1
        l0.2-1c0.1-0.4,0-0.7-0.1-1c-0.1-0.3-0.4-0.4-0.7-0.4c-0.3,0-0.5,0.1-0.7,0.4c-0.2,0.2-0.3,0.6-0.4,1l-0.2,1c-0.1,0.4-0.1,0.8,0.1,1
        C76.4,77.3,76.6,77.4,76.9,77.4z"/>
    </svg>