
<svg id="money-back-guarantee" viewBox="0 0 32 32" xml:space="preserve" xmlns="http://www.w3.org/2000/svg" version="1.1">
	<path class="inner" d="M15.973 27.467l-0.245 0.839h0.501l-0.245-0.839z"></path>
	<path class="inner" d="M13.759 27.030l-0.348-0.069-0.118 0.599 0.353 0.069c0.108 0.020 0.196 0.015 0.26-0.025 0.069-0.039 0.108-0.103 0.128-0.196s0.005-0.177-0.044-0.245c-0.044-0.064-0.123-0.108-0.231-0.133z"></path>
	<path class="inner" d="M11.467 27.457l0.098-0.874-0.010-0.005-0.55 0.687z"></path>
	<path class="inner" d="M8.271 7.272l-0.746-0.437-0.010 0.005 0.398 0.771z"></path>
	<path class="inner" d="M16.572 3.532h-0.010l-0.285 0.815 0.496 0.029z"></path>
	<path class="inner" d="M17.343 9.565l-0.231 0.79h0.466l-0.231-0.79z"></path>
	<path class="inner" d="M12.709 9.697l-0.383 0.623h0.427v-0.682l-0.005-0.005z"></path>
	<path class="inner" d="M15.286 9.368h-0.25v1.419h0.25c0.137 0 0.241-0.049 0.319-0.142s0.113-0.216 0.113-0.373v-0.398c0-0.152-0.039-0.275-0.113-0.368s-0.182-0.137-0.319-0.137z"></path>
	<path class="inner" d="M16.061 1.509c-6.779 0-12.468 4.653-14.054 10.942 0.265-0.064 0.545-0.103 0.83-0.103h26.316c0.334 0 0.658 0.049 0.962 0.137-1.571-6.303-7.265-10.976-14.054-10.976zM22.968 5.004l-1.242 1.968-0.456-0.29 1.242-1.968 0.456 0.29zM20.268 4.057l0.172-0.378 1.605 0.736-0.172 0.378-0.56-0.255-0.795 1.738-0.491-0.226 0.795-1.738-0.555-0.255zM17.814 4.415l0.118-0.471c0.069-0.27 0.211-0.471 0.422-0.604 0.211-0.128 0.452-0.162 0.722-0.093 0.285 0.074 0.486 0.201 0.599 0.383s0.147 0.407 0.103 0.677l-0.005 0.010-0.511-0.128c0.029-0.147 0.025-0.265-0.015-0.353-0.039-0.083-0.133-0.147-0.27-0.182-0.118-0.029-0.226-0.005-0.319 0.074s-0.157 0.196-0.196 0.349l-0.118 0.476c-0.039 0.157-0.034 0.29 0.015 0.407 0.049 0.113 0.142 0.187 0.27 0.221 0.128 0.029 0.226 0.020 0.295-0.034s0.128-0.152 0.172-0.299l0.511 0.128v0.010c-0.079 0.26-0.206 0.442-0.388 0.545s-0.412 0.118-0.687 0.049c-0.28-0.069-0.481-0.216-0.614-0.427-0.142-0.221-0.177-0.466-0.103-0.736zM16.312 2.889l0.579 0.029 0.628 2.361-0.545-0.029-0.108-0.457-0.731-0.039-0.157 0.447-0.54-0.029 0.874-2.283zM7.397 9.599c-0.152 0.216-0.339 0.363-0.56 0.442s-0.432 0.044-0.628-0.103l-0.005-0.010 0.304-0.427c0.108 0.079 0.206 0.103 0.299 0.079 0.088-0.025 0.177-0.098 0.26-0.216 0.064-0.088 0.093-0.172 0.088-0.241s-0.034-0.128-0.093-0.167c-0.069-0.049-0.133-0.064-0.201-0.044s-0.162 0.069-0.285 0.157c-0.245 0.187-0.452 0.304-0.623 0.358-0.167 0.054-0.334 0.025-0.496-0.093-0.157-0.113-0.236-0.275-0.236-0.481s0.074-0.417 0.226-0.628c0.147-0.211 0.324-0.344 0.53-0.402s0.388-0.025 0.555 0.103l0.005 0.010-0.304 0.427c-0.074-0.054-0.157-0.074-0.241-0.054s-0.157 0.074-0.221 0.162-0.093 0.172-0.088 0.25 0.034 0.137 0.088 0.177c0.054 0.039 0.118 0.044 0.187 0.020s0.182-0.093 0.329-0.196c0.216-0.172 0.412-0.275 0.584-0.319s0.339-0.005 0.501 0.113c0.167 0.118 0.25 0.275 0.25 0.471 0 0.191-0.074 0.398-0.226 0.614zM9.052 7.729l-0.407-0.236-0.535 0.506 0.216 0.417-0.393 0.373-1.055-2.204 0.422-0.398 2.145 1.173-0.393 0.368zM8.801 5.52l-0.506 0.339-0.231-0.348 1.468-0.977 0.231 0.348-0.511 0.339 1.055 1.59-0.452 0.299-1.055-1.59zM11.207 11.18h-0.511v-1.694h-0.491v-0.358l1.001-0.152v2.204zM11.059 6.389l-1.016-2.091 0.486-0.236 1.016 2.091-0.486 0.236zM11.619 5.279v-0.010l0.501-0.157c0.039 0.128 0.103 0.206 0.191 0.241s0.201 0.029 0.339-0.015c0.108-0.034 0.177-0.079 0.216-0.137s0.049-0.123 0.025-0.191c-0.025-0.079-0.069-0.133-0.137-0.157-0.064-0.025-0.172-0.044-0.324-0.049-0.309 0-0.545-0.029-0.712-0.088s-0.28-0.182-0.344-0.373c-0.059-0.187-0.025-0.363 0.098-0.53s0.309-0.29 0.56-0.368c0.245-0.079 0.466-0.079 0.663-0.005 0.196 0.079 0.324 0.216 0.383 0.417v0.010l-0.501 0.157c-0.029-0.088-0.079-0.152-0.157-0.187s-0.167-0.039-0.275-0.005c-0.103 0.034-0.177 0.083-0.221 0.147s-0.054 0.133-0.034 0.196c0.020 0.064 0.069 0.108 0.137 0.128 0.074 0.020 0.201 0.034 0.383 0.039 0.275-0.005 0.496 0.029 0.658 0.098s0.275 0.201 0.334 0.393c0.064 0.196 0.034 0.373-0.083 0.53s-0.299 0.28-0.55 0.358c-0.25 0.079-0.491 0.083-0.712 0.020-0.221-0.069-0.368-0.221-0.437-0.461zM13.489 10.713h-0.221v0.466h-0.511v-0.466h-0.854l-0.029-0.314 0.884-1.424v-0.005h0.511v1.345h0.221v0.398zM13.852 5.387l-0.29-2.307 1.625-0.201 0.049 0.412-1.085 0.133 0.069 0.555 0.923-0.113 0.049 0.412-0.923 0.113 0.118 0.928-0.535 0.069zM16.233 10.276c0 0.265-0.088 0.481-0.26 0.653-0.177 0.167-0.393 0.255-0.653 0.255h-0.795v-2.214h0.795c0.26 0 0.476 0.083 0.653 0.255 0.177 0.167 0.26 0.388 0.26 0.653v0.398zM17.819 11.18l-0.128-0.427h-0.697l-0.123 0.427h-0.515l0.712-2.204h0.555l0.712 2.204h-0.515zM19.331 10.404v0.776h-0.511v-0.8l-0.736-1.404h0.555l0.437 0.962h0.010l0.442-0.962h0.555l-0.751 1.428zM21.682 11.047c-0.152 0.108-0.353 0.162-0.599 0.162-0.25 0-0.466-0.064-0.648-0.187-0.182-0.128-0.27-0.309-0.265-0.545l0.005-0.010h0.491c0 0.128 0.034 0.221 0.103 0.275s0.172 0.083 0.314 0.083c0.108 0 0.187-0.020 0.236-0.064 0.054-0.044 0.079-0.098 0.079-0.167 0-0.079-0.025-0.137-0.079-0.182-0.049-0.044-0.142-0.088-0.275-0.133-0.28-0.088-0.486-0.182-0.619-0.285-0.133-0.098-0.201-0.245-0.201-0.437 0-0.187 0.079-0.334 0.241-0.447s0.363-0.172 0.609-0.172 0.447 0.064 0.599 0.187c0.157 0.128 0.231 0.29 0.226 0.486l-0.005 0.010h-0.496c0-0.088-0.029-0.157-0.088-0.216-0.059-0.054-0.142-0.083-0.245-0.083s-0.182 0.025-0.241 0.069c-0.059 0.044-0.088 0.103-0.088 0.167s0.029 0.118 0.088 0.157c0.059 0.039 0.172 0.088 0.334 0.147 0.25 0.074 0.437 0.167 0.564 0.275s0.191 0.26 0.191 0.452c-0.005 0.196-0.083 0.348-0.231 0.457zM22.767 7.807c-0.221-0.191-0.344-0.422-0.358-0.682s0.069-0.501 0.255-0.717l0.275-0.319c0.187-0.216 0.407-0.334 0.672-0.358 0.26-0.020 0.501 0.064 0.722 0.255s0.339 0.417 0.358 0.677c0.015 0.26-0.069 0.501-0.255 0.717l-0.275 0.319c-0.187 0.216-0.412 0.334-0.668 0.358-0.265 0.025-0.506-0.059-0.726-0.25zM24.882 10.173l-0.324-0.432 0.672-1.571-0.010-0.005-1.183 0.888-0.324-0.432 1.855-1.399 0.324 0.432-0.672 1.571 0.010 0.005 1.183-0.888 0.324 0.432-1.855 1.399z"></path>
	<path class="inner" d="M24.058 6.31c-0.113-0.093-0.231-0.128-0.358-0.098s-0.245 0.108-0.353 0.236l-0.275 0.319c-0.108 0.128-0.172 0.255-0.182 0.388s0.039 0.245 0.152 0.339c0.108 0.093 0.226 0.123 0.353 0.093s0.245-0.108 0.358-0.236l0.275-0.319c0.108-0.128 0.167-0.255 0.177-0.388 0.010-0.128-0.039-0.241-0.147-0.334z"></path>
	<path class="inner" d="M20.145 16.064h-0.496v0.717h0.456c0.142 0 0.25-0.029 0.319-0.083s0.108-0.142 0.108-0.255c0-0.123-0.029-0.221-0.093-0.285-0.059-0.059-0.157-0.093-0.295-0.093z"></path>
	<path class="inner" d="M20.317 15.539c0.074-0.054 0.113-0.137 0.113-0.245 0-0.123-0.039-0.211-0.113-0.265-0.079-0.054-0.191-0.083-0.349-0.083h-0.319v0.682h0.329c0.152-0.005 0.265-0.034 0.339-0.088z"></path>
	<path class="inner" d="M29.153 13.045h-26.311c-1.566 0-2.842 1.271-2.842 2.842s1.276 2.842 2.842 2.842h26.316c1.566 0 2.842-1.276 2.842-2.842s-1.281-2.842-2.847-2.842zM5.675 17.296h-0.668v-0.712l0.064-1.311h-0.010l-0.692 2.022h-0.447l-0.682-2.003h-0.010l0.064 1.291v0.712h-0.677v-2.867h0.874l0.643 2.008h0.010l0.648-2.008h0.879v2.867h0.005zM8.723 16.123c0 0.353-0.113 0.643-0.334 0.874-0.226 0.231-0.515 0.344-0.879 0.344s-0.658-0.113-0.884-0.344-0.339-0.52-0.339-0.874v-0.515c0-0.353 0.113-0.643 0.339-0.874s0.52-0.344 0.884-0.344c0.358 0 0.653 0.113 0.879 0.344s0.339 0.52 0.339 0.874l-0.005 0.515zM11.732 17.296h-0.663l-1.050-1.826-0.010 0.005v1.826h-0.668v-2.911h0.643l1.075 1.87 0.010-0.005v-1.86l0.663-0.005v2.906zM14.412 14.94h-1.33v0.619h1.124v0.511h-1.124v0.717h1.325v0.511h-1.993v-2.896l1.998-0.015v0.555zM16.326 16.29v1.006h-0.663v-1.041l-0.957-1.855 0.702-0.005 0.584 1.286h0.010l0.584-1.286h0.726l-0.987 1.895zM20.916 17.080c-0.187 0.142-0.456 0.216-0.805 0.216h-1.129l-0.010-2.926h0.987c0.358 0 0.643 0.088 0.844 0.221s0.299 0.363 0.299 0.623c0 0.137-0.034 0.255-0.098 0.363s-0.162 0.187-0.299 0.241c0.167 0.039 0.295 0.113 0.373 0.231 0.079 0.113 0.118 0.245 0.118 0.398 0 0.28-0.093 0.491-0.28 0.633zM23.488 17.296l-0.162-0.56h-0.903l-0.162 0.56h-0.668l0.928-2.867h0.717l0.928 2.867h-0.677zM26.807 15.45h-0.648c-0.010-0.187-0.049-0.324-0.123-0.417-0.074-0.088-0.201-0.137-0.378-0.137-0.152 0-0.27 0.059-0.358 0.182s-0.128 0.28-0.128 0.476v0.604c0 0.196 0.049 0.358 0.142 0.481s0.226 0.182 0.388 0.182c0.162 0 0.275-0.044 0.339-0.128 0.069-0.083 0.103-0.221 0.113-0.407h0.648l0.005 0.010c-0.015 0.334-0.113 0.594-0.299 0.771s-0.456 0.265-0.81 0.265-0.643-0.108-0.864-0.329c-0.221-0.216-0.334-0.501-0.334-0.849v-0.599c0-0.348 0.108-0.628 0.319-0.849s0.491-0.329 0.834-0.329c0.363 0 0.638 0.093 0.83 0.275s0.299 0.442 0.324 0.776v0.025zM29.011 17.296l-0.643-1.149h-0.309v1.149h-0.668v-2.867h0.668v1.124h0.226l0.628-1.124h0.83l-0.888 1.296 0.967 1.571h-0.81z"></path>
	<path class="inner" d="M22.865 15.2l-0.295 1.026h0.609l-0.299-1.026z"></path>
	<path class="inner" d="M7.505 14.9c-0.182 0-0.319 0.064-0.412 0.196s-0.142 0.299-0.142 0.506v0.52c0 0.206 0.049 0.378 0.142 0.506 0.098 0.133 0.236 0.196 0.412 0.196s0.309-0.064 0.407-0.196 0.142-0.299 0.142-0.506v-0.52c0-0.206-0.049-0.373-0.142-0.506s-0.231-0.196-0.407-0.196z"></path>
	<path class="inner" d="M10.681 21.841c0.074 0 0.133-0.034 0.187-0.103 0.049-0.069 0.088-0.152 0.108-0.265l0.054-0.27c0.020-0.108 0.010-0.196-0.029-0.26-0.039-0.069-0.103-0.098-0.187-0.098-0.074 0-0.133 0.034-0.182 0.098s-0.083 0.152-0.103 0.265l-0.054 0.27c-0.025 0.113-0.015 0.201 0.025 0.265 0.034 0.069 0.098 0.098 0.182 0.098z"></path>
	<path class="inner" d="M12.939 21.743c0.049-0.069 0.088-0.152 0.108-0.265l0.054-0.27c0.020-0.108 0.010-0.196-0.029-0.26-0.039-0.069-0.103-0.098-0.187-0.098-0.074 0-0.133 0.034-0.182 0.098s-0.083 0.152-0.103 0.265l-0.054 0.27c-0.025 0.113-0.015 0.201 0.025 0.265s0.098 0.098 0.187 0.098c0.074-0.005 0.133-0.039 0.182-0.103z"></path>
	<path class="inner" d="M18.879 24.060c0.044-0.059 0.079-0.142 0.103-0.245l0.054-0.27c0.020-0.108 0.010-0.191-0.029-0.255s-0.103-0.093-0.191-0.093h-0.103l-0.191 0.952h0.182c0.074 0 0.133-0.029 0.177-0.088z"></path>
	<path class="inner" d="M13.612 23.363h-0.010l-0.231 0.496h0.27z"></path>
	<path class="inner" d="M29.153 19.382h-26.311c-0.309 0-0.614-0.044-0.898-0.123 1.478 6.43 7.235 11.231 14.117 11.231 6.892 0 12.66-4.815 14.127-11.266-0.329 0.098-0.677 0.157-1.036 0.157zM24.524 22.759l1.158 0.982-0.353 0.417-1.158-0.982 0.353-0.417zM22.6 21.655v-0.005h0.329c-0.015 0.074 0 0.128 0.039 0.152 0.044 0.029 0.098 0.039 0.162 0.039 0.039 0 0.079-0.010 0.118-0.034s0.059-0.054 0.069-0.088c0.010-0.064 0.005-0.108-0.025-0.133-0.029-0.029-0.083-0.064-0.172-0.098-0.162-0.059-0.28-0.128-0.358-0.206s-0.103-0.177-0.079-0.299 0.088-0.221 0.196-0.29 0.231-0.103 0.383-0.103c0.152 0 0.275 0.039 0.363 0.123s0.118 0.191 0.083 0.329l-0.005 0.005h-0.329c0.010-0.059 0-0.108-0.029-0.142s-0.079-0.054-0.137-0.054c-0.044 0-0.083 0.015-0.118 0.039s-0.059 0.054-0.064 0.088c-0.010 0.054 0 0.098 0.029 0.123 0.034 0.025 0.103 0.064 0.216 0.108 0.147 0.054 0.255 0.118 0.319 0.196s0.088 0.182 0.064 0.314c-0.025 0.128-0.093 0.226-0.196 0.295-0.103 0.064-0.231 0.098-0.383 0.098-0.147 0-0.275-0.039-0.378-0.113-0.098-0.079-0.133-0.191-0.098-0.344zM21.319 20.585h0.339l0.295 0.928h0.005l0.182-0.928h0.339l-0.295 1.502h-0.339l-0.295-0.908h-0.005l-0.182 0.908h-0.339l0.295-1.502zM19.659 21.478l0.054-0.265c0.039-0.196 0.118-0.349 0.236-0.461s0.265-0.167 0.442-0.167c0.167 0 0.299 0.059 0.402 0.182s0.137 0.27 0.103 0.447l-0.054 0.265c-0.039 0.196-0.118 0.349-0.241 0.461s-0.27 0.167-0.447 0.167c-0.167 0-0.299-0.059-0.398-0.182s-0.133-0.27-0.098-0.447zM19.512 20.604l-0.295 1.478h-0.339l0.295-1.478h0.339zM17.946 23.515l-0.054 0.265h-0.53l-0.074 0.368h0.628l-0.054 0.265h-0.967l0.295-1.478h0.972l-0.054 0.265h-0.628l-0.064 0.319 0.53-0.005zM16.7 24.409h-0.393l-0.177-0.589h-0.108l-0.118 0.589h-0.339l0.295-1.478h0.339l-0.118 0.584h0.103l0.339-0.584h0.447l-0.535 0.731 0.265 0.746zM18.422 22.931h0.466c0.152 0 0.28 0.059 0.383 0.177s0.137 0.265 0.103 0.437l-0.054 0.265c-0.039 0.191-0.113 0.339-0.231 0.442s-0.255 0.152-0.422 0.152h-0.545l0.299-1.473zM17.863 20.604h1.041l-0.054 0.265h-0.353l-0.241 1.217h-0.339l0.241-1.217h-0.349l0.054-0.265zM16.395 21.655v-0.005h0.329c-0.015 0.074 0 0.128 0.039 0.152 0.044 0.029 0.098 0.039 0.162 0.039 0.039 0 0.079-0.010 0.118-0.034s0.059-0.054 0.069-0.088c0.010-0.064 0.005-0.108-0.025-0.133-0.029-0.029-0.083-0.064-0.172-0.098-0.162-0.059-0.28-0.128-0.358-0.206s-0.103-0.177-0.079-0.299 0.088-0.221 0.196-0.29 0.231-0.103 0.383-0.103c0.152 0 0.275 0.039 0.363 0.123s0.118 0.191 0.083 0.329l-0.005 0.005h-0.329c0.010-0.059 0-0.108-0.029-0.142s-0.079-0.054-0.137-0.054c-0.044 0-0.083 0.015-0.118 0.039s-0.059 0.054-0.064 0.088c-0.010 0.054 0 0.098 0.029 0.123s0.103 0.064 0.216 0.108c0.147 0.054 0.255 0.118 0.319 0.196 0.069 0.079 0.088 0.182 0.064 0.314-0.025 0.128-0.093 0.226-0.196 0.295-0.103 0.064-0.231 0.098-0.383 0.098-0.147 0-0.275-0.039-0.378-0.113-0.098-0.079-0.133-0.191-0.098-0.344zM15.384 20.604h0.967l-0.054 0.265h-0.628l-0.064 0.319h0.53l-0.054 0.265h-0.53l-0.074 0.368h0.623l-0.054 0.265h-0.967l0.304-1.482zM13.71 21.576l0.206-1.006h0.339l-0.206 1.006c-0.020 0.098-0.015 0.167 0.020 0.206s0.088 0.059 0.167 0.059c0.069 0 0.133-0.025 0.182-0.064 0.049-0.044 0.083-0.113 0.103-0.201l0.206-1.006h0.339l-0.206 1.006c-0.034 0.182-0.113 0.314-0.236 0.402s-0.27 0.133-0.442 0.133c-0.162 0-0.29-0.049-0.383-0.142-0.088-0.098-0.118-0.226-0.088-0.393zM13.877 22.931l0.142 1.478h-0.344l-0.020-0.29h-0.402l-0.133 0.29h-0.339l0.736-1.478h0.358zM10.137 21.478l0.054-0.265c0.039-0.196 0.118-0.349 0.236-0.461s0.265-0.167 0.442-0.167c0.167 0 0.299 0.059 0.402 0.182s0.137 0.27 0.103 0.447l-0.054 0.265c-0.039 0.196-0.118 0.349-0.241 0.461s-0.27 0.167-0.447 0.167c-0.167 0-0.299-0.059-0.398-0.182-0.103-0.123-0.133-0.27-0.098-0.447zM8.846 20.604h0.339l0.295 0.908h0.005l0.182-0.908h0.339l-0.295 1.478h-0.339l-0.295-0.908h-0.005l-0.182 0.908h-0.339l0.295-1.478zM7.407 25.655c-0.123 0.010-0.265-0.015-0.422-0.074s-0.319-0.167-0.481-0.329c-0.206-0.206-0.304-0.437-0.304-0.692s0.103-0.481 0.304-0.682l0.348-0.344c0.201-0.196 0.427-0.299 0.682-0.299s0.476 0.098 0.672 0.299c0.211 0.216 0.324 0.427 0.329 0.633s-0.069 0.402-0.231 0.584l-0.010 0.005-0.358-0.363c0.074-0.098 0.113-0.191 0.113-0.28s-0.044-0.177-0.133-0.27c-0.088-0.088-0.196-0.128-0.324-0.113s-0.245 0.079-0.358 0.191l-0.353 0.349c-0.118 0.113-0.182 0.236-0.201 0.358-0.015 0.123 0.025 0.236 0.118 0.334 0.069 0.074 0.133 0.123 0.182 0.152s0.098 0.049 0.142 0.054l0.265-0.26-0.26-0.265 0.26-0.255 0.643 0.653-0.623 0.614zM9.287 27.167c-0.231 0.025-0.466-0.044-0.707-0.201-0.245-0.162-0.398-0.353-0.466-0.574s-0.025-0.447 0.123-0.668l0.854-1.286 0.457 0.304-0.854 1.286c-0.079 0.118-0.108 0.231-0.083 0.329s0.093 0.187 0.206 0.26c0.113 0.074 0.216 0.103 0.314 0.088 0.098-0.020 0.187-0.088 0.27-0.206l0.854-1.286 0.457 0.304-0.854 1.286c-0.147 0.216-0.339 0.339-0.569 0.363zM11.874 28.576l-0.506-0.211 0.054-0.471-0.682-0.285-0.299 0.373-0.506-0.211 1.61-1.88 0.54 0.226-0.211 2.459zM12.213 21.478l0.054-0.265c0.039-0.196 0.118-0.349 0.236-0.461s0.265-0.167 0.442-0.167c0.167 0 0.299 0.059 0.402 0.182s0.137 0.27 0.103 0.447l-0.054 0.265c-0.020 0.093-0.049 0.177-0.083 0.255-0.039 0.074-0.083 0.142-0.137 0.196l0.177 0.231-0.241 0.172-0.187-0.245c-0.034 0.010-0.069 0.015-0.103 0.025-0.034 0.005-0.069 0.010-0.103 0.010-0.167 0-0.299-0.059-0.398-0.182-0.113-0.137-0.147-0.285-0.108-0.461zM14.574 27.486c-0.025 0.118-0.079 0.216-0.157 0.29s-0.187 0.123-0.319 0.152c0.133 0.069 0.221 0.157 0.265 0.26 0.044 0.108 0.049 0.231 0.025 0.368l-0.029 0.147c-0.010 0.059-0.015 0.133-0.015 0.211 0.005 0.079 0.025 0.142 0.059 0.182l-0.005 0.029-0.55-0.108c-0.034-0.039-0.054-0.103-0.049-0.191s0.010-0.162 0.025-0.236l0.029-0.137c0.020-0.108 0.010-0.201-0.034-0.27-0.049-0.069-0.128-0.118-0.236-0.137l-0.368-0.074-0.177 0.884-0.535-0.108 0.461-2.307 0.888 0.177c0.265 0.054 0.466 0.157 0.599 0.314 0.123 0.157 0.167 0.339 0.123 0.555zM14.422 24.32c-0.103-0.074-0.137-0.187-0.103-0.344v-0.005h0.329c-0.015 0.074 0 0.128 0.039 0.152 0.044 0.029 0.098 0.039 0.162 0.039 0.039 0 0.079-0.010 0.118-0.034s0.059-0.054 0.069-0.088c0.010-0.064 0.005-0.108-0.025-0.133-0.029-0.029-0.083-0.064-0.172-0.098-0.162-0.059-0.28-0.128-0.358-0.206s-0.103-0.177-0.079-0.299 0.088-0.221 0.196-0.29 0.231-0.103 0.383-0.103c0.152 0 0.275 0.039 0.363 0.123s0.118 0.191 0.083 0.329l-0.005 0.005h-0.329c0.010-0.059 0-0.108-0.029-0.142s-0.079-0.054-0.137-0.054c-0.044 0-0.083 0.015-0.118 0.039s-0.059 0.054-0.064 0.088c-0.010 0.054 0 0.098 0.029 0.123s0.103 0.064 0.216 0.108c0.147 0.054 0.255 0.118 0.319 0.196 0.069 0.079 0.088 0.182 0.064 0.314-0.025 0.128-0.093 0.226-0.196 0.295-0.103 0.064-0.231 0.098-0.383 0.098-0.142 0-0.27-0.039-0.373-0.113zM16.479 29.185l-0.133-0.456h-0.741l-0.133 0.456h-0.55l0.766-2.351h0.589l0.756 2.356-0.555-0.005zM19.056 28.836l-1.139-1.301-0.010 0.005 0.295 1.468-0.535 0.108-0.466-2.307 0.535-0.108 1.139 1.301 0.010-0.005-0.295-1.468 0.535-0.108 0.466 2.307-0.535 0.108zM20.774 28.301l-0.731-1.792-0.569 0.231-0.157-0.388 1.654-0.672 0.157 0.388-0.574 0.236 0.726 1.792-0.506 0.206zM22.423 27.555l-1.252-1.993 1.389-0.869 0.221 0.358-0.923 0.579 0.27 0.427 0.78-0.491 0.221 0.358-0.78 0.491 0.309 0.496 0.923-0.579 0.221 0.358-1.379 0.864zM24.347 26.269l-1.576-1.747 1.217-1.1 0.28 0.314-0.81 0.731 0.339 0.378 0.682-0.619 0.28 0.314-0.687 0.619 0.393 0.437 0.805-0.731 0.28 0.314-1.203 1.090zM25.962 24.698l-0.349-0.295 0.353-0.417 0.349 0.295-0.353 0.417z"></path>
	<path class="inner" d="M20.209 21.841c0.074 0 0.133-0.034 0.187-0.103 0.049-0.069 0.088-0.152 0.108-0.265l0.054-0.27c0.020-0.108 0.010-0.196-0.029-0.26-0.039-0.069-0.103-0.098-0.187-0.098-0.074 0-0.133 0.034-0.182 0.098s-0.083 0.152-0.103 0.265l-0.054 0.27c-0.025 0.113-0.015 0.201 0.025 0.265 0.034 0.069 0.093 0.098 0.182 0.098z"></path>
</svg>
