<svg version="1.1" id="money-back" xmlns="http://www.w3.org/2000/svg" xmlns:xlink="http://www.w3.org/1999/xlink" x="0px" y="0px"
        viewBox="0 0 24 24" style="enable-background:new 0 0 24 24;" xml:space="preserve">
    <g id="Shield_icon">
        <path id="Icon_4_" style="fill:#606060;" d="M12.5,1.5c-0.2-0.1-0.4-0.1-0.5-0.2c-0.2,0.1-0.4,0.1-0.5,0.2c-1.9,0.7-4,1.4-6.3,1.4
            c-0.7,0-1.3,0-2-0.1v11.1c0,2.4,2.4,4.7,4.5,6.2c1.9,1.3,3.8,2.3,4.4,2.6c1.4-0.7,8.8-4.4,8.8-8.8V2.8c-0.6,0.1-1.3,0.1-2,0.1
            C16.6,2.9,14.4,2.2,12.5,1.5z M10.2,15.9l-3.4-3.4L8.2,11l1.9,1.9l6.2-6.2l1.5,1.5L10.2,15.9z"/>
        <path style="fill:none;" d="M0,0h24v24H0V0z"/>
    </g>
</svg>
