<svg version="1.1" id="money-order" class="payment-card" xmlns="http://www.w3.org/2000/svg" xmlns:xlink="http://www.w3.org/1999/xlink" x="0px" y="0px"
	 viewBox="0 0 137.6 86" style="enable-background:new 0 0 137.6 86;" xml:space="preserve">
<g>
	<path class="svg-white" d="M129.1,85.6H8.5c-4.4,0-7.9-3.6-7.9-7.9V8.4c0-4.4,3.6-7.9,7.9-7.9h120.6c4.4,0,7.9,3.6,7.9,7.9
		v69.2C137.1,82,133.5,85.6,129.1,85.6z"/>
	<g>
		<g>
			<path class="svg-gray green" d="M129.5,1.4c3.7,0,6.8,3,6.8,6.8v69.7c0,3.7-3,6.8-6.8,6.8H8.1c-3.7,0-6.8-3-6.8-6.8V8.1
				c0-3.7,3-6.8,6.8-6.8L129.5,1.4 M129.5,0H8.1C3.6,0,0,3.6,0,8.1v69.7C0,82.4,3.6,86,8.1,86h121.4c4.5,0,8.1-3.6,8.1-8.1V8.1
				C137.6,3.6,134,0,129.5,0L129.5,0z"/>
		</g>
	</g>
	<g>
		<path class="svg-gray green" d="M13.6,16.3h5.9l6,15.4l5.9-15.4h5.9v22.2h-5.1V24.8H32l-4.8,13.7h-3.7l-4.7-13.7h-0.2v13.7h-5.1
			V16.3H13.6z"/>
		<path class="svg-gray green" d="M42.8,19c1.9-2,4.5-3.1,7.7-3.1s5.8,1,7.7,3.1c1.9,2,2.9,4.9,2.9,8.5s-1,6.4-2.9,8.5
			c-1.9,2-4.5,3-7.7,3s-5.8-1-7.7-3.1s-2.9-4.9-2.9-8.5C39.9,23.8,40.9,21,42.8,19z M46.6,32.7c0.9,1.3,2.2,1.9,3.9,1.9
			s3-0.6,3.9-1.9c0.9-1.3,1.4-3,1.4-5.3s-0.4-4-1.3-5.3c-0.9-1.2-2.2-1.9-3.9-1.9s-3.1,0.6-3.9,1.9c-0.9,1.2-1.3,3-1.3,5.3
			C45.2,29.7,45.7,31.5,46.6,32.7z"/>
		<path class="svg-gray green" d="M82.7,16.3v22.2h-5.3L69,24.8h-0.1v13.7h-5.1V16.3h5.1l8.6,14h0.1v-14H82.7z"/>
		<path class="svg-gray green" d="M91,34.2h11v4.4H85.9V16.3h15.7v4.4H91v4.5h9v4.1h-9V34.2z"/>
		<path class="svg-gray green" d="M116.9,30.5v8.1h-5.3v-8.1l-8-14.2h5.9l4.8,9.2l4.8-9.2h5.9L116.9,30.5z"/>
		<path class="svg-dark-gray" d="M15.8,48c1.9-2,4.5-3.1,7.7-3.1s5.8,1,7.7,3.1c1.9,2,2.9,4.9,2.9,8.5s-1,6.4-2.9,8.5
			s-4.5,3.1-7.7,3.1s-5.8-1-7.7-3.1s-2.9-4.9-2.9-8.5C12.9,52.9,13.9,50.1,15.8,48z M19.6,61.8c0.9,1.3,2.2,1.9,3.9,1.9
			c1.7,0,3-0.6,3.9-1.9c0.9-1.3,1.4-3,1.4-5.3s-0.4-4-1.3-5.3c-0.9-1.2-2.2-1.9-3.9-1.9c-1.7,0-3.1,0.6-3.9,1.9
			c-0.9,1.2-1.3,3-1.3,5.3C18.3,58.8,18.7,60.5,19.6,61.8z"/>
		<path class="svg-dark-gray" d="M56.4,63.9c0,1.7,0.2,2.9,0.6,3.7h-5.1c-0.4-0.8-0.6-2-0.6-3.7v-1.5c0-0.8-0.3-1.5-0.8-2
			s-1.2-0.8-2.2-0.8h-5.1v7.9h-5.1V45.4h9.7c2.8,0,4.9,0.6,6.3,1.9c1.4,1.2,2.1,2.9,2.1,4.9c0,2.2-1,3.9-3,5.2c1.2,0.6,2,1.3,2.5,2
			c0.5,0.8,0.7,1.7,0.7,2.9C56.4,62.3,56.4,63.9,56.4,63.9z M47.6,55.7c1.2,0,2.1-0.2,2.6-0.7s0.7-1.3,0.7-2.3
			c0-1.9-1.1-2.8-3.2-2.8h-4.5v5.8H47.6z"/>
		<path class="svg-dark-gray" d="M69.4,45.4c3.5,0,6.2,1,8,2.9s2.7,4.7,2.7,8.2c0,3.6-0.9,6.3-2.7,8.2c-1.8,1.9-4.5,2.9-8,2.9h-8.6
			V45.4H69.4z M68.9,63.2c2.3,0,3.9-0.5,4.8-1.5S75,59,75,56.5s-0.4-4.2-1.3-5.2s-2.5-1.5-4.8-1.5h-3v13.4
			C65.9,63.2,68.9,63.2,68.9,63.2z"/>
		<path class="svg-dark-gray" d="M89.2,63.2h10.9v4.4h-16V45.4h15.7v4.4H89.2v4.5h9v4.1h-9V63.2z"/>
		<path class="svg-dark-gray" d="M122.3,63.9c0,1.7,0.2,2.9,0.6,3.7h-5.1c-0.4-0.8-0.6-2-0.6-3.7v-1.5c0-0.8-0.3-1.5-0.8-2
			s-1.2-0.8-2.2-0.8h-5.1v7.9H104V45.4h9.7c2.8,0,4.9,0.6,6.3,1.9c1.4,1.2,2.1,2.9,2.1,4.9c0,2.2-1,3.9-3,5.2c1.2,0.6,2,1.3,2.5,2
			c0.5,0.8,0.7,1.7,0.7,2.9C122.3,62.3,122.3,63.9,122.3,63.9z M113.5,55.7c1.2,0,2.1-0.2,2.6-0.7s0.7-1.3,0.7-2.3
			c0-1.9-1.1-2.8-3.2-2.8h-4.5v5.8H113.5z"/>
	</g>
</g>
</svg>

