<svg version="1.1" id="Layer_1" xmlns="http://www.w3.org/2000/svg" xmlns:xlink="http://www.w3.org/1999/xlink" x="0px" y="0px"
	 viewBox="0 0 137.6 86" style="enable-background:new 0 0 137.6 86;" xml:space="preserve">
<g>
	<path style="fill:#FFFFFF;" d="M128.9,85.6H8.7c-4.5,0-8.2-3.7-8.2-8.2V8.6c0-4.5,3.7-8.2,8.2-8.2h120.2c4.5,0,8.2,3.7,8.2,8.2
		v68.8C137.1,81.9,133.4,85.6,128.9,85.6z"/>
	<g>
		<path style="fill:#484848;" d="M129.5,1.4c3.7,0,6.8,3,6.8,6.8v69.7c0,3.7-3,6.8-6.8,6.8H8.1c-3.7,0-6.8-3-6.8-6.8V8.1
			c0-3.7,3-6.8,6.8-6.8L129.5,1.4 M129.5,0H8.1C3.6,0,0,3.6,0,8.1v69.7C0,82.4,3.6,86,8.1,86h121.4c4.5,0,8.1-3.6,8.1-8.1V8.1
			C137.6,3.6,134,0,129.5,0L129.5,0z"/>
	</g>
	<g>
		<path style="fill:#626262;" d="M102.6,33c-2.9,0-5.2,0.8-7,1.1l-0.5,4.4c0.9-0.4,3.7-1.2,6-1.3s3.7,0.4,3.2,2.4
			c-6.9,0-11.5,1.4-12.4,5.8c-1.4,7.6,7,7.4,10.3,4.1l-0.4,1.8h6.1l2.6-12.1C111.5,34.1,106.9,32.9,102.6,33z M103,45.3
			c-0.3,1.6-1.6,2.3-3.2,2.4c-1.4,0.1-2.6-1.1-1.7-2.5c0.7-1.2,2.6-1.5,3.7-1.5c0.5,0,1,0,1.5,0C103.2,44.3,103.1,44.8,103,45.3z"/>
		<polygon style="fill:#626262;" points="115.7,28.2 110.6,51.4 116.8,51.4 121.9,28.2 		"/>
		<path style="fill:#626262;" d="M87.2,28.2H75.8l-5,23.1h6.6l1.7-7.7h4.7c4.6,0,8.4-2.8,9.4-7.6C94.4,30.7,90.5,28.2,87.2,28.2z
			 M87,36.1c-0.4,1.8-2.2,3.2-3.9,3.2H80l1.4-6.3h3.3C86.4,33,87.4,34.4,87,36.1z"/>
		<path style="fill:#484848;" d="M43.1,33c-2.9,0-5.2,0.8-6.8,1.1l-0.5,4.4c0.8-0.4,3.6-1.2,5.8-1.3c2.3-0.1,3.6,0.4,3.2,2.4
			c-6.8,0-11.3,1.4-12.3,5.8c-1.3,7.6,6.9,7.4,10.1,4.1l-0.4,1.8h6.1l2.7-12C52.1,34.1,47.4,32.9,43.1,33z M43.6,45.3
			c-0.3,1.6-1.7,2.3-3.2,2.4c-1.3,0.1-2.5-1.1-1.6-2.5c0.7-1.2,2.5-1.5,3.6-1.5c0.5,0,1,0,1.5,0C43.8,44.3,43.7,44.8,43.6,45.3z"/>
		<polygon style="fill:#484848;" points="53.6,33.3 59.7,33.3 60.7,44.1 66.7,33.3 73,33.3 58.5,59.1 51.7,59.1 56.1,51.5 		"/>
		<path style="fill:#484848;" d="M28,28.2H16.6l-5,23.1h6.7l1.6-7.7h4.8c4.6,0,8.4-2.8,9.4-7.6C35.2,30.7,31.3,28.2,28,28.2z
			 M27.8,36.1c-0.4,1.8-2.1,3.2-3.8,3.2h-3.1l1.4-6.3h3.3C27.2,33,28.2,34.4,27.8,36.1z"/>
		<path style="fill:#484848;" d="M123.3,31.2v-2.7h-1v-0.4h2.5v0.4h-1v2.7H123.3z"/>
		<path style="fill:#484848;" d="M125.1,31.2v-3.1h0.6l0.7,2.2c0.1,0.2,0.1,0.4,0.1,0.5c0-0.1,0.1-0.3,0.2-0.5l0.7-2.2h0.6v3.1h-0.4
			v-2.6l-0.9,2.6h-0.4l-0.9-2.6v2.6H125.1z"/>
	</g>
</g>
</svg>
