<svg version="1.1" id="pay-later" xmlns="http://www.w3.org/2000/svg" xmlns:xlink="http://www.w3.org/1999/xlink" x="0px" y="0px"
	 viewBox="0 0 137.6 86" style="enable-background:new 0 0 137.6 86;" xml:space="preserve">
<g>
	<path class="svg-white" d="M128.9,85.6H8.7c-4.5,0-8.2-3.7-8.2-8.2V8.6c0-4.5,3.7-8.2,8.2-8.2h120.1c4.5,0,8.2,3.7,8.2,8.2
		v68.8C137.1,81.9,133.4,85.6,128.9,85.6z"/>
	<g>
		<path class="svg-gray green" d="M58.8,45.8H1.1V13.4h57.7c0.8,0,1.4,0.6,1.4,1.4v29.6C60.2,45.2,59.5,45.8,58.8,45.8z"/>
		<g>
			<g>
				<path class="svg-dark-gray blue" d="M72.8,20.8c2.5,0,4.4,0.6,5.6,1.8c1.2,1.2,1.9,2.9,1.9,4.9c0,2.1-0.6,3.7-1.9,4.9
					c-1.2,1.2-3.1,1.8-5.6,1.8h-3.4V40H65V20.8H72.8z M72.7,30.4c0.9,0,1.6-0.3,2.1-0.8s0.7-1.2,0.7-2.1s-0.2-1.7-0.7-2.2
					s-1.2-0.8-2.1-0.8h-3.4v5.8h3.4V30.4z"/>
				<path class="svg-dark-gray blue" d="M93,40l-1.2-3.4h-7L83.7,40h-4.8l7.4-19.2h4L97.7,40H93z M85.9,33.3h4.8l-2.4-7.1L85.9,33.3z"/>
				<path class="svg-dark-gray blue" d="M106.5,33v7H102v-7l-7-12.2h5.1l4.1,7.9l4.1-7.9h5.1L106.5,33z"/>
				<path class="svg-dark-gray blue" d="M31.2,65.8h8.7v3.8H26.7V50.3h4.4v15.5H31.2z"/>
				<path class="svg-dark-gray blue" d="M56.3,69.5l-1.2-3.4h-7L47,69.5h-4.8l7.4-19.2h4L61,69.5H56.3z M49.3,62.9H54l-2.4-7.1L49.3,62.9
					z"/>
				<path class="svg-dark-gray blue" d="M76.5,50.3v3.8h-5.7v15.4h-4.4V54.1h-5.8v-3.8H76.5z"/>
				<path class="svg-dark-gray blue" d="M84.1,65.8h9.5v3.8H79.7V50.3h13.6v3.8h-9.2V58h7.8v3.5h-7.8V65.8z"/>
				<path class="svg-dark-gray blue" d="M112.8,66.3c0,1.4,0.2,2.5,0.6,3.2H109c-0.4-0.7-0.6-1.7-0.6-3.2V65c0-0.7-0.2-1.3-0.7-1.7
					s-1.1-0.7-1.9-0.7h-4.5v6.9H97V50.3h8.4c2.4,0,4.2,0.5,5.4,1.6c1.2,1.1,1.8,2.5,1.8,4.2c0,1.9-0.9,3.4-2.6,4.5
					c1,0.5,1.8,1.1,2.2,1.8c0.4,0.7,0.6,1.5,0.6,2.5V66.3z M105.1,59.2c1.1,0,1.8-0.2,2.2-0.6c0.4-0.4,0.6-1.1,0.6-2
					c0-1.6-0.9-2.4-2.8-2.4h-3.9v5.1L105.1,59.2L105.1,59.2z"/>
			</g>
		</g>
		<g id="Pay_Later_icon_4_">
			<g>
				<path class="svg-white" d="M47.6,30.7v-1.9H29v6c0,1.4,1.1,2.5,2.5,2.5h7.2l0,0h7.1l-2.2-2.2l1.5-1.5l3.2,3.2l0,0l1.5,1.5
					l-1.5,1.5l0,0L45,43l-1.5-1.5l2.2-2.2h-3.2l0,0h-11c-2.5,0-4.5-2-4.5-4.5V22.9c0-2.5,2-4.5,4.5-4.5l0,0v2.1
					c-1.4,0-2.5,1.1-2.5,2.4v3.7h18.6v-3.7c0-1.4-1.1-2.5-2.5-2.5h-1.6v0.9c0.8,0.4,1.3,1.2,1.3,2.1c0,1.3-1.1,2.3-2.3,2.3
					s-2.3-1.1-2.3-2.3c0-0.9,0.5-1.7,1.3-2.1V17h2.1v1.4h1.6c2.5,0,4.5,2,4.5,4.5v7.7h-2.1V30.7z M34.2,25.8c1.3,0,2.3-1.1,2.3-2.3
					c0-0.9-0.5-1.7-1.3-2.1v-0.9h4.2v-2.1h-4.2V17h-2.1v4.4c-0.8,0.4-1.3,1.2-1.3,2.1C31.9,24.8,33,25.8,34.2,25.8z"/>
			</g>
		</g>
		<g>
			<g>
				<path class="svg-dark-gray blue" d="M129.5,1.4c3.7,0,6.8,3,6.8,6.8v69.7c0,3.7-3,6.8-6.8,6.8H8.1c-3.7,0-6.8-3-6.8-6.8V8.1
					c0-3.7,3-6.8,6.8-6.8L129.5,1.4 M129.5,0H8.1C3.6,0,0,3.6,0,8.1v69.7C0,82.4,3.6,86,8.1,86h121.4c4.5,0,8.1-3.6,8.1-8.1V8.1
					C137.6,3.6,134,0,129.5,0L129.5,0z"/>
			</g>
		</g>
	</g>
</g>
</svg>

