<svg version="1.1" id="Layer_1" xmlns="http://www.w3.org/2000/svg" xmlns:xlink="http://www.w3.org/1999/xlink" x="0px" y="0px"
	 viewBox="0 0 137.6 86" style="enable-background:new 0 0 137.6 86;" xml:space="preserve">
<g>
	<path style="fill:#FFFFFF;" d="M129.1,85.6H8.5c-4.4,0-7.9-3.6-7.9-7.9V8.4c0-4.4,3.6-7.9,7.9-7.9h120.6c4.4,0,7.9,3.6,7.9,7.9
		v69.2C137.1,82,133.5,85.6,129.1,85.6z"/>
	<g>
		<path style="fill:#595959;" d="M129.5,1.4c3.7,0,6.8,3,6.8,6.8v69.7c0,3.7-3,6.8-6.8,6.8H8.1c-3.7,0-6.8-3-6.8-6.8V8.1
			c0-3.7,3-6.8,6.8-6.8L129.5,1.4 M129.5,0H8.1C3.6,0,0,3.6,0,8.1v69.7C0,82.4,3.6,86,8.1,86h121.4c4.5,0,8.1-3.6,8.1-8.1V8.1
			C137.6,3.6,134,0,129.5,0L129.5,0z"/>
	</g>
	<g>
		<path style="fill:#595959;" d="M26.5,14.5c3.9,0,6.8,0.9,8.7,2.8s2.9,4.4,2.9,7.7s-1,5.8-2.9,7.6c-1.9,1.9-4.8,2.8-8.7,2.8h-5.3v9
			h-6.9V14.5H26.5z M26.5,29.5c1.4,0,2.5-0.4,3.2-1.2c0.7-0.8,1.1-1.9,1.1-3.3s-0.4-2.6-1.1-3.4s-1.8-1.2-3.2-1.2h-5.2v9.1H26.5z"/>
		<path style="fill:#595959;" d="M39.1,37h7.1v7.4h-7.1V37z"/>
		<path style="fill:#595959;" d="M53.5,18c2.6-2.8,6.1-4.1,10.4-4.1s7.8,1.4,10.4,4.1c2.6,2.8,3.9,6.6,3.9,11.4s-1.3,8.6-3.9,11.4
			S68.2,45,63.9,45s-7.8-1.4-10.4-4.2c-2.6-2.8-3.9-6.6-3.9-11.4S50.9,20.8,53.5,18z M58.6,36.5c1.2,1.7,3,2.5,5.3,2.5
			s4.1-0.8,5.3-2.5s1.8-4.1,1.8-7.1c0-3.1-0.6-5.5-1.8-7.1c-1.2-1.7-3-2.5-5.3-2.5s-4.1,0.8-5.3,2.5s-1.8,4.1-1.8,7.1
			C56.8,32.5,57.4,34.9,58.6,36.5z"/>
		<path style="fill:#595959;" d="M81.3,37h7.1v7.4h-7.1V37z"/>
	</g>
	<g>
		<path style="fill:#8C8C8C;" d="M18.4,58.8c1.2,0,2,0.3,2.6,0.8c0.6,0.6,0.9,1.3,0.9,2.3s-0.3,1.7-0.9,2.3S19.6,65,18.4,65h-1.7
			v2.8h-1.9v-9.1L18.4,58.8L18.4,58.8z M18.4,63.4c0.5,0,0.8-0.1,1.1-0.4c0.2-0.3,0.4-0.6,0.4-1.1s-0.1-0.8-0.4-1.1
			s-0.6-0.4-1.1-0.4h-1.7v3H18.4z"/>
		<path style="fill:#8C8C8C;" d="M28.7,61.2h1.8v6.7h-1.8v-1.3c-0.1,0.3-0.4,0.6-0.8,1c-0.4,0.3-0.9,0.5-1.4,0.5
			c-1.6,0-2.4-0.9-2.4-2.7v-4.1h1.8v4c0,0.9,0.4,1.3,1.1,1.3c0.4,0,0.8-0.2,1.1-0.5c0.3-0.3,0.5-0.6,0.6-0.9
			C28.7,65.2,28.7,61.2,28.7,61.2z"/>
		<path style="fill:#8C8C8C;" d="M37,61.1c0.2,0,0.4,0,0.6,0v1.6c-0.2,0-0.3,0-0.5,0c-0.7,0-1.2,0.1-1.5,0.4
			c-0.3,0.3-0.5,0.7-0.6,1.2v3.6h-1.8v-6.7H35v1.5c0.1-0.5,0.3-0.9,0.7-1.1C36,61.2,36.5,61.1,37,61.1z"/>
		<path style="fill:#8C8C8C;" d="M42.5,66.6c0.7,0,1.1-0.3,1.3-0.9h1.6c-0.1,0.4-0.2,0.8-0.4,1.1c-0.2,0.3-0.5,0.6-0.7,0.7
			c-0.3,0.2-0.6,0.3-0.9,0.4C43.1,68,42.8,68,42.5,68c-0.4,0-0.8-0.1-1.2-0.2s-0.7-0.3-1-0.6c-0.3-0.3-0.6-0.6-0.8-1.1
			s-0.3-1-0.3-1.6s0.1-1.1,0.3-1.6s0.4-0.8,0.8-1.1c0.3-0.3,0.7-0.5,1-0.6c0.4-0.1,0.8-0.2,1.2-0.2c0.3,0,0.6,0,0.9,0.1
			c0.3,0.1,0.6,0.2,0.8,0.3c0.3,0.2,0.5,0.4,0.7,0.7s0.4,0.7,0.4,1.1h-1.7c-0.2-0.5-0.6-0.8-1.2-0.8c-0.5,0-0.9,0.2-1.1,0.5
			c-0.3,0.3-0.4,0.8-0.4,1.5c0,0.6,0.1,1.1,0.4,1.5C41.7,66.4,42,66.6,42.5,66.6z"/>
		<path style="fill:#8C8C8C;" d="M51.7,61.1c1.6,0,2.4,0.9,2.4,2.7v4.1h-1.8v-4c0-0.9-0.4-1.3-1.1-1.3c-0.4,0-0.8,0.1-1.1,0.4
			c-0.3,0.3-0.5,0.6-0.5,0.9v4h-1.8v-9.2h1.8v3.8c0.1-0.3,0.4-0.6,0.8-1C50.7,61.2,51.2,61.1,51.7,61.1z"/>
		<path style="fill:#8C8C8C;" d="M62.6,66.1c0,0.4,0.2,0.6,0.5,0.6v1.2C62.9,68,62.7,68,62.4,68c-0.4,0-0.8-0.1-1-0.3
			S61,67.2,61,66.9v-0.1l-0.1,0.1c0,0.1-0.1,0.1-0.1,0.1s-0.1,0.1-0.1,0.2c-0.1,0.1-0.1,0.1-0.2,0.2c-0.1,0.1-0.1,0.1-0.2,0.2
			c-0.1,0.1-0.2,0.1-0.3,0.2c-0.1,0-0.2,0.1-0.4,0.1S59.4,68,59.2,68s-0.3,0-0.5,0c-0.6,0-1.2-0.2-1.6-0.5c-0.4-0.3-0.7-0.8-0.7-1.5
			c0-0.4,0.1-0.7,0.2-0.9c0.1-0.3,0.3-0.5,0.6-0.6s0.5-0.3,0.7-0.3c0.2-0.1,0.5-0.1,0.8-0.2c0.1,0,0.3,0,0.5-0.1
			c0.2,0,0.4,0,0.5-0.1c0.1,0,0.2,0,0.4-0.1c0.2,0,0.3-0.1,0.4-0.1c0.1,0,0.2-0.1,0.3-0.1v-0.1c0-0.4-0.1-0.7-0.3-0.8
			s-0.5-0.2-0.8-0.2c-0.7,0-1,0.2-1.1,0.7h-1.7c0.1-1.4,1.1-2,2.8-2c1.1,0,1.8,0.2,2.3,0.7c0.5,0.4,0.7,1.2,0.7,2.2v2.1H62.6z
			 M60.8,65.8v-1.1c-0.1,0-0.2,0.1-0.2,0.1c-0.1,0-0.1,0.1-0.2,0.1c-0.1,0-0.1,0-0.3,0.1c-0.1,0-0.2,0-0.3,0.1c-0.1,0-0.2,0-0.4,0.1
			c-0.2,0-0.3,0.1-0.4,0.1c-0.5,0.1-0.8,0.3-0.8,0.8c0,0.2,0.1,0.4,0.2,0.6c0.1,0.2,0.4,0.2,0.7,0.2c0.4,0,0.8-0.1,1.1-0.3
			C60.5,66.2,60.7,66,60.8,65.8z"/>
		<path style="fill:#8C8C8C;" d="M69,63.2c-0.1-0.3-0.2-0.5-0.4-0.6s-0.5-0.2-0.8-0.2c-0.6,0-0.9,0.2-0.9,0.6c0,0.3,0.2,0.6,0.7,0.7
			l1.2,0.3c0.3,0.1,0.5,0.1,0.7,0.2s0.4,0.1,0.6,0.2s0.3,0.2,0.5,0.3c0.1,0.1,0.2,0.3,0.3,0.5c0.1,0.2,0.1,0.4,0.1,0.7
			c0,0.7-0.3,1.2-0.8,1.5S68.7,68,67.8,68c-0.8,0-1.5-0.2-2-0.6s-0.8-0.9-0.9-1.6h1.7c0.1,0.6,0.5,0.8,1.3,0.8s1.2-0.2,1.2-0.7
			c0-0.2-0.1-0.3-0.2-0.4s-0.3-0.2-0.6-0.2L67.2,65c-1.4-0.3-2.1-1-2.1-2c0-0.6,0.2-1.1,0.7-1.5c0.5-0.3,1.1-0.5,2-0.5
			s1.5,0.2,2,0.6c0.5,0.4,0.8,0.9,0.9,1.5H69V63.2z"/>
		<path style="fill:#8C8C8C;" d="M79.2,64.8c0,0.2,0,0.3,0,0.4h-4.7c0.1,0.5,0.2,0.9,0.5,1.1s0.6,0.3,1.1,0.3c0.7,0,1.1-0.2,1.3-0.5
			H79c-0.4,1.3-1.4,2-3.1,2c-0.4,0-0.7-0.1-1.1-0.2s-0.7-0.3-1-0.6c-0.3-0.3-0.6-0.6-0.8-1.1c-0.2-0.5-0.3-1-0.3-1.6
			s0.1-1.1,0.3-1.6c0.2-0.5,0.5-0.8,0.8-1.1s0.7-0.5,1-0.6c0.4-0.1,0.7-0.2,1.1-0.2c0.9,0,1.6,0.3,2.2,0.9
			C78.9,62.6,79.2,63.6,79.2,64.8z M74.6,63.9h2.9c0-0.4-0.2-0.8-0.4-1c-0.3-0.3-0.6-0.4-1-0.4C75.2,62.5,74.7,63,74.6,63.9z"/>
		<path style="fill:#8C8C8C;" d="M87.5,59.9c0.8-0.8,1.8-1.2,3.1-1.2s2.3,0.4,3.1,1.2c0.8,0.8,1.2,2,1.2,3.5s-0.4,2.6-1.2,3.5
			c-0.8,0.8-1.8,1.3-3.1,1.3s-2.3-0.4-3.1-1.3c-0.8-0.8-1.2-2-1.2-3.5S86.7,60.7,87.5,59.9z M90.6,66.4c0.7,0,1.3-0.3,1.7-0.8
			c0.4-0.5,0.6-1.3,0.6-2.3c0-1-0.2-1.7-0.6-2.3c-0.4-0.5-1-0.8-1.7-0.8s-1.3,0.3-1.7,0.8c-0.4,0.5-0.6,1.3-0.6,2.3
			c0,1,0.2,1.7,0.6,2.3S89.9,66.4,90.6,66.4z"/>
		<path style="fill:#8C8C8C;" d="M101.2,61.1c0.2,0,0.4,0,0.6,0v1.6c-0.2,0-0.3,0-0.5,0c-0.7,0-1.2,0.1-1.5,0.4
			c-0.3,0.3-0.5,0.7-0.6,1.2v3.6h-1.8v-6.7h1.8v1.5c0.1-0.5,0.3-0.9,0.7-1.1C100.1,61.2,100.6,61.1,101.2,61.1z"/>
		<path style="fill:#8C8C8C;" d="M106.3,61.1c0.4,0,0.8,0.1,1.2,0.3c0.3,0.2,0.6,0.4,0.7,0.6v-3.3h1.8v9.2h-1.8V67
			c0,0.1-0.1,0.2-0.2,0.3c-0.1,0.1-0.3,0.3-0.6,0.4c-0.3,0.1-0.6,0.2-1,0.2c-0.3,0-0.7-0.1-1-0.2s-0.6-0.3-0.9-0.6s-0.6-0.6-0.7-1.1
			c-0.2-0.5-0.3-1-0.3-1.6c0-0.5,0.1-0.9,0.2-1.3c0.1-0.4,0.3-0.7,0.5-1s0.4-0.5,0.7-0.7c0.3-0.2,0.5-0.3,0.8-0.4
			C105.8,61.1,106,61.1,106.3,61.1z M105.6,66c0.3,0.3,0.6,0.5,1.1,0.5s0.8-0.2,1.1-0.5c0.3-0.3,0.4-0.8,0.4-1.5
			c0-0.7-0.1-1.2-0.4-1.5s-0.7-0.5-1.1-0.5c-0.5,0-0.8,0.2-1.1,0.5c-0.3,0.3-0.4,0.8-0.4,1.5C105.2,65.2,105.3,65.7,105.6,66z"/>
		<path style="fill:#8C8C8C;" d="M118.9,64.8c0,0.2,0,0.3,0,0.4h-4.7c0.1,0.5,0.2,0.9,0.5,1.1s0.6,0.3,1.1,0.3
			c0.7,0,1.1-0.2,1.3-0.5h1.6c-0.4,1.3-1.4,2-3.1,2c-0.4,0-0.7-0.1-1.1-0.2s-0.7-0.3-1-0.6c-0.3-0.3-0.6-0.6-0.8-1.1
			c-0.2-0.5-0.3-1-0.3-1.6s0.1-1.1,0.3-1.6c0.2-0.5,0.5-0.8,0.8-1.1s0.7-0.5,1-0.6c0.4-0.1,0.7-0.2,1.1-0.2c0.9,0,1.6,0.3,2.2,0.9
			C118.5,62.6,118.9,63.6,118.9,64.8z M114.2,63.9h2.9c0-0.4-0.2-0.8-0.4-1c-0.3-0.3-0.6-0.4-1-0.4C114.8,62.5,114.4,63,114.2,63.9z
			"/>
		<path style="fill:#8C8C8C;" d="M125.1,61.1c0.2,0,0.4,0,0.6,0v1.6c-0.2,0-0.3,0-0.5,0c-0.7,0-1.2,0.1-1.5,0.4
			c-0.3,0.3-0.5,0.7-0.6,1.2v3.6h-1.8v-6.7h1.8v1.5c0.1-0.5,0.3-0.9,0.7-1.1C124,61.2,124.5,61.1,125.1,61.1z"/>
	</g>
	<rect x="117.8" y="37" style="fill:#8C8C8C;" width="7.4" height="7.4"/>
	<rect x="117.8" y="25.9" style="fill:#8C8C8C;" width="7.4" height="7.4"/>
	<rect x="117.8" y="14.9" style="fill:#8C8C8C;" width="7.4" height="7.4"/>
</g>
</svg>
