<svg version="1.1" id="visa" xmlns="http://www.w3.org/2000/svg" xmlns:xlink="http://www.w3.org/1999/xlink" x="0px" y="0px"
	 viewBox="0 0 137.6 86" style="enable-background:new 0 0 137.6 86;" xml:space="preserve">
<g id="Page-1_5_">
	<g id="Visa_2_">
		<rect class="light-gray" y="7.7"  width="137.6" height="68.8"/>
		<path  style="fill-rule:evenodd;clip-rule:evenodd;fill:#4F4F4F;" d="M127.3,0C120.4,0,47.6,0,6.9,0
			C3.4,0,0,3.4,0,6.9v10.3h137.6c0,0,0,16,0-6.9C137.6,3.4,134.2,0,127.3,0z"/>
		<path  style="fill-rule:evenodd;clip-rule:evenodd;fill:#8C8C8C;" d="M0,68.8c0,0,0,0,0,6.9
			C0,82.6,3.4,86,10.3,86c38.4,0,110.1,0,117,0c6.9,0,10.3-3.4,10.3-10.3v-6.9C137.6,68.8,0,68.8,0,68.8z"/>
		<path  style="fill-rule:evenodd;clip-rule:evenodd;fill:#4F4F4F;" d="M96,25.6c-1.9-0.7-5-1.5-8.7-1.5
			c-9.6,0-16.4,5-16.5,12c-0.1,5.2,4.8,8.2,8.5,9.9c3.8,1.8,5.1,2.9,5,4.5c0,2.4-3,3.6-5.8,3.6c-3.9,0-6-0.6-9.2-1.9L68,51.6
			l-1.4,8.2c2.3,1,6.5,1.9,10.8,1.9c10.2,0,16.9-4.9,17-12.5c0-4.2-2.6-7.3-8.2-9.9c-3.4-1.7-5.5-2.8-5.5-4.5c0-1.5,1.8-3.1,5.6-3.1
			c3.2-0.1,5.5,0.7,7.3,1.4l0.9,0.4L96,25.6"/>
		<path  style="fill-rule:evenodd;clip-rule:evenodd;fill:#4F4F4F;" d="M121,24.8h-7.5c-2.3,0-4.1,0.6-5.1,3
			L93.9,61.2h10.2c0,0,1.7-4.5,2-5.5c1.1,0,11,0,12.5,0c0.3,1.3,1.2,5.5,1.2,5.5h9L121,24.8L121,24.8z M109,48.3
			c0.8-2.1,3.9-10.2,3.9-10.2c-0.1,0.1,0.8-2.1,1.3-3.5l0.7,3.1c0,0,1.9,8.7,2.3,10.5L109,48.3L109,48.3L109,48.3L109,48.3z"/>
		<path  style="fill-rule:evenodd;clip-rule:evenodd;fill:#4F4F4F;" d="M51,61.2l6.1-36.5h9.7l-6.1,36.5H51z"/>
		<path  style="fill-rule:evenodd;clip-rule:evenodd;fill:#4F4F4F;" d="M42.8,24.7l-9.5,24.9l-1-5.1
			c-1.8-5.8-7.3-12.1-13.5-15.3l8.7,31.9h10.3l15.3-36.4L42.8,24.7"/>
		<path  style="fill-rule:evenodd;clip-rule:evenodd;fill:#8C8C8C;" d="M24.4,24.7H8.7l-0.1,0.8
			c12.2,3,20.3,10.3,23.7,19.1l-3.4-16.8C28.3,25.5,26.5,24.8,24.4,24.7"/>
	</g>
</g>
</svg>
