<svg version="1.1" id="Layer_1" xmlns="http://www.w3.org/2000/svg" xmlns:xlink="http://www.w3.org/1999/xlink" x="0px" y="0px"
	 viewBox="0 0 137.6 86" style="enable-background:new 0 0 137.6 86;" xml:space="preserve">
<g>
	<path style="fill:#FFFFFF;" d="M129,85.6H8.7c-4.5,0-8.1-3.6-8.1-8.1V8.6c0-4.5,3.6-8.1,8.1-8.1H129c4.5,0,8.1,3.6,8.1,8.1v68.9
		C137.1,81.9,133.4,85.6,129,85.6z"/>
	<g>
		<path style="fill:#848484;" d="M129.5,1.4c3.7,0,6.8,3,6.8,6.8v69.7c0,3.7-3,6.8-6.8,6.8H8.1c-3.7,0-6.8-3-6.8-6.8V8.1
			c0-3.7,3-6.8,6.8-6.8L129.5,1.4 M129.5,0H8.1C3.6,0,0,3.6,0,8.1v69.7C0,82.4,3.6,86,8.1,86h121.4c4.5,0,8.1-3.6,8.1-8.1V8.1
			C137.6,3.6,134,0,129.5,0L129.5,0z"/>
	</g>
	<g>
		<g>
			<path style="fill:#7F7F7F;" d="M15.9,64.1V51.9h-3.6v-3.8h11.6v3.8h-3.6v12.2H15.9L15.9,64.1z"/>
			<path style="fill:#7F7F7F;" d="M26,64.1v-16h4.6c1.8,0,3,0.1,3.7,0.2c0.7,0.2,1.3,0.4,1.8,0.8c0.6,0.4,1,1,1.3,1.7
				s0.5,1.4,0.5,2.2c0,1.2-0.3,2.3-0.9,3c-0.6,0.8-1.5,1.3-2.7,1.6l4.4,6.5h-4.9L30,57.9v6.3L26,64.1L26,64.1z M30,55.7h0.8
				c0.9,0,1.6-0.2,2.1-0.5c0.4-0.3,0.7-0.8,0.7-1.5c0-0.8-0.2-1.4-0.6-1.7c-0.4-0.3-1.1-0.5-2-0.5h-1V55.7z"/>
			<path style="fill:#7F7F7F;" d="M38.5,64.1l5.5-16h5.5l5.5,16h-4.3l-0.8-2.9h-6.2l-0.8,2.9H38.5z M44.6,58.1h4.3l-1.6-5.3
				c-0.1-0.2-0.1-0.4-0.2-0.8c-0.1-0.4-0.2-0.8-0.3-1.4c-0.1,0.4-0.2,0.8-0.3,1.1c-0.1,0.4-0.2,0.7-0.3,1L44.6,58.1z"/>
			<path style="fill:#7F7F7F;" d="M56.5,64.1v-16h4.2l6.1,8.2c0.1,0.2,0.3,0.5,0.6,1c0.3,0.5,0.6,1.1,0.9,1.8
				c-0.1-0.7-0.2-1.3-0.2-1.8s-0.1-1-0.1-1.4V48h4.2v16H68l-6-8.1c-0.1-0.2-0.3-0.5-0.6-1s-0.6-1.1-0.9-1.8c0.1,0.7,0.2,1.3,0.2,1.8
				s0.1,1,0.1,1.4v7.9h-4.3V64.1z"/>
			<path style="fill:#7F7F7F;" d="M76.4,59c0.7,0.7,1.3,1.3,1.9,1.7s1.3,0.5,1.9,0.5s1.1-0.2,1.4-0.5c0.4-0.3,0.6-0.7,0.6-1.2
				s-0.2-0.9-0.5-1.2s-1.1-0.6-2.2-0.9c-1.6-0.4-2.7-1-3.3-1.7c-0.7-0.7-1-1.6-1-2.8c0-1.5,0.5-2.8,1.5-3.8s2.4-1.5,4-1.5
				c0.9,0,1.7,0.1,2.5,0.4c0.8,0.2,1.5,0.6,2.3,1.1l-1.4,3.1c-0.5-0.4-1-0.7-1.5-1c-0.5-0.2-1-0.3-1.5-0.3s-1,0.1-1.3,0.4
				s-0.5,0.6-0.5,1s0.1,0.7,0.4,1s0.8,0.5,1.7,0.7l0.2,0.1c1.8,0.5,3,1,3.5,1.6c0.4,0.4,0.7,0.9,0.9,1.4c0.2,0.6,0.3,1.2,0.3,1.8
				c0,1.7-0.6,3.1-1.7,4.1s-2.6,1.5-4.5,1.5c-1.1,0-2.1-0.2-3.1-0.6c-0.9-0.4-1.8-1-2.6-1.8L76.4,59z"/>
			<path style="fill:#7F7F7F;" d="M88.7,64.1v-16h9.8v3.5h-5.6v2.8h5.2v3.4h-5.2v6.3H88.7z"/>
			<path style="fill:#7F7F7F;" d="M100.9,64.1v-16h9.8v3.5h-5.6v2.8h5.2v3.4h-5.2v2.7h5.6v3.6H100.9L100.9,64.1z"/>
			<path style="fill:#7F7F7F;" d="M113.6,64.1v-16h4.6c1.8,0,3,0.1,3.7,0.2c0.7,0.2,1.3,0.4,1.8,0.8c0.6,0.4,1,1,1.3,1.7
				s0.5,1.4,0.5,2.2c0,1.2-0.3,2.3-0.9,3c-0.6,0.8-1.5,1.3-2.7,1.6l4.4,6.5h-4.9l-3.7-6.3v6.3H113.6L113.6,64.1z M117.7,55.7h0.8
				c0.9,0,1.6-0.2,2.1-0.5c0.4-0.3,0.7-0.8,0.7-1.5c0-0.8-0.2-1.4-0.6-1.7s-1.1-0.5-2-0.5h-0.9L117.7,55.7L117.7,55.7z"/>
		</g>
		<g>
			<path style="fill:#515151;" d="M62.4,22l2.9,11c0.1,0.5,0.3,1,0.4,1.6c0.1,0.5,0.2,1.2,0.4,1.9c0.2-0.8,0.3-1.5,0.4-2
				s0.2-1,0.3-1.4l2.7-11h6.4l-6.5,23.2h-5.9l-2.9-9.9c-0.1-0.3-0.3-1-0.5-2c-0.1-0.5-0.2-0.8-0.3-1.1c-0.1,0.2-0.1,0.5-0.2,0.9
				c-0.2,1-0.4,1.7-0.6,2.2l-2.8,9.9h-5.9L43.8,22h6.4l2.7,11.1c0.1,0.6,0.3,1.1,0.4,1.7c0.1,0.6,0.2,1.2,0.3,1.8
				c0.1-0.4,0.2-0.9,0.3-1.4s0.3-1.2,0.5-2.1L57.3,22H62.4L62.4,22z"/>
			<path style="fill:#515151;" d="M78.2,45.2V22h6.4v23.2H78.2z"/>
			<path style="fill:#515151;" d="M89.7,45.2V22h6.6c2.6,0,4.4,0.1,5.4,0.4c1,0.2,1.9,0.6,2.6,1.2c0.8,0.6,1.5,1.4,1.9,2.4
				s0.7,2.1,0.7,3.2c0,1.8-0.4,3.3-1.3,4.4c-0.9,1.1-2.2,1.9-3.9,2.2l6.3,9.3h-7.1L95.6,36v9.1L89.7,45.2L89.7,45.2z M95.6,33h1.2
				c1.4,0,2.4-0.2,3-0.7s0.9-1.2,0.9-2.2c0-1.2-0.3-2-0.9-2.5s-1.6-0.7-3-0.7h-1.3V33H95.6z"/>
			<path style="fill:#515151;" d="M110.4,45.2V22h14.2v5.1h-8v4h7.6v5h-7.6V40h8v5.2H110.4z"/>
		</g>
		
			<linearGradient id="SVGID_1_" gradientUnits="userSpaceOnUse" x1="12.4536" y1="809.9095" x2="41.3536" y2="809.9095" gradientTransform="matrix(1 0 0 1 0 -785.7095)">
			<stop  offset="0" style="stop-color:#9C9C9C;stop-opacity:0"/>
			<stop  offset="0.7362" style="stop-color:#8A8A8A"/>
			<stop  offset="0.7811" style="stop-color:#808080"/>
			<stop  offset="0.9265" style="stop-color:#626262"/>
			<stop  offset="1" style="stop-color:#565656"/>
		</linearGradient>
		<rect x="12.5" y="21.9" style="fill:url(#SVGID_1_);" width="28.9" height="4.6"/>
		
			<linearGradient id="SVGID_2_" gradientUnits="userSpaceOnUse" x1="12.4536" y1="818.8095" x2="41.3536" y2="818.8095" gradientTransform="matrix(1 0 0 1 0 -785.7095)">
			<stop  offset="0" style="stop-color:#9C9C9C;stop-opacity:0"/>
			<stop  offset="0.7362" style="stop-color:#8A8A8A"/>
			<stop  offset="0.7811" style="stop-color:#808080"/>
			<stop  offset="0.9265" style="stop-color:#626262"/>
			<stop  offset="1" style="stop-color:#565656"/>
		</linearGradient>
		<rect x="12.5" y="30.8" style="fill:url(#SVGID_2_);" width="28.9" height="4.6"/>
		
			<linearGradient id="SVGID_3_" gradientUnits="userSpaceOnUse" x1="12.4536" y1="828.5095" x2="41.3536" y2="828.5095" gradientTransform="matrix(1 0 0 1 0 -785.7095)">
			<stop  offset="0" style="stop-color:#9C9C9C;stop-opacity:0"/>
			<stop  offset="0.7362" style="stop-color:#8A8A8A"/>
			<stop  offset="0.7811" style="stop-color:#808080"/>
			<stop  offset="0.9265" style="stop-color:#626262"/>
			<stop  offset="1" style="stop-color:#565656"/>
		</linearGradient>
		<rect x="12.5" y="40.5" style="fill:url(#SVGID_3_);" width="28.9" height="4.6"/>
	</g>
</g>
</svg>
