

	<svg xmlns="http://www.w3.org/2000/svg" xmlns:xlink="http://www.w3.org/1999/xlink" version="1.1" id="sync2-logo" x="0px" y="0px" width="130.2px" height="49.5px" viewBox="0 0 130.2 49.5" style="enable-background:new 0 0 130.2 49.5;" xml:space="preserve">
<g>
	<g>
		<path style="fill:#337DC1;" d="M70.8,28.4c0-0.6-0.2-1.2-0.7-1.6c-0.5-0.4-1.3-0.8-2.4-1.1c-2-0.6-3.5-1.3-4.5-2    c-1-0.8-1.5-1.9-1.5-3.2s0.6-2.5,1.8-3.4c1.2-0.9,2.7-1.3,4.5-1.3c1.8,0,3.3,0.5,4.5,1.5c1.2,1,1.7,2.2,1.7,3.6l0,0.1h-3.3    c0-0.8-0.3-1.4-0.8-1.9c-0.5-0.5-1.2-0.7-2.2-0.7c-0.9,0-1.6,0.2-2.1,0.6S65,19.8,65,20.4c0,0.6,0.3,1,0.8,1.4    c0.5,0.4,1.4,0.8,2.7,1.2c1.9,0.5,3.3,1.2,4.2,2c1,0.8,1.4,2,1.4,3.3c0,1.4-0.6,2.6-1.7,3.4C71.3,32.6,69.8,33,68,33    c-1.8,0-3.4-0.5-4.8-1.4c-1.4-0.9-2-2.3-2-4l0-0.1h3.3c0,1,0.3,1.7,0.9,2.2s1.5,0.7,2.6,0.7c0.9,0,1.6-0.2,2.1-0.6    C70.6,29.5,70.8,29,70.8,28.4z"/>
		<path style="fill:#337DC1;" d="M80.9,27.5l0.1,0.7h0.1l2.4-7.9h3.6l-5.1,14.3c-0.4,0.9-0.8,1.6-1.4,2.3s-1.5,0.9-2.7,0.9    c-0.3,0-0.5,0-0.8-0.1c-0.2,0-0.5-0.1-0.9-0.2l0.4-2.5c0.1,0,0.2,0,0.3,0c0.1,0,0.2,0,0.3,0c0.6,0,1-0.1,1.3-0.4    c0.3-0.3,0.5-0.6,0.7-1l0.4-1l-4.4-12.5h3.6L80.9,27.5z"/>
		<path style="fill:#337DC1;" d="M91.6,20.3l0.1,1.8c0.4-0.6,0.9-1.1,1.5-1.5s1.3-0.5,2-0.5c1.3,0,2.2,0.4,2.9,1.2s1.1,2,1.1,3.7    v7.8h-3.4v-7.8c0-0.8-0.2-1.4-0.5-1.8c-0.3-0.4-0.8-0.5-1.5-0.5c-0.4,0-0.8,0.1-1.2,0.3c-0.4,0.2-0.6,0.4-0.9,0.8v9.1h-3.4V20.3    H91.6z"/>
		<path style="fill:#337DC1;" d="M107,30.4c0.6,0,1.1-0.2,1.4-0.5c0.4-0.3,0.5-0.8,0.5-1.4h3.1l0,0.1c0,1.3-0.4,2.3-1.4,3.2    c-1,0.8-2.2,1.3-3.6,1.3c-1.9,0-3.3-0.6-4.3-1.8s-1.5-2.7-1.5-4.5v-0.3c0-1.8,0.5-3.3,1.5-4.5c1-1.2,2.4-1.8,4.3-1.8    c1.5,0,2.8,0.4,3.7,1.3s1.4,2,1.4,3.5l0,0.1H109c0-0.6-0.2-1.2-0.5-1.6c-0.4-0.4-0.8-0.6-1.5-0.6c-0.9,0-1.5,0.3-1.9,1    c-0.4,0.7-0.5,1.6-0.5,2.7v0.3c0,1.1,0.2,2,0.5,2.7C105.5,30,106.1,30.4,107,30.4z"/>
		<path style="fill:#337DC1;" d="M125.3,32.7h-11.4v-2.2l5.4-5.8c0.8-0.9,1.3-1.7,1.7-2.3c0.3-0.6,0.5-1.2,0.5-1.7    c0-0.7-0.2-1.3-0.6-1.7c-0.4-0.4-0.9-0.7-1.6-0.7c-0.8,0-1.4,0.3-1.8,0.8c-0.4,0.5-0.6,1.2-0.6,2.1h-3.3l0-0.1    c0-1.5,0.5-2.8,1.5-3.8c1-1,2.4-1.6,4.2-1.6c1.7,0,3.1,0.4,4.1,1.3c1,0.9,1.5,2.1,1.5,3.6c0,1-0.3,1.9-0.8,2.8s-1.5,2-2.8,3.4    l-3,3.2l0,0.1h7V32.7z"/>
	</g>
	<path style="fill:#337DC1;" d="M25.6,3.8c11.5,0.2,20.9,9,20.9,20.9s-9.6,21-21.1,20.9c-11.5,0-20.8-9.3-20.7-20.8c0,0,0-0.1,0-0.1   C4.6,13.1,13.9,4,25.6,3.8z M36.1,15.4c-4.4-4.9-11.5-6.2-17.3-3c-5.2,2.9-7.5,8.4-7.2,12.3h4.4c0.3-5.6,4.2-8.8,8-9.4   c3.9-0.7,7.1,0.9,9.1,3.5L29.8,22h9.7V12L36.1,15.4z M18,30.6l3.3-3.2h-9.8v9.8l3.4-3.4c4.3,5,11.6,6.3,17.4,3.2   c5.3-2.9,7.4-8.4,7.3-12.3h-4.3c-0.5,5.3-3.3,8.6-8.5,9.5C23.4,34.7,20,33.4,18,30.6z"/>
</g>
</svg>