<svg version="1.1" id="aud" xmlns="http://www.w3.org/2000/svg" xmlns:xlink="http://www.w3.org/1999/xlink" x="0px" y="0px"
	 viewBox="0 0 24 24" style="enable-background:new 0 0 24 24;" xml:space="preserve">
<g>
	<g>
		<path style="fill:#273375;" d="M12,3.7c-4.6,0-8.3,3.7-8.3,8.3c0,4.6,3.7,8.3,8.3,8.3v0c4.6,0,8.3-3.7,8.3-8.3
			C20.3,7.4,16.6,3.7,12,3.7z"/>
		<g>
			<polygon style="fill:#F3F4F5;" points="9.4,16.4 9.9,15.7 9.1,15.9 8.8,15.1 8.5,15.9 7.6,15.7 8.1,16.4 7.5,17.1 8.4,17 
				8.7,17.8 9.1,17 10,17.1 			"/>
			<polygon style="fill:#F3F4F5;" points="16,17.1 16.3,16.7 15.8,16.7 15.7,16.3 15.5,16.7 15,16.7 15.3,17 15,17.4 15.5,17.4 
				15.7,17.8 15.8,17.4 16.4,17.4 			"/>
			<polygon style="fill:#F3F4F5;" points="16,8.3 16.3,7.9 15.8,8 15.7,7.5 15.5,8 15,7.9 15.3,8.3 15,8.7 15.5,8.6 15.7,9.1 
				15.8,8.6 16.4,8.7 			"/>
			<polygon style="fill:#F3F4F5;" points="18.1,10.6 18.4,10.2 17.9,10.3 17.7,9.8 17.6,10.3 17,10.2 17.4,10.5 17,10.9 17.5,10.9 
				17.7,11.3 17.9,10.9 18.4,10.9 			"/>
			<polygon style="fill:#F3F4F5;" points="14.2,11.6 14.6,11.2 14.1,11.3 13.9,10.8 13.7,11.3 13.2,11.2 13.5,11.6 13.2,11.9 
				13.7,11.9 13.9,12.3 14.1,11.9 14.6,12 			"/>
		</g>
		<g>
			<path style="fill:#29337A;" d="M5.4,6.9C5.3,7.1,5.2,7.2,5,7.4h0.9L5.4,6.9z"/>
			<polygon style="fill:#29337A;" points="9.7,12 10.5,12 9.7,11.2 			"/>
			<path style="fill:#29337A;" d="M7.1,5.3C6.9,5.4,6.7,5.6,6.5,5.7l0.6,0.6V5.3z"/>
			<polygon style="fill:#29337A;" points="6.3,12 7.1,12 7.1,11.2 			"/>
			<path style="fill:#29337A;" d="M12,3.7c-0.8,0-1.6,0.1-2.3,0.3v2.3L12,4L12,3.7L12,3.7z"/>
			<polygon style="fill:#29337A;" points="12,11.2 12,10.1 10.8,10.1 			"/>
			<path style="fill:#29337A;" d="M4,12l1.9-1.9h-2c-0.1,0.6-0.2,1.3-0.2,1.9H4z"/>
			<polygon style="fill:#29337A;" points="10.8,7.4 12,7.4 12,6.3 			"/>
		</g>
		<g>
			<polygon style="fill:#FFFFFF;" points="12,11.5 12,11.2 10.8,10.1 12,10.1 12,9.7 10.2,9.7 			"/>
			<path style="fill:#FFFFFF;" d="M5.9,7.4H5C5,7.6,4.9,7.7,4.8,7.8h1.8l-1-1c0,0-0.1,0.1-0.1,0.1L5.9,7.4z"/>
			<polygon style="fill:#FFFFFF;" points="7.1,11.2 7.1,12 7.5,12 7.5,10.6 6.1,12 6.3,12 			"/>
			<path style="fill:#FFFFFF;" d="M9.7,4C9.6,4,9.4,4.1,9.3,4.1v2.8L12,4.2V4L9.7,6.3V4z"/>
			<path style="fill:#FFFFFF;" d="M7,10.1L7,10.1L7,10.1l0.4-0.4H4c0,0.1-0.1,0.3-0.1,0.4h2L4,12h1.1L7,10.1L7,10.1z"/>
			<path style="fill:#FFFFFF;" d="M4,12l1.9-1.9L4,12z"/>
			<polygon style="fill:#FFFFFF;" points="12,7.8 12,7.4 10.8,7.4 12,6.3 12,5.2 9.3,7.8 			"/>
			<path style="fill:#FFFFFF;" d="M12,6.3l-1.2,1.2L12,6.3z"/>
			<path style="fill:#FFFFFF;" d="M7.1,6.3L6.5,5.7C6.3,5.9,6.1,6.1,5.9,6.3l1.1,1.1l0,0l0,0l0.4,0.4V5C7.3,5.1,7.2,5.2,7.1,5.3
				L7.1,6.3L7.1,6.3z"/>
			<polygon style="fill:#FFFFFF;" points="9.7,11.2 10.5,12 11.6,12 9.3,9.7 9.3,12 9.7,12 			"/>
		</g>
		<g>
			<path style="fill:#D32030;" d="M7.1,7.4L7.1,7.4L7.1,7.4z"/>
			<path style="fill:#D32030;" d="M10.6,10.1l-0.4-0.4H12V7.8H9.3l0,0v0h0L12,5.2V4.2L9.3,6.9V4.1C8.7,4.3,8,4.6,7.5,5v2.8l0,0h0v0
				L7.1,7.4l0,0h0v0L5.9,6.3C5.8,6.4,5.6,6.6,5.5,6.8l1,1H4.8C4.5,8.4,4.2,9,4,9.7h3.5l0,0v0h0l-0.4,0.4v0h0L5.1,12h0.9l1.4-1.4V12
				h1.8V9.7l2.3,2.3h0.3c0,0,0.1-0.1,0.1-0.1v-0.4L10.6,10.1z"/>
			<polygon style="fill:#D32030;" points="9.3,6.9 12,4.2 12,4.2 			"/>
			<polygon style="fill:#D32030;" points="7.1,10.1 7.1,10.1 7,10.1 			"/>
			<polygon style="fill:#D32030;" points="7.5,9.6 7.5,9.7 7.5,9.7 			"/>
			<polygon style="fill:#D32030;" points="9.3,7.8 9.3,7.8 9.3,7.8 			"/>
			<polygon style="fill:#D32030;" points="7.1,7.4 7.1,7.4 7.1,7.4 7.1,7.4 			"/>
			<polygon style="fill:#D32030;" points="7.5,7.8 7.5,7.8 7.5,7.8 			"/>
		</g>
	</g>
	<g>
		<path style="fill:none;" d="M0,0h24v24H0V0z"/>
	</g>
</g>
</svg>
