<svg version="1.1" id="Layer_1" xmlns="http://www.w3.org/2000/svg" xmlns:xlink="http://www.w3.org/1999/xlink" x="0px" y="0px"
	 viewBox="0 0 24 24" style="enable-background:new 0 0 24 24;" xml:space="preserve">
<g>
	<g>
		<circle style="fill:#0052B4;" cx="12" cy="12" r="8.3"/>
		<g>
			<polygon style="fill:#FFDA44;" points="12,6.9 12.3,7.8 13.1,7.8 12.4,8.3 12.7,9.1 12,8.6 11.3,9.1 11.6,8.3 10.9,7.8 11.7,7.8 
							"/>
			<polygon style="fill:#FFDA44;" points="8.4,8.4 9.2,8.8 9.8,8.2 9.7,9.1 10.5,9.5 9.6,9.6 9.5,10.5 9.1,9.7 8.2,9.8 8.8,9.2 			
				"/>
			<polygon style="fill:#FFDA44;" points="6.9,12 7.8,11.7 7.8,10.9 8.3,11.6 9.1,11.3 8.6,12 9.1,12.7 8.3,12.4 7.8,13.1 7.8,12.3 
							"/>
			<polygon style="fill:#FFDA44;" points="8.4,15.6 8.8,14.8 8.2,14.2 9.1,14.3 9.5,13.5 9.6,14.4 10.5,14.5 9.7,14.9 9.8,15.8 
				9.2,15.2 			"/>
			<polygon style="fill:#FFDA44;" points="12,17.1 11.7,16.2 10.9,16.2 11.6,15.7 11.3,14.9 12,15.4 12.7,14.9 12.4,15.7 13.1,16.2 
				12.3,16.2 			"/>
			<polygon style="fill:#FFDA44;" points="15.6,15.6 14.8,15.2 14.2,15.8 14.3,14.9 13.5,14.5 14.4,14.4 14.5,13.5 14.9,14.3 
				15.8,14.2 15.2,14.8 			"/>
			<polygon style="fill:#FFDA44;" points="17.1,12 16.2,12.3 16.2,13.1 15.7,12.4 14.9,12.7 15.4,12 14.9,11.3 15.7,11.6 16.2,10.9 
				16.2,11.7 			"/>
			<polygon style="fill:#FFDA44;" points="15.6,8.4 15.2,9.2 15.8,9.8 14.9,9.7 14.5,10.5 14.4,9.6 13.5,9.5 14.3,9.1 14.2,8.2 
				14.8,8.8 			"/>
		</g>
	</g>
	<path style="fill:none;" d="M0,0h24v24H0V0z"/>
</g>
</svg>
