<svg version="1.1" id="gbp" xmlns="http://www.w3.org/2000/svg" xmlns:xlink="http://www.w3.org/1999/xlink" x="0px" y="0px"
	 viewBox="0 0 24 24" style="enable-background:new 0 0 24 24;" xml:space="preserve">
<g>
	<g>
		<circle style="fill:#F0F0F0;" cx="12" cy="12" r="8.3"/>
		<g>
			<path style="fill:#0052B4;" d="M5.4,6.9C4.7,7.8,4.2,8.8,4,9.8h4.3L5.4,6.9z"/>
			<path style="fill:#0052B4;" d="M20,9.8c-0.3-1.1-0.8-2-1.4-2.9l-2.9,2.9H20z"/>
			<path style="fill:#0052B4;" d="M4,14.2c0.3,1.1,0.8,2,1.4,2.9l2.9-2.9H4L4,14.2z"/>
			<path style="fill:#0052B4;" d="M17.1,5.4c-0.9-0.7-1.8-1.1-2.9-1.4v4.3L17.1,5.4z"/>
			<path style="fill:#0052B4;" d="M6.9,18.6c0.9,0.7,1.8,1.1,2.9,1.4v-4.3L6.9,18.6z"/>
			<path style="fill:#0052B4;" d="M9.8,4c-1.1,0.3-2,0.8-2.9,1.4l2.9,2.9V4z"/>
			<path style="fill:#0052B4;" d="M14.2,20c1.1-0.3,2-0.8,2.9-1.4l-2.9-2.9L14.2,20L14.2,20z"/>
			<path style="fill:#0052B4;" d="M15.7,14.2l2.9,2.9c0.7-0.9,1.1-1.8,1.4-2.9H15.7z"/>
		</g>
		<g>
			<path style="fill:#D80027;" d="M20.3,10.9h-7.2h0V3.7c-0.4,0-0.7-0.1-1.1-0.1c-0.4,0-0.7,0-1.1,0.1v7.2v0H3.7
				c0,0.4-0.1,0.7-0.1,1.1c0,0.4,0,0.7,0.1,1.1h7.2h0v7.2c0.4,0,0.7,0.1,1.1,0.1c0.4,0,0.7,0,1.1-0.1v-7.2v0h7.2
				c0-0.4,0.1-0.7,0.1-1.1C20.3,11.6,20.3,11.3,20.3,10.9z"/>
			<path style="fill:#D80027;" d="M14.2,14.2L14.2,14.2l3.7,3.7c0.2-0.2,0.3-0.3,0.5-0.5l-3.2-3.2L14.2,14.2L14.2,14.2L14.2,14.2z"
				/>
			<path style="fill:#D80027;" d="M9.8,14.2L9.8,14.2l-3.7,3.7c0.2,0.2,0.3,0.3,0.5,0.5l3.2-3.2V14.2L9.8,14.2z"/>
			<path style="fill:#D80027;" d="M9.8,9.8L9.8,9.8L6.1,6.1C5.9,6.3,5.8,6.5,5.6,6.6l3.2,3.2L9.8,9.8L9.8,9.8z"/>
			<path style="fill:#D80027;" d="M14.2,9.8L14.2,9.8l3.7-3.7c-0.2-0.2-0.3-0.3-0.5-0.5l-3.2,3.2V9.8z"/>
		</g>
	</g>
	<g>
		<path style="fill:none;" d="M0,0h24v24H0V0z"/>
	</g>
</g>
</svg>
