<svg version="1.1" id="usd" xmlns="http://www.w3.org/2000/svg" xmlns:xlink="http://www.w3.org/1999/xlink" x="0px" y="0px"
	 viewBox="0 0 24 24" style="enable-background:new 0 0 24 24;" xml:space="preserve">
<g>
	<g>
		<g>
			<rect x="3.7" y="12.8" style="fill:#C42126;" width="16.6" height="0"/>
			<rect x="4.6" y="8.2" style="fill:#C42126;" width="14.8" height="0"/>
			<rect x="4" y="9.7" style="fill:#C42126;" width="16" height="0"/>
			<polygon style="fill:#C42126;" points="7.3,18.8 16.7,18.8 16.7,18.8 7.3,18.8 			"/>
			<path style="fill:#C42126;" d="M12,3.7c-0.2,0-0.3,0-0.5,0h1C12.3,3.7,12.2,3.7,12,3.7z"/>
			<rect x="3.7" y="11.3" style="fill:#C42126;" width="16.6" height="0"/>
		</g>
		<path style="fill:#F3F4F5;" d="M16.8,5.2h-2.7h-0.3H7.2C6.6,5.6,6,6.1,5.6,6.7h8.9h0.3h3.7C18,6.1,17.4,5.6,16.8,5.2z"/>
		<path style="fill:#E73625;" d="M12.5,3.7h-0.3h-0.7C9.9,3.8,8.4,4.3,7.2,5.2h6.6h0.3h2.7C15.6,4.3,14.1,3.8,12.5,3.7z"/>
		<path style="fill:#F3F4F5;" d="M19.4,8.2h-4.3h-0.3H4.6C4.3,8.7,4.1,9.2,4,9.7h11.1h0.3H20C19.9,9.2,19.7,8.7,19.4,8.2z"/>
		<path style="fill:#E73625;" d="M19.4,8.2c-0.3-0.5-0.6-1-1-1.5h-3.7c0,0,0,0,0,0H5.6c-0.4,0.5-0.7,1-1,1.5h10c0,0,0,0,0,0H19.4z"
			/>
		<path style="fill:#F3F4F5;" d="M20.3,11.3h-5c0,0,0,0,0,0H3.7c0,0.2,0,0.5,0,0.7c0,0.3,0,0.5,0,0.8h11.5h0.2h4.9
			c0-0.3,0-0.5,0-0.8C20.3,11.8,20.3,11.5,20.3,11.3z"/>
		<path style="fill:#E73625;" d="M20,9.7h-4.7h-0.5H4c-0.1,0.5-0.2,1-0.3,1.5H15h0.5h4.9C20.2,10.7,20.2,10.2,20,9.7z"/>
		<path style="fill:#F3F4F5;" d="M15.3,14.3C15.3,14.3,15.3,14.3,15.3,14.3L4,14.3c0.2,0.5,0.4,1,0.6,1.5h10.2c0,0,0,0,0,0h4.6
			c0.2-0.5,0.4-1,0.6-1.5H15.3z"/>
		<path style="fill:#E73625;" d="M15.4,12.8h-0.3H3.7c0,0.5,0.1,1,0.3,1.5h11h0.3H20c0.1-0.5,0.2-1,0.3-1.5H15.4z"/>
		<path style="fill:#F3F4F5;" d="M14.7,17.3h-0.2H5.6c0.5,0.6,1,1.1,1.7,1.5h6.6h0.2h2.7c0.6-0.4,1.2-0.9,1.7-1.5H14.7z"/>
		<g>
			<path style="fill:#E73625;" d="M15.1,15.8C15.1,15.8,15.1,15.8,15.1,15.8l-10.5,0c0.3,0.5,0.6,1.1,1,1.5h8.7c0,0,0,0,0,0h4.1
				c0.4-0.5,0.7-1,1-1.5H15.1z"/>
			<path style="fill:#E73625;" d="M14.1,18.8H7.3c1.3,0.9,2.8,1.4,4.4,1.5c0,0,0,0,0.1,0c0.1,0,0.2,0,0.3,0c0,0,0,0,0,0c0,0,0,0,0,0
				c1.8,0,3.4-0.6,4.7-1.5L14.1,18.8C14.1,18.8,14.1,18.8,14.1,18.8z"/>
		</g>
		<path style="fill:#283991;" d="M11.8,3.7c-4.3,0.1-7.7,3.4-8.1,7.6h8.1L11.8,3.7L11.8,3.7z"/>
		<g>
			<polygon style="fill:#EFEFEF;" points="5.3,8.4 5.5,8.8 5.9,8.8 5.5,9 5.7,9.4 5.3,9.2 5,9.4 5.1,9 4.8,8.8 5.2,8.8 			"/>
			<polygon style="fill:#EFEFEF;" points="5.3,9.8 5.5,10.2 5.9,10.2 5.5,10.4 5.7,10.8 5.3,10.6 5,10.8 5.1,10.4 4.8,10.2 
				5.2,10.2 			"/>
			<polygon style="fill:#EFEFEF;" points="6.7,6.3 6.8,6.7 7.3,6.7 6.9,7 7.1,7.3 6.7,7.1 6.4,7.3 6.5,7 6.2,6.7 6.6,6.7 			"/>
			<polygon style="fill:#EFEFEF;" points="6.7,7.7 6.8,8.1 7.3,8.1 6.9,8.3 7.1,8.7 6.7,8.5 6.4,8.7 6.5,8.3 6.2,8.1 6.6,8.1 			"/>
			<polygon style="fill:#EFEFEF;" points="6.7,9.1 6.8,9.5 7.3,9.5 6.9,9.7 7.1,10.1 6.7,9.9 6.4,10.1 6.5,9.7 6.2,9.5 6.6,9.5 			
				"/>
			<path style="fill:#EFEFEF;" d="M4.3,10.1L4.2,9.7l0.3-0.2H4.1l0,0C4,9.6,4,9.7,4,9.9l0,0L4.3,10.1z"/>
			<path style="fill:#EFEFEF;" d="M5,8l0.3-0.2L5.7,8L5.5,7.6l0.3-0.2H5.5L5.3,7L5.2,7.4H5.1C5,7.4,5,7.5,5,7.5l0.2,0.1L5,8z"/>
			<path style="fill:#EFEFEF;" d="M6.7,5.7L7.1,6L6.9,5.6l0.3-0.2H7C6.8,5.5,6.6,5.6,6.4,5.8L6.4,6L6.7,5.7z"/>
			<path style="fill:#EFEFEF;" d="M7.8,5.3L8.1,5l0.3,0.2L8.3,4.9l0.3-0.2H8.2l0-0.1C8.1,4.7,7.9,4.7,7.8,4.8l0.1,0.1L7.8,5.3z"/>
			<polygon style="fill:#EFEFEF;" points="8.1,5.6 8.2,6 8.6,6 8.3,6.3 8.4,6.7 8.1,6.4 7.8,6.7 7.9,6.3 7.6,6 8,6 			"/>
			<polygon style="fill:#EFEFEF;" points="8.1,7 8.2,7.4 8.6,7.4 8.3,7.6 8.4,8 8.1,7.8 7.8,8 7.9,7.6 7.6,7.4 8,7.4 			"/>
			<polygon style="fill:#EFEFEF;" points="8.1,8.4 8.2,8.8 8.6,8.8 8.3,9 8.4,9.4 8.1,9.2 7.8,9.4 7.9,9 7.6,8.8 8,8.8 			"/>
			<polygon style="fill:#EFEFEF;" points="8.1,9.8 8.2,10.2 8.6,10.2 8.3,10.4 8.4,10.8 8.1,10.6 7.8,10.8 7.9,10.4 7.6,10.2 
				8,10.2 			"/>
			<polygon style="fill:#EFEFEF;" points="9.5,4.9 9.6,5.3 10,5.3 9.7,5.6 9.8,6 9.5,5.7 9.1,6 9.3,5.6 8.9,5.3 9.4,5.3 			"/>
			<polygon style="fill:#EFEFEF;" points="9.5,6.3 9.6,6.7 10,6.7 9.7,7 9.8,7.3 9.5,7.1 9.1,7.3 9.3,7 8.9,6.7 9.4,6.7 			"/>
			<polygon style="fill:#EFEFEF;" points="9.5,7.7 9.6,8.1 10,8.1 9.7,8.3 9.8,8.7 9.5,8.5 9.1,8.7 9.3,8.3 8.9,8.1 9.4,8.1 			"/>
			<polygon style="fill:#EFEFEF;" points="9.5,9.1 9.6,9.5 10,9.5 9.7,9.7 9.8,10.1 9.5,9.9 9.1,10.1 9.3,9.7 8.9,9.5 9.4,9.5 			
				"/>
			<polygon style="fill:#EFEFEF;" points="10.9,4.3 11,4.6 11.4,4.6 11.1,4.9 11.2,5.3 10.9,5 10.5,5.3 10.7,4.9 10.3,4.6 10.7,4.6 
							"/>
			<polygon style="fill:#EFEFEF;" points="10.9,5.6 11,6 11.4,6 11.1,6.3 11.2,6.7 10.9,6.4 10.5,6.7 10.7,6.3 10.3,6 10.7,6 			"/>
			<polygon style="fill:#EFEFEF;" points="10.9,7 11,7.4 11.4,7.4 11.1,7.6 11.2,8 10.9,7.8 10.5,8 10.7,7.6 10.3,7.4 10.7,7.4 			
				"/>
			<polygon style="fill:#EFEFEF;" points="10.9,8.4 11,8.8 11.4,8.8 11.1,9 11.2,9.4 10.9,9.2 10.5,9.4 10.7,9 10.3,8.8 10.7,8.8 
							"/>
			<polygon style="fill:#EFEFEF;" points="10.9,9.8 11,10.2 11.4,10.2 11.1,10.4 11.2,10.8 10.9,10.6 10.5,10.8 10.7,10.4 
				10.3,10.2 10.7,10.2 			"/>
		</g>
	</g>
	<path style="fill:none;" d="M0,0h24v24H0V0z"/>
</g>
</svg>
