<svg >
    <symbol version="1.1" id="team-logo" xmlns="http://www.w3.org/2000/svg" xmlns:xlink="http://www.w3.org/1999/xlink" x="0px" y="0px"
        viewBox="0 0 115.6 138.5" style="enable-background:new 0 0 115.6 138.5;" xml:space="preserve">
    <g id="_x34_Team_animated_logo">
        <path style="fill:#8CB9E3;" d="M58.6,115.6h57V70.4l-47.3,7.4L58.6,115.6z"/>
        <polygon style="fill:#54B848;" points="62.4,65.9 69,19.4 22.7,65.9 	"/>
        <polygon style="fill:#54B848;" points="0,0 0,65.9 71.8,0 	"/>
        <polygon style="fill:#FFD939;" points="88.4,0 71.4,65.9 115.6,65.9 115.6,0 	"/>
        <polygon style="fill:#EF6C4B;" points="55.4,115.6 60.5,79.1 0,88.6 0,115.6 	"/>
        <g>
            <path style="fill:#7F7F7F;" d="M9.4,124.7h0.8v7.7h1.5v1.7h-1.5v4.5H8.3V134H2.5v-0.8L9.4,124.7z M8.3,132.4v-4l-3.2,4H8.3z"/>
            <path style="fill:#7F7F7F;" d="M25.6,124.9H37v1.7h-4.8v11.9h-2v-11.9h-4.7V124.9z"/>
            <path style="fill:#7F7F7F;" d="M51.9,124.9h7.7v1.7h-5.8v4.2h5.6v1.7h-5.6v4.2h6v1.7h-7.9V124.9z"/>
            <path style="fill:#7F7F7F;" d="M79.2,124.8h1.4l6.1,13.7h-2l-1.8-4h-5.8l-1.7,4h-2L79.2,124.8z M82.1,132.8l-2.2-4.9l-2,4.9H82.1z
                "/>
            <path style="fill:#7F7F7F;" d="M112.1,124.9h1.8v13.7h-2v-10.6l-4.2,5.3h-0.4l-4.2-5.3v10.6h-2v-13.7h1.8l4.5,5.6L112.1,124.9z"/>
        </g>
    </g>
    </symbol>

    <symbol version="1.1" id="microsoft-gold" xmlns="http://www.w3.org/2000/svg" xmlns:xlink="http://www.w3.org/1999/xlink" x="0px" y="0px"
        viewBox="0 0 150.3 67.8" style="enable-background:new 0 0 150.3 67.8;" xml:space="preserve">
    <path id="Badge_2" style="fill:#CCCDCD;" d="M31.4,0c-1.4,6.3-2.8,12.6-4.2,19c-0.3,1.5-0.7,3-1,4.5c0,0.2-0.1,0.3-0.3,0.3
        c-2.1,0-4.3,0-6.4,0c0,0-0.1,0-0.2,0c0.9-4.2,1.8-8.4,2.8-12.5c0,0,0,0,0,0c-0.1,0.1-0.1,0.2-0.2,0.3c-2,4-4,8-6,11.9
        c-0.1,0.2-0.2,0.3-0.5,0.3c-1.4,0-2.7,0-4.1,0c-0.1,0-0.2,0-0.4,0c-0.1-4.2-0.2-8.3-0.3-12.5c0,0,0,0,0,0c-0.1,0.2-0.1,0.5-0.2,0.7
        c-0.9,3.8-1.9,7.6-2.8,11.4c-0.1,0.3-0.2,0.4-0.4,0.4c-2,0-4.1,0-6.1,0c-0.1,0-0.2,0-0.4,0c0.1-0.4,0.2-0.8,0.2-1.2
        c1.5-6.7,3-13.4,4.4-20.1C5.4,1.6,5.6,0.8,5.8,0c3.1,0,6.3,0,9.4,0c0,0,0,0.1,0,0.1c0.1,2.4,0.2,4.7,0.2,7.1
        c0.1,1.8,0.1,3.7,0.2,5.5c0,0.1,0,0.2,0.1,0.4c2.1-4.4,4.2-8.8,6.3-13.1C25.1,0,28.2,0,31.4,0z M0.4,39.5c0,0.1,0.1,0.2,0.1,0.3
        c0.1,1,0.3,1.9,0.8,2.8c1.4,2.7,5.4,3.2,7.2,1c0.1-0.1,0.1-0.1,0.2-0.2c0,0.1,0.1,0.1,0.1,0.1C8.8,43.7,8.9,43.8,9,44
        c0.3,0.8,0.2,0.8,1.1,0.8c0.2,0,0.3-0.1,0.3-0.3c0-1.9,0-3.9,0-5.8c0-0.2-0.1-0.3-0.3-0.3c-1.4,0-2.8,0-4.2,0
        c-0.2,0-0.3,0.1-0.3,0.3c0,0.5,0,1,0,1.6c0,0.2,0.1,0.3,0.3,0.3c0.5,0,1,0,1.5,0c0.4,0,0.5,0.1,0.4,0.5c-0.2,1.3-1.4,1.9-2.6,1.6
        c-1-0.3-1.4-1-1.6-1.9c-0.3-1.1-0.3-2.2-0.1-3.3c0.1-0.6,0.3-1.3,0.7-1.8c0.6-0.9,1.9-1.1,2.8-0.5c0.6,0.4,0.8,0.9,0.9,1.6
        c0,0.1,0.2,0.3,0.2,0.3c0.7-0.1,1.5-0.2,2.2-0.3c0.1,0,0.2-0.2,0.1-0.2c-0.3-1.2-0.8-2.3-1.8-3.1c-1-0.7-2-0.8-3.2-0.8
        c-1,0-1.8,0.3-2.6,0.9c-1.3,1-1.9,2.3-2.1,3.9c-0.1,0.3-0.1,0.6-0.2,1C0.4,38.7,0.4,39.1,0.4,39.5z M33,0c-0.3,1.3-0.6,2.6-0.9,3.9
        c2.1,0,4.2,0,6.4,0c0.1-0.5,0.2-1,0.4-1.6C39,1.5,39.2,0.8,39.3,0C37.2,0,35.1,0,33,0z M150.3,7.7c0-0.1,0-0.2-0.1-0.3
        c-0.3-1.1-1.3-1.7-2.4-1.4c-1,0.3-1.6,1.3-1.4,2.4c0.3,1.1,1.4,1.7,2.4,1.3c0.8-0.3,1.2-0.9,1.4-1.7C150.3,7.9,150.3,7.8,150.3,7.7z
        M148.3,6.2c0.9,0,1.6,0.7,1.6,1.6c0,0.9-0.7,1.6-1.6,1.6c-0.9,0-1.6-0.7-1.6-1.6C146.7,7,147.4,6.2,148.3,6.2z M54,23.7
        c0.1,0,0.1,0,0.1,0c1.9,0,3.9,0,5.8,0c0.2,0,0.2-0.1,0.3-0.3c0.3-1.1,0.5-2.3,0.8-3.4c0.4-1.6,0.8-3.1,1.3-4.7
        c0.5-1.6,1.6-2.8,3.1-3.6c0.5-0.2,1-0.3,1.5-0.3c-0.1,0.1-0.1,0.2-0.1,0.3c-0.9,1.9-1.3,3.9-1,6c0.5,2.9,2.3,5.4,5.7,6.1
        c1.4,0.3,2.8,0.3,4.2,0.1c3.2-0.5,5.7-1.9,7.6-4.5c0.2-0.3,0.4-0.5,0.6-0.9c0,0.1,0,0.2,0,0.3c0,0.9,0.3,1.8,0.8,2.5
        c0.7,1,1.8,1.6,3,2.1c1.6,0.6,3.4,0.7,5.1,0.7c1.5,0,3-0.1,4.4-0.5c2.3-0.6,4.1-1.9,5-4.1c0.8-1.7,0.8-3.4-0.3-5
        c-0.7-1.1-1.8-1.7-3.1-2c-1.1-0.3-2.1-0.4-3.2-0.7c-0.7-0.2-1.5-0.3-2.1-0.7c-0.8-0.5-0.7-1.4,0.1-1.9c0.7-0.4,1.5-0.5,2.3-0.3
        c1,0.2,1.4,0.9,1.4,1.9c0,0.1,0,0.2,0,0.4c2,0,3.9,0,5.9,0c0.1,0,0.2-0.1,0.2-0.2c0.2-1.4,0-2.7-1.1-3.8c-0.7-0.7-1.5-1.1-2.5-1.3
        c-2.5-0.7-4.9-0.7-7.4-0.3c-1.4,0.2-2.8,0.8-3.9,1.8c-1.4,1.3-2.1,2.8-1.7,4.7c0.3,1.5,1.2,2.4,2.5,3.1c1.5,0.8,3.1,1.2,4.7,1.5
        c0.7,0.1,1.3,0.3,1.7,0.8c0.5,0.5,0.5,1.1,0.1,1.7c-0.2,0.4-0.6,0.6-1,0.8c-1,0.3-1.9,0.3-2.9,0c-0.8-0.3-1.2-0.9-1.2-1.7
        c0-0.2,0-0.4,0-0.7c-3.8,0-7.7,0-11.5,0c0-0.1,0.1-0.1,0.1-0.1c1.7-0.6,3.4-1.2,5-1.8c0.4-0.1,0.7-0.4,0.8-0.8
        c0.1-0.7,0.2-1.4,0.2-2c0-3.3-1.6-5.7-4.6-6.8c-1.7-0.7-3.6-0.8-5.4-0.6c-2,0.3-3.9,1-5.5,2.4c-0.6,0.5-1.2,1.1-1.8,1.7
        c0.3-1.2,0.7-2.5,1-3.8c-2.2,0.1-4.3,0.6-5.9,2.4c0.2-0.7,0.3-1.4,0.5-2.1c-1.9,0-3.8,0-5.8,0C56.7,12,55.4,17.8,54,23.7z M75,10.3
        c0.5-0.5,1-0.8,1.7-0.8c1.1-0.1,2,0.5,2.3,1.7c0.3,1.2,0.2,2.4-0.1,3.6c-0.4,1.7-1.2,3.2-2.6,4.4c-0.5,0.4-1,0.6-1.7,0.7
        c-1.2,0.1-2.2-0.7-2.4-2c-0.1-0.4-0.1-0.8-0.1-1.1C72.2,14.1,73.2,12,75,10.3z M135.5,10.2c0,0.1,0,0.2,0,0.3
        c-0.6,2.6-1.1,5.1-1.7,7.7c-0.2,0.9-0.4,1.7-0.3,2.6c0.1,0.7,0.3,1.4,0.8,1.9c0.6,0.6,1.4,0.8,2.2,1c1.6,0.3,3.2,0.1,4.9,0
        c0.2,0,0.2-0.1,0.3-0.3c0.3-1.1,0.5-2.2,0.8-3.3c0-0.1,0-0.3,0.1-0.5c-0.7,0-1.3,0-1.9,0c-0.8-0.1-1-0.4-0.9-1.2c0,0,0-0.1,0-0.1
        c0.4-1.9,0.8-3.8,1.2-5.7c0.2-0.8,0.3-1.6,0.5-2.4c1,0,2,0,3,0c0.3-1.4,0.6-2.7,0.9-4.1c-1,0-2,0-3,0c0.3-1.4,0.6-2.8,0.9-4.2
        c-2,0-3.9,0-5.8,0c-0.3,1.4-0.6,2.8-0.9,4.2c-1.2,0-2.4,0-3.7,0c0.1-0.7,0.2-1.4,0.6-1.9c0.5-0.6,1.2-0.5,1.9-0.6
        c0.2-1.1,0.4-2.2,0.7-3.3c-0.1,0-0.1,0-0.2-0.1c-1.6-0.2-3.2-0.2-4.8,0.1c-1.1,0.2-2,0.6-2.7,1.5c-0.6,0.8-1,1.7-1.3,2.6
        c-0.1,0.5-0.3,1-0.4,1.6c-0.9,0-1.9,0-2.8,0c-0.2,0-0.3,0.1-0.4,0.3c-0.1,0.7-0.3,1.3-0.4,1.9c-0.1,0.3-0.1,0.6-0.2,0.9
        c-0.1,0.3-0.1,0.6-0.2,0.9c0-0.1-0.1-0.1-0.1-0.1c0-0.1-0.1-0.2-0.1-0.2c-0.6-1.4-1.6-2.5-2.9-3.3c-1.6-0.9-3.4-1.2-5.3-1.1
        c-4,0.2-7.1,2-9.2,5.4c-1.4,2.3-2.1,4.9-1.5,7.6c0.5,2.5,2,4.3,4.4,5.2c2.1,0.7,4.2,1,6.4,0.4c4-1,6.8-3.4,8.1-7.4
        c0.5-1.4,0.8-2.9,0.6-4.4c-0.1-0.7-0.3-1.3-0.4-2c1,0,2.1,0,3.1,0c-1,4.5-2,8.9-3,13.4c2.1,0,4.2,0,6.3,0c1-4.5,2-8.9,3-13.4
        C133.2,10.2,134.4,10.2,135.5,10.2z M114.1,19c-0.7,0.7-1.6,1-2.6,0.8c-0.7-0.2-1.2-0.6-1.5-1.2c-0.3-0.8-0.4-1.7-0.2-2.6
        c0.3-2.1,1.1-3.9,2.5-5.4c0.5-0.5,1.1-0.9,1.8-1c1.1-0.2,2,0.3,2.4,1.3c0.2,0.6,0.3,1.3,0.4,1.7C116.8,15.2,115.9,17.3,114.1,19z
        M54.6,17.2c-2.1,0-4.1,0-6.2,0c-0.2,0-0.3,0.1-0.3,0.2c-0.4,0.8-1,1.5-1.8,2c-0.8,0.5-1.8,0.4-2.4-0.1c-0.7-0.6-0.9-1.4-0.9-2.2
        c0-2.2,0.7-4.2,2.2-5.9c0.5-0.6,1-1,1.7-1.2c1.3-0.4,2.2,0.1,2.4,1.5c0,0.1,0,0.2,0,0.3c0,0.3,0,0.6,0,1c2.2,0,4.3,0,6.5,0
        c0-0.1,0-0.2,0-0.2c0.2-2.8-1.3-5-3.8-6.1c-2-0.8-4.1-0.9-6.3-0.5c-6,1-9.7,6.8-9,12.2c0.4,3,2.4,5.2,5.3,5.9c1.6,0.4,3.2,0.3,4.9,0
        c2.6-0.5,4.7-1.7,6.4-3.7c0.7-0.9,1.2-1.9,1.6-3C54.7,17.2,54.7,17.2,54.6,17.2z M34.1,23.6c1.3-5.8,2.6-11.7,3.9-17.5
        c-2.1,0-4.3,0-6.4,0c-1.3,5.8-2.6,11.7-3.9,17.5C29.9,23.6,32,23.6,34.1,23.6z M87.9,44.3c-0.6-1.5-1.3-3-1.9-4.5
        c-0.1-0.2-0.1-0.4,0.2-0.5c0.2-0.1,0.4-0.2,0.6-0.3c1-0.8,1.3-1.8,1.2-3c-0.1-1.6-1.1-2.8-2.7-3.1c-0.5-0.1-0.9-0.1-1.4-0.2
        c-1.7,0-3.5,0-5.2,0c-0.3,0-0.3,0.1-0.3,0.3c0,3.8,0,7.6,0,11.3c0,0.3,0.1,0.4,0.3,0.4c0.7,0,1.4,0,2.1,0c0.3,0,0.4-0.1,0.4-0.4
        c0-1.3,0-2.7,0-4c0-0.1,0-0.3,0-0.4c0.6,0,1.2,0,1.7,0c0.3,0,0.4,0.1,0.5,0.3c0.5,1.4,1.1,2.8,1.6,4.1c0.1,0.2,0.2,0.3,0.4,0.3
        c0.6,0,1.2,0,1.9,0c0.3,0,0.5,0,0.8,0C88,44.6,87.9,44.4,87.9,44.3z M81.1,36.5c0-0.5,0-1,0-1.4c0-0.1,0.1-0.2,0.2-0.2
        c0.9,0,1.8,0,2.6,0c0.8,0.1,1.2,0.7,1.2,1.6c0,0.7-0.5,1.4-1.2,1.5c-0.9,0.1-1.8,0-2.7,0C81.1,37.5,81.1,37,81.1,36.5z M135.9,44.4
        c0,0.2,0,0.4,0.3,0.4c1.5,0,3,0,4.5-0.1c1.6-0.1,2.9-0.8,3.9-2.1c1.2-1.7,1.4-3.6,0.9-5.5c-0.3-1.5-1.2-2.8-2.5-3.6
        c-1-0.6-2.1-0.6-3.2-0.7c-1.2,0-2.4,0-3.5,0c-0.3,0-0.4,0.1-0.4,0.4c0,1.9,0,3.7,0,5.6C135.9,40.6,135.9,42.5,135.9,44.4z
        M138.6,35.3c0-0.3,0.1-0.4,0.4-0.4c0.5,0,1,0,1.6,0.1c0.6,0.1,1.1,0.4,1.5,0.9c0.8,1,1,2.2,0.8,3.5c-0.1,0.8-0.3,1.5-0.8,2.2
        c-0.5,0.6-1.1,1-1.8,1c-0.4,0-0.8,0-1.2,0.1c-0.3,0-0.4-0.1-0.4-0.4c0-1.2,0-2.3,0-3.5C138.6,37.6,138.6,36.4,138.6,35.3z
        M36.3,44.4c0,0.3,0.1,0.4,0.3,0.4c1.5,0,3,0,4.5-0.1c1.4-0.1,2.6-0.6,3.5-1.7c1.5-1.8,1.8-3.9,1.3-6.1c-0.4-1.7-1.3-3-2.9-3.7
        c-0.9-0.4-1.8-0.5-2.8-0.5c-1.2,0-2.3,0-3.5,0c-0.3,0-0.4,0.1-0.4,0.4c0,1.9,0,3.7,0,5.6C36.4,40.6,36.4,42.5,36.3,44.4z M39,35.3
        c0-0.3,0.1-0.4,0.4-0.4c0.5,0,1,0,1.5,0.1c0.7,0.1,1.2,0.5,1.6,1c0.6,0.9,0.9,2,0.8,3.1c-0.1,0.8-0.3,1.6-0.8,2.3
        c-0.5,0.7-1.1,1.1-1.9,1.1c-0.4,0-0.8,0-1.2,0.1c-0.3,0-0.4-0.1-0.4-0.4c0-1.2,0-2.3,0-3.5C39,37.6,39.1,36.4,39,35.3z M13.7,35.6
        c-0.8,2-0.8,4.1,0,6.2c0.4,1,1,1.9,2,2.5c1.2,0.7,2.5,0.8,3.8,0.5c1.2-0.2,2.1-0.9,2.8-1.9c0.8-1.4,1.2-2.9,1.1-4.5
        c0-0.9-0.2-1.7-0.5-2.5c-0.8-2.1-2.2-3.4-4.6-3.4C15.8,32.5,14.4,33.8,13.7,35.6z M16.4,36.2c0.4-1.1,1.2-1.5,2.3-1.3
        c0.7,0.1,1.1,0.5,1.3,1.1c0.2,0.5,0.3,1,0.4,1.5c0.2,1.2,0.1,2.4-0.2,3.6c-0.1,0.5-0.3,0.9-0.7,1.3c-0.9,0.8-2.2,0.6-2.8-0.4
        c-0.4-0.6-0.5-1.2-0.6-1.9C16,39.6,16,39.2,15.9,39C16,37.9,16,37,16.4,36.2z M67,44.4c0,0.2,0,0.4,0.3,0.4c2.7,0,5.3,0,8,0
        c0.2,0,0.3-0.1,0.3-0.3c0-0.5,0-1,0-1.6c0-0.4,0-0.4-0.4-0.4c-1.6,0-3.3,0-4.9,0c-0.3,0-0.4-0.1-0.4-0.4c0-0.6,0-1.3,0-1.9
        c0-0.3,0.1-0.4,0.4-0.4c1.3,0,2.5,0,3.8,0c0.3,0,0.4-0.1,0.4-0.4c0-0.5,0-1,0-1.4c0-0.3-0.1-0.4-0.4-0.4c-1.2,0-2.5,0-3.7,0
        c-0.4,0-0.4,0-0.4-0.4c0-0.6,0-1.2,0-1.7c0-0.4,0-0.4,0.4-0.4c1.6,0,3.3,0,4.9,0c0.4,0,0.4,0,0.4-0.4c0-0.5,0-0.9,0-1.4
        c0-0.3-0.1-0.4-0.4-0.4c-2.6,0-5.2,0-7.8,0c-0.3,0-0.4,0.1-0.4,0.4c0,1.9,0,3.7,0,5.6C67,40.6,67,42.5,67,44.4z M124.6,44.4
        c0,0.2,0,0.4,0.3,0.4c2.7,0,5.3,0,8,0c0.2,0,0.3-0.1,0.3-0.3c0-0.5,0-1,0-1.6c0-0.4,0-0.4-0.4-0.4c-1.6,0-3.2,0-4.8,0
        c-0.5,0-0.5,0-0.5-0.5c0-0.6,0-1.3,0-1.9c0-0.3,0.1-0.4,0.4-0.3c1.3,0,2.5,0,3.8,0c0.3,0,0.4-0.1,0.4-0.4c0-0.5,0-0.9,0-1.4
        c0-0.3-0.1-0.4-0.4-0.4c-1.3,0-2.5,0-3.8,0c-0.3,0-0.4-0.1-0.4-0.4c0-0.6,0-1.2,0-1.8c0-0.4,0-0.4,0.4-0.4c1.6,0,3.3,0,4.9,0
        c0.3,0,0.4-0.1,0.4-0.4c0-0.5,0-1,0-1.5c0-0.3-0.1-0.4-0.4-0.4c-2.6,0-5.2,0-7.8,0c-0.3,0-0.4,0.1-0.4,0.4c0,1.9,0,3.7,0,5.6
        C124.6,40.6,124.6,42.5,124.6,44.4z M63.6,37.2c0.6,0,0.6-0.1,0.6-0.7c-0.2-1.1-0.6-2.1-1.5-2.9c-1.2-1-2.6-1.1-4-1
        c-2,0.2-3.3,1.3-4,3.1c-0.6,1.5-0.7,3.1-0.4,4.7c0.2,1.3,0.8,2.4,1.8,3.3c1.4,1.2,3,1.4,4.8,1.1c1.8-0.4,3.2-1.8,3.5-3.9
        c0-0.2,0-0.3-0.2-0.3c-0.7,0-1.3-0.1-2-0.1c-0.3,0-0.4,0.1-0.5,0.4c-0.1,0.3-0.2,0.7-0.4,1c-0.3,0.5-0.7,0.8-1.2,0.9
        c-1.3,0.2-2.2-0.3-2.5-1.5c-0.3-1-0.4-2.1-0.2-3.1c0.1-0.7,0.2-1.4,0.4-2c0.2-0.6,0.7-1.1,1.3-1.2c1.2-0.2,2.1,0.4,2.4,1.5
        c0.1,0.3,0.1,0.6,0.2,1C62.2,37.3,62.9,37.3,63.6,37.2z M1.1,51.7c-0.1,0-0.2,0-0.4,0c-0.1,0-0.2,0.1-0.2,0.2c0,0.1,0.1,0.2,0.1,0.2
        c0.1,0,0.2,0,0.3,0c48.1,0,96.2,0,144.3,0c0.1,0,0.2,0,0.2,0c0.1,0,0.1-0.1,0.2-0.2c-0.1-0.1-0.1-0.2-0.2-0.2c-0.1,0-0.2,0-0.3,0
        c-24,0-48.1,0-72.1,0C49.2,51.7,25.1,51.7,1.1,51.7z M145.9,52.6c0.1-0.1,0.2-0.2,0.3-0.3l0.3-0.5l-0.4-0.4
        c-0.1-0.1-0.2-0.2-0.4-0.3c-0.2-0.1-0.3,0-0.5,0L1,51.1c-0.1,0-0.3,0-0.4,0C0.3,51.2,0,51.5,0,51.8c0,0.4,0.3,0.7,0.5,0.8
        c0.2,0.1,0.4,0.1,0.5,0.1l144.3,0c0,0,0.1,0,0.1,0C145.6,52.7,145.7,52.7,145.9,52.6z M110.6,40.1c1.2,0,2.4,0,3.7,0
        c0.3,0,0.4-0.1,0.4-0.3c0-0.5,0-1,0-1.5c0-0.3-0.1-0.4-0.4-0.4c-1.2,0-2.5,0-3.7,0c-0.3,0-0.4-0.1-0.4-0.4c0-0.7,0-1.4,0-2
        c0-0.5,0-0.5,0.5-0.5c1.6,0,3.2,0,4.8,0c0.3,0,0.4-0.1,0.4-0.4c0-0.5,0-1.1,0-1.6c0-0.2-0.1-0.3-0.3-0.3c-2.6,0-5.3,0-7.9,0
        c-0.2,0-0.3,0.1-0.3,0.3c0,3.8,0,7.6,0,11.4c0,0.2,0.1,0.3,0.3,0.3c0.8,0,1.5,0,2.3,0c0.3,0,0.3-0.1,0.3-0.3c0-1.3,0-2.6,0-3.9
        c0-0.1,0-0.3,0-0.4C110.4,40.1,110.5,40.1,110.6,40.1z M95.8,35.4c0-0.3,0.1-0.4,0.4-0.4c0.8,0,1.5,0,2.3,0c0.3,0,0.4-0.1,0.4-0.4
        c0-0.5,0-1.1,0-1.6c0-0.2-0.1-0.3-0.3-0.3c-2.7,0-5.4,0-8.1,0c-0.2,0-0.3,0.1-0.3,0.3c0,0.5,0,1.1,0,1.6c0,0.3,0.1,0.4,0.4,0.4
        c0.8,0,1.5,0,2.3,0c0.3,0,0.4,0.1,0.4,0.4c0,0.1,0,0.2,0,0.3c0,2.9,0,5.8,0,8.6c0,0.3,0.1,0.4,0.4,0.4c0.7,0,1.3,0,2,0
        c0.3,0,0.4-0.1,0.4-0.4c0-1.5,0-3,0-4.5C95.8,38.4,95.8,36.9,95.8,35.4z M26.2,44.4c0,0.3,0.1,0.4,0.3,0.4c2.3,0,4.6,0,6.9,0
        c0.3,0,0.4-0.1,0.4-0.3c0-0.5,0-1.1,0-1.6c0-0.3-0.1-0.4-0.4-0.4c-1.3,0-2.6,0-3.9,0c-0.5,0-0.5,0-0.5-0.5c0-3,0-5.9,0-8.9
        c0-0.3-0.1-0.4-0.4-0.4c-0.7,0-1.4,0-2,0c-0.3,0-0.4,0.1-0.4,0.4c0,1.9,0,3.7,0,5.6C26.2,40.6,26.2,42.5,26.2,44.4z M118.4,44.4
        c0,0.3,0.1,0.3,0.3,0.3c0.7,0,1.4,0,2.1,0c0.2,0,0.3-0.1,0.3-0.3c0-3.8,0-7.6,0-11.4c0-0.2-0.1-0.3-0.3-0.3c-0.7,0-1.4,0-2.1,0
        c-0.3,0-0.4,0.1-0.4,0.4c0,1.9,0,3.7,0,5.6C118.4,40.6,118.4,42.5,118.4,44.4z M101.1,44.4c0,0.2,0,0.4,0.3,0.4c0.7,0,1.4,0,2.2,0
        c0.2,0,0.3-0.1,0.3-0.3c0-3.8,0-7.6,0-11.4c0-0.2-0.1-0.3-0.3-0.3c-0.7,0-1.4,0-2.1,0c-0.3,0-0.4,0.1-0.4,0.4c0,1.9,0,3.7,0,5.6
        C101.1,40.6,101.1,42.5,101.1,44.4z M50.8,67.5c0.3,0,0.3-0.1,0.4-0.3c0.2-1.2,0.4-2.3,0.6-3.5c0-0.3,0.2-0.4,0.5-0.4c1,0,2,0,3-0.1
        c1.9-0.2,3.1-1.8,2.9-3.7c-0.2-1.1-1-2.1-2.1-2.2c-1.4-0.1-2.7-0.1-4.1-0.1c-0.1,0-0.2,0.1-0.2,0.2c-0.1,0.6-0.2,1.3-0.3,1.9
        c-0.3,2-0.7,4.1-1,6.1c-0.1,0.7-0.2,1.3-0.3,2C50.2,67.5,50.5,67.5,50.8,67.5z M52.2,60.8c0.1-0.8,0.2-1.5,0.4-2.2
        c0-0.1,0.2-0.3,0.2-0.3c0.9,0,1.8,0,2.6,0.1c0.8,0.1,1.3,0.8,1.3,1.7c0.1,1.4-0.8,2.3-2.1,2.4c-0.9,0-1.8,0-2.7,0
        C52.1,61.8,52.1,61.3,52.2,60.8z M63.2,66.3c0,0.1,0,0.2,0,0.3c-0.2,0.9-0.1,1,0.8,1c0.2,0,0.3,0,0.3-0.3c0-0.2,0-0.4,0-0.6
        c0.2-1.5,0.4-3,0.7-4.4c0.1-0.8-0.1-1.5-0.8-1.9c-1.2-0.8-3.3-0.8-4.5,0.1c-0.3,0.3-0.6,0.6-1,1c0.4,0.2,0.6,0.3,0.9,0.4
        c0.2,0.1,0.3,0,0.3-0.1c0.5-0.9,1.4-1.2,2.4-1.1c0.9,0.1,1.4,0.5,1.6,1.4c0,0.2,0,0.4,0,0.6c0,0.3-0.1,0.3-0.4,0.3c-0.7,0-1.4,0-2,0
        c-0.9,0-1.7,0.2-2.4,0.7c-0.8,0.6-1.2,1.4-1,2.4c0.2,0.9,0.8,1.5,1.7,1.7c1,0.2,2,0,2.8-0.8c0.2-0.2,0.5-0.5,0.7-0.8
        C63.1,66.2,63.2,66.2,63.2,66.3z M63.3,63.7c0.2,0,0.2,0,0.2,0.2c-0.3,1.5-1.4,2.7-2.6,2.9c-0.7,0.1-1.4-0.1-1.7-0.7
        c-0.3-0.6-0.1-1.4,0.5-1.9c0.6-0.4,1.2-0.5,1.9-0.6c0.3,0,0.5,0,0.8,0C62.7,63.7,63,63.7,63.3,63.7z M89.4,66
        c-0.6,0.8-1.4,1-2.4,0.8c-0.9-0.2-1.6-1.1-1.6-2.1c0-1.1-0.1-0.9,0.9-0.9c1.5,0,3,0,4.4,0c0.3,0,0.4-0.1,0.4-0.4c0-0.3,0-0.5,0-0.8
        c-0.1-1.1-0.5-2-1.5-2.6c-1.4-0.8-3.4-0.3-4.4,1c-0.7,0.9-1,1.8-1,2.9c-0.1,1,0.1,2,0.8,2.7c1,1.1,2.2,1.2,3.5,0.8
        c1-0.2,1.6-0.9,2.1-1.8c-0.3-0.2-0.6-0.3-0.9-0.4C89.7,65.6,89.5,65.8,89.4,66z M88,60.5c1.2-0.1,2.2,0.8,2.1,2.2
        c0,0.1-0.1,0.2-0.2,0.2c-1.4,0-2.8,0-4.2,0C85.6,61.8,86.8,60.6,88,60.5z M76.8,67.5c0.2,0,0.3-0.1,0.3-0.2c0.1-0.7,0.2-1.5,0.4-2.2
        c0.2-1,0.3-2,0.8-3c0.4-0.7,0.8-1.3,1.6-1.5c1.3-0.3,2.1,0.5,2,1.7c-0.2,1.5-0.5,3-0.7,4.5c-0.1,0.7-0.1,0.7,0.6,0.7
        c0.2,0,0.3,0,0.4-0.3c0.2-1.6,0.5-3.3,0.8-4.9c0.3-1.6-1-2.9-2.8-2.5c-0.8,0.2-1.3,0.7-1.8,1.3c-0.1,0.1-0.2,0.3-0.3,0.4
        c0,0-0.1,0-0.1,0c0.1-0.5,0.2-1,0.2-1.5c-0.2,0-0.4,0-0.6,0c-0.3,0-0.4,0.1-0.4,0.4c-0.3,1.8-0.6,3.5-0.9,5.3
        c-0.1,0.6-0.2,1.3-0.3,1.9C76.4,67.5,76.6,67.5,76.8,67.5z M74.2,66.8c-0.7,0.1-1.2-0.4-1.1-1.1c0.3-1.5,0.5-3.1,0.8-4.6
        c0-0.2,0.1-0.3,0.3-0.3c0.4,0,0.8,0,1.2,0c0.1,0,0.2-0.1,0.3-0.1c0.1-0.2,0.1-0.5,0.1-0.7c-0.6,0-1.1,0-1.7,0
        c0.1-0.7,0.2-1.3,0.3-1.9c-0.3,0-0.5,0-0.8,0c-0.2,0-0.3,0.1-0.3,0.3c0,0.4-0.1,0.8-0.2,1.2c0,0.3-0.1,0.4-0.4,0.4
        c-0.2,0-0.4,0-0.6,0c-0.1,0-0.2,0.1-0.2,0.1c-0.1,0.2-0.1,0.4-0.1,0.7c0.4,0,0.8,0,1.1,0c0,0.1,0,0.1,0,0.2
        c-0.1,0.8-0.3,1.6-0.4,2.5c-0.1,0.9-0.3,1.9-0.3,2.8c0,0.6,0.3,1.1,0.9,1.2c0.3,0.1,0.6,0.2,0.9,0.2c1.1,0.1,1.2,0,1.3-0.8
        c0,0,0,0,0-0.1C74.8,66.8,74.5,66.8,74.2,66.8z M67,67.5c0.2,0,0.3-0.1,0.4-0.3c0.1-0.6,0.2-1.1,0.3-1.7c0.2-1.1,0.4-2.2,0.9-3.1
        c0.4-0.8,1-1.4,1.9-1.5c0.2,0,0.5,0,0.6-0.1c0.1-0.1,0.1-0.4,0.2-0.7c0,0,0,0,0,0c0-0.2,0-0.3-0.3-0.3c-0.5,0-1.1,0.1-1.4,0.5
        c-0.4,0.4-0.7,0.9-1.1,1.3c-0.1,0.1-0.1,0.2-0.2,0.3c0,0,0,0-0.1,0c0.1-0.5,0.2-1,0.3-1.6c0-0.2,0-0.3-0.2-0.3c-0.2,0-0.4,0-0.6,0
        c-0.2,0-0.3,0.1-0.3,0.3c-0.3,1.8-0.6,3.6-0.9,5.3c-0.1,0.6-0.2,1.3-0.3,2C66.5,67.5,66.7,67.5,67,67.5z M95.4,60.3
        c-0.4,0.4-0.7,0.9-1.1,1.3c-0.1,0.1-0.1,0.1-0.2,0.2c0-0.4,0-0.8,0.1-1.1c0.2-0.9,0.3-0.8-0.6-0.8c-0.2,0-0.3,0.1-0.4,0.3
        c-0.4,2.3-0.8,4.6-1.2,7c0,0.2,0,0.3,0.3,0.3c0.2,0,0.3,0,0.5,0c0.2,0,0.3-0.1,0.3-0.3c0.1-0.8,0.3-1.6,0.4-2.4
        c0.2-1.1,0.5-2.2,1.2-3.1c0.4-0.5,0.9-0.8,1.5-0.9c0.2,0,0.5,0,0.6-0.1c0.1-0.1,0.1-0.4,0.2-0.6c0-0.1,0-0.2,0-0.4
        C96.4,59.7,95.8,59.8,95.4,60.3z M147.8,8.6c0-0.1,0.1-0.3,0.1-0.4c0-0.1,0.1-0.2,0.2-0.2c0.1,0,0.2,0.1,0.3,0.2
        c0.1,0.1,0.1,0.3,0.2,0.5c0.1,0.2,0.2,0.3,0.4,0.2c-0.1-0.1-0.1-0.3-0.2-0.4c-0.1-0.1-0.1-0.3-0.2-0.4c0.1-0.1,0.2-0.1,0.3-0.1
        c0.4-0.2,0.4-0.9,0-1c-0.3-0.1-0.7-0.1-1,0c0,0-0.1,0.1-0.1,0.2c-0.1,0.6-0.3,1.2-0.4,1.8C147.6,8.9,147.7,8.8,147.8,8.6z M148,7.4
        c0.1-0.4,0.4-0.5,0.7-0.4c0.1,0,0.2,0.2,0.1,0.2c0,0.1-0.1,0.2-0.2,0.3c-0.2,0.1-0.5,0.1-0.7,0.1C148,7.5,148,7.5,148,7.4z"/>
    </symbol>

    <symbol version="1.1" id="money-back-guarantee" xmlns="http://www.w3.org/2000/svg" xmlns:xlink="http://www.w3.org/1999/xlink" x="0px" y="0px"
        viewBox="0 0 121.8 110.3" style="enable-background:new 0 0 121.8 110.3;" xml:space="preserve">
    <path id="Badge_1" style="fill:#CCCDCD;" d="M60.8,98.8l0.9,3.2h-1.9L60.8,98.8L60.8,98.8z M52.4,97.1L51,96.9l-0.4,2.3l1.3,0.3
        c0.4,0.1,0.7,0.1,1-0.1c0.3-0.1,0.4-0.4,0.5-0.7s0-0.7-0.2-0.9C53.1,97.4,52.8,97.2,52.4,97.1z M43.6,98.8l0.4-3.3l0,0L41.9,98
        L43.6,98.8z M31.5,21.9l-2.8-1.7l0,0l1.5,2.9L31.5,21.9z M63.1,7.7L63.1,7.7L62,10.8l1.9,0.1L63.1,7.7z M66,30.7l-0.9,3h1.8L66,30.7
        L66,30.7z M48.4,31.2l-1.5,2.4h1.6v-2.6l0,0L48.4,31.2z M58.2,29.9h-1v5.4h1c0.5,0,0.9-0.2,1.2-0.5c0.3-0.4,0.4-0.8,0.4-1.4v-1.5
        c0-0.6-0.1-1-0.4-1.4C59.1,30.1,58.7,29.9,58.2,29.9z M114.6,41.8c-1.2-0.3-2.4-0.5-3.7-0.5H10.8c-1.1,0-2.1,0.1-3.2,0.4
        C13.7,17.7,35.3,0,61.1,0C87,0,108.7,17.8,114.6,41.8z M85.7,12.2L81,19.7l1.7,1.1l4.7-7.5L85.7,12.2z M79.3,10.7l-3,6.6l1.9,0.9
        l3-6.6l2.1,1l0.7-1.4l-6.1-2.8l-0.7,1.4L79.3,10.7z M68.2,13.9c0.5,0.8,1.3,1.4,2.3,1.6c1,0.3,1.9,0.2,2.6-0.2
        c0.7-0.4,1.2-1.1,1.5-2.1v0l-1.9-0.5c-0.2,0.6-0.4,0.9-0.7,1.1s-0.6,0.2-1.1,0.1c-0.5-0.1-0.8-0.4-1-0.8c-0.2-0.4-0.2-1-0.1-1.6
        l0.4-1.8c0.1-0.6,0.4-1,0.7-1.3c0.4-0.3,0.8-0.4,1.2-0.3c0.5,0.1,0.9,0.4,1,0.7c0.1,0.3,0.2,0.8,0.1,1.3l1.9,0.5l0,0
        c0.2-1,0-1.9-0.4-2.6c-0.4-0.7-1.2-1.2-2.3-1.5c-1-0.3-1.9-0.1-2.7,0.4c-0.8,0.5-1.3,1.3-1.6,2.3l-0.4,1.8
        C67.5,12.1,67.7,13,68.2,13.9z M58.8,13.9l2.1,0.1l0.6-1.7l2.8,0.1l0.4,1.7l2.1,0.1l-2.4-9l-2.2-0.1L58.8,13.9z M29,28.5
        c0-0.7-0.3-1.3-1-1.8c-0.6-0.4-1.3-0.6-1.9-0.4c-0.7,0.2-1.4,0.6-2.2,1.2c-0.6,0.4-1,0.7-1.3,0.7c-0.3,0.1-0.5,0.1-0.7-0.1
        s-0.3-0.4-0.3-0.7s0.1-0.6,0.3-1c0.2-0.3,0.5-0.5,0.8-0.6c0.3-0.1,0.6,0,0.9,0.2l1.2-1.6l0,0c-0.6-0.5-1.3-0.6-2.1-0.4
        c-0.8,0.2-1.5,0.7-2,1.5c-0.6,0.8-0.9,1.6-0.9,2.4s0.3,1.4,0.9,1.8c0.6,0.4,1.3,0.6,1.9,0.4c0.7-0.2,1.4-0.7,2.4-1.4
        c0.5-0.3,0.8-0.5,1.1-0.6c0.3-0.1,0.5,0,0.8,0.2c0.2,0.1,0.3,0.4,0.4,0.6c0,0.3-0.1,0.6-0.3,0.9c-0.3,0.4-0.7,0.7-1,0.8
        c-0.4,0.1-0.7,0-1.1-0.3L23.6,32l0,0c0.7,0.6,1.6,0.7,2.4,0.4c0.8-0.3,1.6-0.9,2.1-1.7S29,29.2,29,28.5z M35.9,22.3l-8.2-4.5
        l-1.6,1.5l4,8.4l1.5-1.4l-0.8-1.6l2-1.9l1.6,0.9L35.9,22.3z M37.5,21.3l1.7-1.1l-4-6.1l1.9-1.3l-0.9-1.3l-5.6,3.7l0.9,1.3l1.9-1.3
        L37.5,21.3z M42.7,28.4L38.8,29v1.4h1.9v6.4h1.9V28.4z M43.9,17.7l-3.9-8l-1.8,0.9l3.9,8L43.9,17.7z M45.9,16.1
        c0.8,0.2,1.8,0.2,2.7-0.1c1-0.3,1.6-0.8,2.1-1.4c0.4-0.6,0.6-1.3,0.3-2c-0.2-0.7-0.7-1.2-1.3-1.5s-1.5-0.4-2.5-0.4
        c-0.7,0-1.2-0.1-1.5-0.1c-0.3-0.1-0.4-0.2-0.5-0.5c-0.1-0.2,0-0.5,0.1-0.7c0.2-0.2,0.4-0.4,0.8-0.6c0.4-0.1,0.7-0.1,1,0
        s0.5,0.4,0.6,0.7L49.8,9v0c-0.2-0.8-0.7-1.3-1.5-1.6c-0.7-0.3-1.6-0.3-2.5,0c-1,0.3-1.7,0.8-2.1,1.4c-0.5,0.6-0.6,1.3-0.4,2
        c0.2,0.7,0.7,1.2,1.3,1.4c0.6,0.2,1.5,0.3,2.7,0.3c0.6,0,1,0.1,1.2,0.2c0.3,0.1,0.4,0.3,0.5,0.6c0.1,0.3,0.1,0.5-0.1,0.7
        c-0.1,0.2-0.4,0.4-0.8,0.5c-0.5,0.2-1,0.2-1.3,0.1c-0.3-0.1-0.6-0.4-0.7-0.9l-1.9,0.6v0C44.5,15.3,45,15.8,45.9,16.1z M51.3,33.5
        h-0.8v-5.1h-1.9v0l-3.4,5.4l0.1,1.2h3.3v1.8h1.9V35h0.8V33.5z M54.8,14.5L54.3,11l3.5-0.4L57.6,9l-3.5,0.4l-0.3-2.1L58,6.8l-0.2-1.6
        L51.6,6l1.1,8.8L54.8,14.5z M61.8,31.9c0-1-0.3-1.8-1-2.5c-0.7-0.7-1.5-1-2.5-1h-3v8.4h3c1,0,1.8-0.3,2.5-1c0.7-0.7,1-1.5,1-2.5
        V31.9z M69.8,36.8l-2.7-8.4H65l-2.7,8.4h2l0.5-1.6h2.7l0.5,1.6H69.8z M76.4,28.4h-2.1l-1.7,3.7h0l-1.7-3.7h-2.1l2.8,5.3v3h1.9v-3
        L76.4,28.4z M83.4,34.6c0-0.7-0.2-1.3-0.7-1.7c-0.5-0.4-1.2-0.8-2.1-1c-0.6-0.2-1-0.4-1.3-0.6c-0.2-0.1-0.3-0.4-0.3-0.6
        c0-0.2,0.1-0.5,0.3-0.6c0.2-0.2,0.5-0.3,0.9-0.3c0.4,0,0.7,0.1,0.9,0.3c0.2,0.2,0.3,0.5,0.3,0.8h1.9l0,0c0-0.7-0.3-1.4-0.9-1.8
        c-0.6-0.5-1.3-0.7-2.3-0.7c-0.9,0-1.7,0.2-2.3,0.7c-0.6,0.4-0.9,1-0.9,1.7c0,0.7,0.3,1.3,0.8,1.7c0.5,0.4,1.3,0.7,2.4,1.1
        c0.5,0.2,0.9,0.3,1,0.5c0.2,0.2,0.3,0.4,0.3,0.7c0,0.3-0.1,0.5-0.3,0.6c-0.2,0.2-0.5,0.2-0.9,0.2c-0.5,0-0.9-0.1-1.2-0.3
        c-0.3-0.2-0.4-0.6-0.4-1h-1.9l0,0c0,0.9,0.3,1.6,1,2.1c0.7,0.5,1.5,0.7,2.5,0.7c0.9,0,1.7-0.2,2.3-0.6
        C83.1,35.9,83.4,35.3,83.4,34.6z M89.4,24.9c1-0.1,1.8-0.5,2.5-1.4l1-1.2c0.7-0.8,1-1.7,1-2.7c-0.1-1-0.5-1.8-1.4-2.6
        c-0.8-0.7-1.8-1-2.7-1c-1,0.1-1.8,0.5-2.6,1.4l-1,1.2c-0.7,0.8-1,1.7-1,2.7c0.1,1,0.5,1.9,1.4,2.6C87.5,24.7,88.4,25,89.4,24.9z
        M101.8,27.7l-1.2-1.6L96,29.4l0,0l2.6-6l-1.2-1.6l-7.1,5.3l1.2,1.6l4.5-3.4l0,0l-2.6,6l1.2,1.6L101.8,27.7z M91.6,18.3
        c-0.4-0.4-0.9-0.5-1.4-0.4c-0.5,0.1-0.9,0.4-1.3,0.9l-1,1.2c-0.4,0.5-0.7,1-0.7,1.5c0,0.5,0.1,0.9,0.6,1.3c0.4,0.4,0.9,0.5,1.3,0.4
        c0.5-0.1,0.9-0.4,1.4-0.9l1-1.2c0.4-0.5,0.6-1,0.7-1.5C92.2,19.1,92,18.6,91.6,18.3z M76.7,55.4h-1.9v2.7h1.7c0.5,0,1-0.1,1.2-0.3
        c0.3-0.2,0.4-0.5,0.4-1c0-0.5-0.1-0.8-0.4-1.1C77.6,55.5,77.2,55.4,76.7,55.4z M77.3,53.4c0.3-0.2,0.4-0.5,0.4-0.9
        c0-0.5-0.1-0.8-0.4-1c-0.3-0.2-0.7-0.3-1.3-0.3h-1.2v2.6H76C76.6,53.7,77.1,53.6,77.3,53.4z M121.8,54.7c0,6-4.9,10.8-10.8,10.8
        H10.8C4.9,65.5,0,60.7,0,54.7s4.9-10.8,10.8-10.8H111C116.9,43.9,121.8,48.8,121.8,54.7z M21.6,60.1V49.2h-3.3l-2.5,7.6h0l-2.4-7.6
        H10v10.9h2.6v-2.7l-0.2-4.9h0l2.6,7.6h1.7l2.6-7.7h0l-0.2,5v2.7H21.6L21.6,60.1z M33.2,55.6v-2c0-1.3-0.4-2.4-1.3-3.3
        c-0.9-0.9-2-1.3-3.3-1.3c-1.4,0-2.5,0.4-3.4,1.3c-0.9,0.9-1.3,2-1.3,3.3v2c0,1.3,0.4,2.4,1.3,3.3s2,1.3,3.4,1.3
        c1.4,0,2.5-0.4,3.3-1.3C32.8,58.1,33.2,57,33.2,55.6L33.2,55.6z M44.7,49l-2.5,0v7.1l0,0L38,49h-2.4v11.1h2.5v-7l0,0l4,7h2.5V49z
        M54.9,49l-7.6,0.1v11h7.6v-1.9h-5v-2.7h4.3v-1.9h-4.3v-2.4h5.1V49z M65.9,49h-2.8l-2.2,4.9h0L58.7,49l-2.7,0l3.6,7.1v4h2.5v-3.8
        L65.9,49z M80.7,56.9c0-0.6-0.1-1.1-0.4-1.5c-0.3-0.4-0.8-0.7-1.4-0.9c0.5-0.2,0.9-0.5,1.1-0.9c0.2-0.4,0.4-0.9,0.4-1.4
        c0-1-0.4-1.9-1.1-2.4S77.3,49,76,49h-3.8l0,11.1h4.3c1.3,0,2.4-0.3,3.1-0.8C80.3,58.7,80.7,57.9,80.7,56.9z M92,60.1l-3.5-10.9h-2.7
        l-3.5,10.9h2.5l0.6-2.1h3.4l0.6,2.1H92z M102,53c-0.1-1.3-0.5-2.3-1.2-3c-0.7-0.7-1.8-1-3.2-1c-1.3,0-2.4,0.4-3.2,1.3
        c-0.8,0.8-1.2,1.9-1.2,3.2v2.3c0,1.3,0.4,2.4,1.3,3.2c0.8,0.8,1.9,1.3,3.3,1.3c1.3,0,2.4-0.3,3.1-1c0.7-0.7,1.1-1.7,1.1-2.9l0,0
        h-2.5c0,0.7-0.2,1.2-0.4,1.6c-0.2,0.3-0.7,0.5-1.3,0.5c-0.6,0-1.1-0.2-1.5-0.7c-0.4-0.5-0.5-1.1-0.5-1.8v-2.3c0-0.7,0.1-1.3,0.5-1.8
        c0.3-0.5,0.8-0.7,1.4-0.7c0.7,0,1.2,0.2,1.4,0.5c0.3,0.4,0.4,0.9,0.5,1.6L102,53L102,53z M113.5,60.1l-3.7-6l3.4-4.9h-3.2l-2.4,4.3
        h-0.9v-4.3h-2.5v10.9h2.5v-4.4h1.2l2.4,4.4H113.5z M87,52.1L85.9,56h2.3L87,52.1L87,52.1z M28.6,51c-0.7,0-1.2,0.2-1.6,0.7
        c-0.4,0.5-0.5,1.1-0.5,1.9v2c0,0.8,0.2,1.4,0.5,1.9c0.4,0.5,0.9,0.7,1.6,0.7c0.7,0,1.2-0.2,1.6-0.7c0.4-0.5,0.5-1.1,0.5-1.9v-2
        c0-0.8-0.2-1.4-0.5-1.9C29.8,51.2,29.2,51,28.6,51z M40.7,77.4c0.3,0,0.5-0.1,0.7-0.4c0.2-0.3,0.3-0.6,0.4-1l0.2-1
        c0.1-0.4,0-0.7-0.1-1c-0.1-0.3-0.4-0.4-0.7-0.4c-0.3,0-0.5,0.1-0.7,0.4c-0.2,0.2-0.3,0.6-0.4,1l-0.2,1c-0.1,0.4-0.1,0.8,0.1,1
        C40.1,77.3,40.3,77.4,40.7,77.4z M49.3,77c0.2-0.3,0.3-0.6,0.4-1l0.2-1c0.1-0.4,0-0.7-0.1-1c-0.1-0.3-0.4-0.4-0.7-0.4
        c-0.3,0-0.5,0.1-0.7,0.4c-0.2,0.2-0.3,0.6-0.4,1l-0.2,1c-0.1,0.4-0.1,0.8,0.1,1c0.1,0.2,0.4,0.4,0.7,0.4
        C48.8,77.4,49.1,77.3,49.3,77z M71.9,85.8c0.2-0.2,0.3-0.5,0.4-0.9l0.2-1c0.1-0.4,0-0.7-0.1-1c-0.1-0.2-0.4-0.4-0.7-0.4h-0.4
        l-0.7,3.6h0.7C71.5,86.2,71.7,86.1,71.9,85.8z M51.8,83.2L51.8,83.2l-0.9,1.9h1L51.8,83.2z M114.9,67.4
        c-5.6,24.6-27.5,42.9-53.8,42.9C34.9,110.3,13,92,7.4,67.6c1.1,0.3,2.2,0.5,3.4,0.5H111C112.3,68,113.7,67.8,114.9,67.4z M92,82.5
        l4.4,3.7l1.3-1.6l-4.4-3.7L92,82.5z M86.4,78c0.4,0.3,0.9,0.4,1.4,0.4c0.6,0,1.1-0.1,1.5-0.4c0.4-0.3,0.7-0.6,0.7-1.1
        c0.1-0.5,0-0.9-0.2-1.2c-0.2-0.3-0.7-0.5-1.2-0.7c-0.4-0.2-0.7-0.3-0.8-0.4c-0.1-0.1-0.1-0.3-0.1-0.5c0-0.1,0.1-0.2,0.2-0.3
        c0.1-0.1,0.3-0.1,0.4-0.1c0.2,0,0.4,0.1,0.5,0.2C89,74,89,74.1,89,74.4h1.3l0,0c0.1-0.5,0-0.9-0.3-1.3s-0.8-0.5-1.4-0.5
        c-0.6,0-1,0.1-1.5,0.4s-0.7,0.6-0.7,1.1c-0.1,0.5,0,0.8,0.3,1.1c0.3,0.3,0.7,0.6,1.4,0.8c0.3,0.1,0.5,0.3,0.7,0.4
        c0.1,0.1,0.1,0.3,0.1,0.5c0,0.1-0.1,0.2-0.3,0.3c-0.1,0.1-0.3,0.1-0.4,0.1c-0.2,0-0.4,0-0.6-0.1c-0.1-0.1-0.2-0.3-0.1-0.6H86v0
        C85.9,77.3,86,77.7,86.4,78z M80,78.3h1.3l0.7-3.5h0l1.1,3.5h1.3l1.1-5.7h-1.3l-0.7,3.5h0l-1.1-3.5h-1.3L80,78.3z M75.2,77.7
        c0.4,0.5,0.9,0.7,1.5,0.7c0.7,0,1.2-0.2,1.7-0.6c0.5-0.4,0.8-1,0.9-1.8l0.2-1c0.1-0.7,0-1.2-0.4-1.7c-0.4-0.5-0.9-0.7-1.5-0.7
        c-0.7,0-1.2,0.2-1.7,0.6c-0.4,0.4-0.7,1-0.9,1.8l-0.2,1C74.7,76.7,74.8,77.2,75.2,77.7z M73,72.7l-1.1,5.6h1.3l1.1-5.6H73z
        M68.3,83.8h-2l0.2-1.2h2.4l0.2-1h-3.7l-1.1,5.6H68l0.2-1h-2.4l0.3-1.4h2L68.3,83.8L68.3,83.8z M62.6,84.3l2-2.8h-1.7l-1.3,2.2h-0.4
        l0.4-2.2h-1.3l-1.1,5.6h1.3l0.4-2.2h0.4l0.7,2.2h1.5L62.6,84.3z M69,87.1h2.1c0.6,0,1.2-0.2,1.6-0.6c0.4-0.4,0.7-1,0.9-1.7l0.2-1
        c0.1-0.7,0-1.2-0.4-1.7c-0.4-0.4-0.9-0.7-1.5-0.7h-1.8L69,87.1z M67.8,73.7h1.3l-0.9,4.6h1.3l0.9-4.6h1.3l0.2-1h-4L67.8,73.7z
        M62.8,78c0.4,0.3,0.9,0.4,1.4,0.4c0.6,0,1.1-0.1,1.5-0.4c0.4-0.3,0.7-0.6,0.7-1.1c0.1-0.5,0-0.9-0.2-1.2c-0.2-0.3-0.7-0.5-1.2-0.7
        c-0.4-0.2-0.7-0.3-0.8-0.4C64,74.5,64,74.3,64,74.1c0-0.1,0.1-0.2,0.2-0.3c0.1-0.1,0.3-0.1,0.4-0.1c0.2,0,0.4,0.1,0.5,0.2
        c0.1,0.1,0.1,0.3,0.1,0.5h1.3l0,0c0.1-0.5,0-0.9-0.3-1.3s-0.8-0.5-1.4-0.5s-1,0.1-1.5,0.4c-0.4,0.3-0.7,0.6-0.7,1.1
        c-0.1,0.5,0,0.8,0.3,1.1c0.3,0.3,0.7,0.6,1.4,0.8c0.3,0.1,0.5,0.3,0.7,0.4c0.1,0.1,0.1,0.3,0.1,0.5c0,0.1-0.1,0.2-0.3,0.3
        c-0.1,0.1-0.3,0.1-0.4,0.1c-0.2,0-0.4,0-0.6-0.1c-0.1-0.1-0.2-0.3-0.1-0.6h-1.3v0C62.3,77.3,62.4,77.7,62.8,78z M57.4,78.3h3.7
        l0.2-1h-2.4l0.3-1.4h2l0.2-1h-2l0.2-1.2H62l0.2-1h-3.7L57.4,78.3z M52.5,77.9c0.4,0.4,0.8,0.5,1.5,0.5c0.7,0,1.2-0.2,1.7-0.5
        s0.8-0.8,0.9-1.5l0.8-3.8h-1.3l-0.8,3.8c-0.1,0.3-0.2,0.6-0.4,0.8c-0.2,0.1-0.4,0.2-0.7,0.2c-0.3,0-0.5-0.1-0.6-0.2
        c-0.1-0.1-0.1-0.4-0.1-0.8l0.8-3.8H53l-0.8,3.8C52.1,77,52.2,77.5,52.5,77.9z M51.5,81.5l-2.8,5.6h1.3l0.5-1.1H52l0.1,1.1h1.3
        l-0.5-5.6H51.5z M39,77.7c0.4,0.5,0.9,0.7,1.5,0.7c0.7,0,1.2-0.2,1.7-0.6c0.5-0.4,0.8-1,0.9-1.8l0.2-1c0.1-0.7,0-1.2-0.4-1.7
        c-0.4-0.5-0.9-0.7-1.5-0.7c-0.7,0-1.2,0.2-1.7,0.6c-0.4,0.4-0.7,1-0.9,1.8l-0.2,1C38.5,76.7,38.6,77.2,39,77.7z M32.5,78.3h1.3
        l0.7-3.5h0l1.1,3.5H37l1.1-5.6h-1.3l-0.7,3.5h0L35,72.7h-1.3L32.5,78.3z M30.6,89.6l-2.4-2.5l-1,1l1,1l-1,1c-0.2,0-0.4-0.1-0.5-0.2
        c-0.2-0.1-0.4-0.3-0.7-0.6c-0.4-0.4-0.5-0.8-0.4-1.3c0.1-0.5,0.3-0.9,0.8-1.4l1.3-1.3c0.4-0.4,0.9-0.7,1.4-0.7s0.9,0.1,1.2,0.4
        c0.3,0.4,0.5,0.7,0.5,1c0,0.3-0.1,0.7-0.4,1.1l1.4,1.4l0,0c0.6-0.7,0.9-1.4,0.9-2.2c0-0.8-0.4-1.6-1.3-2.4c-0.7-0.8-1.6-1.1-2.6-1.1
        s-1.8,0.4-2.6,1.1l-1.3,1.3c-0.8,0.8-1.2,1.6-1.2,2.6c0,1,0.4,1.8,1.2,2.6c0.6,0.6,1.2,1,1.8,1.3c0.6,0.2,1.1,0.3,1.6,0.3L30.6,89.6
        z M37.5,96.3l3.3-4.9L39,90.2l-3.3,4.9c-0.3,0.4-0.7,0.7-1,0.8c-0.4,0.1-0.8-0.1-1.2-0.3c-0.4-0.3-0.7-0.6-0.8-1
        c-0.1-0.4,0-0.8,0.3-1.3l3.3-4.9l-1.7-1.2l-3.3,4.9c-0.6,0.8-0.7,1.7-0.5,2.5s0.8,1.6,1.8,2.2c0.9,0.6,1.8,0.9,2.7,0.8
        C36.2,97.6,37,97.1,37.5,96.3z M46,93.7l-2.1-0.9l-6.1,7.2l1.9,0.8l1.1-1.4l2.6,1.1l-0.2,1.8l1.9,0.8L46,93.7z M46.9,77.8
        c0.4,0.5,0.9,0.7,1.5,0.7c0.1,0,0.3,0,0.4,0c0.1,0,0.3-0.1,0.4-0.1l0.7,0.9l0.9-0.7l-0.7-0.9c0.2-0.2,0.4-0.5,0.5-0.7
        c0.1-0.3,0.2-0.6,0.3-1l0.2-1c0.1-0.7,0-1.2-0.4-1.7c-0.4-0.5-0.9-0.7-1.5-0.7c-0.7,0-1.2,0.2-1.7,0.6c-0.4,0.4-0.7,1-0.9,1.8
        l-0.2,1C46.3,76.7,46.5,77.2,46.9,77.8z M55,96.8c-0.5-0.6-1.3-1-2.3-1.2l-3.4-0.7l-1.8,8.8l2,0.4l0.7-3.4l1.4,0.3
        c0.4,0.1,0.7,0.3,0.9,0.5c0.2,0.3,0.2,0.6,0.1,1l-0.1,0.5c-0.1,0.3-0.1,0.6-0.1,0.9c0,0.3,0.1,0.6,0.2,0.7l2.1,0.4l0-0.1
        c-0.1-0.1-0.2-0.4-0.2-0.7c0-0.3,0-0.6,0.1-0.8l0.1-0.6c0.1-0.5,0.1-1-0.1-1.4c-0.2-0.4-0.5-0.7-1-1c0.5-0.1,0.9-0.3,1.2-0.6
        c0.3-0.3,0.5-0.7,0.6-1.1C55.6,98.1,55.5,97.4,55,96.8z M56.3,87.3c0.6,0,1.1-0.1,1.5-0.4c0.4-0.3,0.7-0.6,0.7-1.1
        c0.1-0.5,0-0.9-0.2-1.2c-0.2-0.3-0.7-0.5-1.2-0.7c-0.4-0.2-0.7-0.3-0.8-0.4c-0.1-0.1-0.1-0.3-0.1-0.5c0-0.1,0.1-0.2,0.2-0.3
        c0.1-0.1,0.3-0.1,0.4-0.1c0.2,0,0.4,0.1,0.5,0.2c0.1,0.1,0.1,0.3,0.1,0.5h1.3l0,0c0.1-0.5,0-0.9-0.3-1.3c-0.3-0.3-0.8-0.5-1.4-0.5
        c-0.6,0-1,0.1-1.5,0.4c-0.4,0.3-0.7,0.6-0.7,1.1c-0.1,0.5,0,0.8,0.3,1.1c0.3,0.3,0.7,0.6,1.4,0.8c0.3,0.1,0.5,0.3,0.7,0.4
        c0.1,0.1,0.1,0.3,0.1,0.5c0,0.1-0.1,0.2-0.3,0.3s-0.3,0.1-0.4,0.1c-0.2,0-0.4,0-0.6-0.1c-0.1-0.1-0.2-0.3-0.1-0.6h-1.3v0
        c-0.1,0.6,0,1,0.4,1.3S55.8,87.3,56.3,87.3z M64.8,105.4l-2.9-9h-2.2l-2.9,9h2.1l0.5-1.7h2.8l0.5,1.7L64.8,105.4z M74.6,103.6
        l-1.8-8.8l-2,0.4l1.1,5.6l0,0l-4.3-5l-2,0.4l1.8,8.8l2-0.4l-1.1-5.6l0,0l4.3,5L74.6,103.6z M81,101.2l-2.8-6.8l2.2-0.9L79.8,92
        l-6.3,2.6l0.6,1.5l2.2-0.9l2.8,6.8L81,101.2z M90.6,95.9l-0.8-1.4l-3.5,2.2l-1.2-1.9l3-1.9l-0.8-1.4l-3,1.9l-1-1.6l3.5-2.2l-0.8-1.4
        l-5.3,3.3l4.8,7.6L90.6,95.9z M97.3,90.1l-1.1-1.2l-3.1,2.8L91.6,90l2.6-2.4l-1.1-1.2l-2.6,2.4l-1.3-1.4l3.1-2.8l-1.1-1.2l-4.6,4.2
        l6,6.7L97.3,90.1z M100.2,86.7l-1.3-1.1l-1.3,1.6l1.3,1.1L100.2,86.7z M76.9,77.4c0.3,0,0.5-0.1,0.7-0.4c0.2-0.3,0.3-0.6,0.4-1
        l0.2-1c0.1-0.4,0-0.7-0.1-1c-0.1-0.3-0.4-0.4-0.7-0.4c-0.3,0-0.5,0.1-0.7,0.4c-0.2,0.2-0.3,0.6-0.4,1l-0.2,1c-0.1,0.4-0.1,0.8,0.1,1
        C76.4,77.3,76.6,77.4,76.9,77.4z"/>
    </symbol>

    <symbol version="1.1" id="american-express" xmlns="http://www.w3.org/2000/svg" xmlns:xlink="http://www.w3.org/1999/xlink" x="0px" y="0px"
        viewBox="0 0 137.6 86" style="enable-background:new 0 0 137.6 86;" xml:space="preserve">
    <g>
        <g>
            <g>
                <g>
                    <g>
                        <defs>
                            <path id="SVGID_1_" d="M0,6.5C0,2.9,2.9,0,6.5,0h124.7c3.5,0,6.5,2.9,6.5,6.5v72.9c0,3.6-2.9,6.5-6.5,6.5H6.5
                                C2.9,86,0,83.1,0,79.5V6.5z"/>
                        </defs>
                        <clipPath id="SVGID_2_">
                            <use xlink:href="#SVGID_1_"  style="overflow:visible;"/>
                        </clipPath>
                        <path style="clip-path:url(#SVGID_2_);fill:#595959;" d="M0,8.5C0,3.8,3.7,0,8.3,0h121c4.6,0,8.3,3.8,8.3,8.5v69.1
                            c0,4.6-3.7,8.5-8.3,8.5H8.3C3.7,86,0,82.2,0,77.6V8.5z"/>
                    </g>
                </g>
            </g>
        </g>
        <g>
            <g>
                <g>
                    <defs>
                        <path id="SVGID_3_" d="M136.1,53.1h-6.9c-0.6,0-1.2,0-1.5,0.3c-0.4,0.2-0.5,0.7-0.5,1.2c0,0.7,0.3,1,0.9,1.2
                            c0.4,0.1,0.9,0.2,1.4,0.2h2c2,0.1,3.4,0.4,4.3,1.3c0.1,0.1,0.2,0.2,0.3,0.4V53.1L136.1,53.1z M136.1,63.7
                            c-1,1.4-2.7,2.1-5.2,2.1h-7.3v-3.5h7.3c0.8,0,1.2-0.1,1.5-0.4c0.2-0.2,0.4-0.5,0.4-1.1c0-0.4-0.2-0.9-0.4-1.1
                            c-0.3-0.2-0.6-0.3-1.3-0.3c-3.5-0.1-8,0.1-8-5c0-2.3,1.5-4.8,5.4-4.8h7.5v-3.2h-7c-2.2,0-3.7,0.5-4.7,1.3v-1.3H114
                            c-1.6,0-3.5,0.4-4.5,1.3v-1.3H91.1v1.3c-1.5-1.1-4-1.3-5.1-1.3H73.8v1.3c-1.2-1.1-3.8-1.3-5.4-1.3H54.8L51.7,50l-2.9-3.4H28.4
                            V69h20l3.2-3.5l3,3.5H67v-5.2h1.2c1.6,0,3.5,0,5.3-0.8v6h10.2v-5.8h0.5c0.6,0,0.6,0,0.6,0.7V69h30.9c1.9,0,4-0.5,5.2-1.4V69
                            h9.8c2,0,4-0.3,5.6-1v-4.3H136.1z M121,57.2c0.8,0.8,1.2,1.7,1.2,3.4c0,3.5-2.2,5-5.9,5h-7.4v-3.4h7.3c0.8,0,1.2-0.1,1.5-0.4
                            c0.2-0.2,0.4-0.5,0.4-1.1c0-0.4-0.2-0.9-0.4-1.1c-0.3-0.2-0.6-0.3-1.4-0.3c-3.5-0.1-8,0.1-8-5c0-2.3,1.4-4.8,5.4-4.8h7.5v3.4
                            h-6.9c-0.8,0-1.2,0-1.5,0.3c-0.4,0.2-0.5,0.7-0.5,1.2c0,0.7,0.3,1,0.9,1.2c0.4,0.1,0.9,0.2,1.5,0.2h2
                            C118.8,56,120.1,56.3,121,57.2z M86.9,56.2c-0.5,0.3-1.2,0.3-1.8,0.3h-4.6V53h4.6c0.6,0,1.4,0,1.8,0.3c0.5,0.2,0.8,0.8,0.8,1.4
                            C87.7,55.4,87.4,55.9,86.9,56.2z M89.2,58.2c0.9,0.3,1.5,0.9,1.8,1.3c0.5,0.8,0.6,1.5,0.6,2.9v3.2H88v-2c0-1,0.1-2.4-0.6-3.2
                            c-0.5-0.5-1.4-0.8-2.8-0.8h-4.1v5.9h-3.8V49.7h8.7c1.9,0,3.3,0.1,4.5,0.8c1.2,0.8,1.9,1.7,1.9,3.6
                            C91.8,56.6,90.2,57.9,89.2,58.2z M94,49.7h12.6v3.4h-8.8V56h8.6v3.3h-8.6v3.2h8.8v3.4H94V49.7z M68.5,57.1h-4.9v-4h4.9
                            c1.4,0,2.3,0.5,2.3,2C70.9,56.3,69.9,57.1,68.5,57.1z M59.8,64.3L54,57.8l5.8-6.3V64.3z M44.8,62.3h-9.2v-3.2h8.3v-3.3h-8.3V53
                            h9.5l4.1,4.7L44.8,62.3z M74.8,54.9c0,4.5-3.2,5.3-6.6,5.3h-4.7v5.3h-7.3l-4.6-5.3l-4.8,5.3h-15V49.7H47l4.6,5.2l4.8-5.2h12
                            C71.5,49.7,74.8,50.6,74.8,54.9z"/>
                    </defs>
                    <clipPath id="SVGID_4_">
                        <use xlink:href="#SVGID_3_"  style="overflow:visible;"/>
                    </clipPath>
                    <rect x="23" y="41.1" style="clip-path:url(#SVGID_4_);fill:#FFFFFF;" width="118.5" height="33.3"/>
                </g>
            </g>
        </g>
        <g>
            <g>
                <g>
                    <g>
                        <defs>
                            <path id="SVGID_5_" d="M13.8,31.1l-2.6-6.4l-2.6,6.4H13.8z M70.8,28.6C70.2,29,69.6,29,68.9,29h-4.6v-3.6h4.6
                                c0.6,0,1.4,0,1.8,0.3c0.5,0.2,0.8,0.8,0.8,1.4C71.5,27.9,71.2,28.4,70.8,28.6z M103.5,31.1l-2.6-6.4l-2.6,6.4H103.5z
                                M42.5,38.1h-3.9V25.6l-5.5,12.5h-3.3l-5.5-12.5v12.5h-7.6l-1.5-3.6H7.3l-1.5,3.6H1.7l6.8-16h5.6l6.5,15.2V22.1h6.1L31.6,33
                                l4.5-10.9h6.2v16H42.5z M57.8,38.1H45.3v-16h12.6v3.4H49v2.8h8.6v3.3H49v3.2h8.8V38.1z M75.7,26.3c0,2.5-1.7,3.9-2.7,4.3
                                c0.9,0.3,1.5,0.9,1.8,1.3c0.5,0.8,0.6,1.5,0.6,2.9V38h-3.8v-2.1c0-1,0.1-2.4-0.6-3.2c-0.5-0.5-1.4-0.7-2.8-0.7h-4.1v5.8h-3.8
                                V22.1H69c1.9,0,3.3,0.1,4.6,0.8C74.9,23.5,75.7,24.6,75.7,26.3z M77.8,38.1h3.9v-16h-3.9V38.1z M126.5,38.1h-5.4l-7.2-12v12
                                h-7.7l-1.5-3.6H97l-1.4,3.6h-4.4c-1.8,0-4.2-0.4-5.5-1.7c-1.3-1.4-2-3.2-2-6.1c0-2.4,0.4-4.6,2-6.2c1.2-1.3,3.1-1.9,5.7-1.9
                                h3.7v3.4h-3.5c-1.4,0-2.2,0.2-2.9,1c-0.6,0.7-1.1,2-1.1,3.6c0,1.7,0.3,2.9,1.1,3.8c0.5,0.7,1.6,0.9,2.6,0.9H93l5.4-12.7h5.7
                                l6.3,15.2V22.1h5.8l6.7,11.1V22.1h3.9v16H126.5z M1.6,41.3h6.5l1.5-3.6h3.2l1.4,3.6H27v-2.7l1.2,2.7h6.6l1.1-2.7v2.7h31.6
                                v-5.9h0.6c0.4,0,0.5,0.1,0.5,0.8v5.1h16.3v-1.4c1.3,0.8,3.3,1.4,6,1.4h6.9l1.5-3.6h3.2l1.4,3.6h13.2v-3.4l2,3.4h10.6V18.9
                                h-10.5v2.6l-1.5-2.6h-10.8v2.6l-1.4-2.6H91.2c-2.5,0-4.6,0.3-6.3,1.3v-1.3h-10v1.3c-1.1-1-2.6-1.3-4.3-1.3H33.9l-2.5,5.8
                                l-2.5-5.8H17.3v2.6L16,18.9H6.1L1.6,29.5V41.3z"/>
                        </defs>
                        <clipPath id="SVGID_6_">
                            <use xlink:href="#SVGID_5_"  style="overflow:visible;"/>
                        </clipPath>
                        <rect x="-3.8" y="13.5" style="clip-path:url(#SVGID_6_);fill:#FFFFFF;" width="138.9" height="33.3"/>
                    </g>
                </g>
            </g>
            <rect x="77.8" y="22.1" style="fill:#595959;" width="3.9" height="16"/>
        </g>
    </g>
    </symbol>
    <symbol version="1.1" id="check" xmlns="http://www.w3.org/2000/svg" xmlns:xlink="http://www.w3.org/1999/xlink" x="0px" y="0px"
        viewBox="0 0 137.6 86" style="enable-background:new 0 0 137.6 86;" xml:space="preserve">
    <g>
        <path style="fill:#FFFFFF;" d="M129,85.6H8.6c-4.4,0-8-3.6-8-8V8.5c0-4.4,3.6-8,8-8H129c4.4,0,8,3.6,8,8v69.1
            C137.1,82,133.5,85.6,129,85.6z"/>
        <g id="_65-Check_2_">
            <path style="fill:#595959;" d="M95.8,43.5c0,0.9,0.8,1.7,1.7,1.7h4.9c0.5,0,0.9-0.2,1.2-0.5l19.5-19.5c0.7-0.7,0.7-1.8,0-2.4
                l-4.9-4.9c-0.7-0.7-1.8-0.7-2.4,0L96.3,37.4c-0.3,0.3-0.5,0.8-0.5,1.2V43.5z M111,27.6l2.4,2.4l-11.7,11.7h-2.4v-2.4L111,27.6z"/>
        </g>
        <g>
            <g>
                <path style="fill:#595959;" d="M129.5,1.4c3.7,0,6.8,3,6.8,6.8v69.7c0,3.7-3,6.8-6.8,6.8H8.1c-3.7,0-6.8-3-6.8-6.8V8.1
                    c0-3.7,3-6.8,6.8-6.8L129.5,1.4 M129.5,0H8.1C3.6,0,0,3.6,0,8.1v69.7C0,82.4,3.6,86,8.1,86h121.4c4.5,0,8.1-3.6,8.1-8.1V8.1
                    C137.6,3.6,134,0,129.5,0L129.5,0z"/>
            </g>
        </g>
        <g>
            <g>
                <path style="fill:#595959;" d="M22.8,42.5c0.8,0,1.5-0.2,1.9-0.5c0.4-0.4,0.8-0.9,1.1-1.8h3.7c-0.1,1.2-0.5,2.2-1.2,3
                    s-1.5,1.5-2.4,1.9c-1,0.4-2,0.6-3.2,0.6c-2.3,0-4.1-0.7-5.5-2.2s-2-3.5-2-6.2s0.7-4.7,2-6.2c1.4-1.5,3.2-2.2,5.5-2.2
                    c1.8,0,3.3,0.5,4.6,1.4c1.3,0.9,2,2.3,2.2,4h-3.7c-0.3-0.8-0.7-1.4-1.1-1.8c-0.4-0.4-1.1-0.5-1.9-0.5c-1.2,0-2.1,0.5-2.7,1.4
                    s-0.9,2.2-0.9,3.8s0.3,2.9,0.9,3.8C20.7,42,21.6,42.5,22.8,42.5z"/>
                <path style="fill:#595959;" d="M41,29.2h3.7v16.1H41v-6.6h-5.9v6.6h-3.7V29.2h3.7v6.6H41V29.2z"/>
                <path style="fill:#595959;" d="M50.8,42.2h8v3.2H47V29.2h11.4v3.2h-7.7v3.3h6.6v3h-6.6L50.8,42.2L50.8,42.2z"/>
                <path style="fill:#595959;" d="M67.7,42.5c0.8,0,1.5-0.2,1.9-0.5c0.4-0.4,0.8-0.9,1.1-1.8h3.7c-0.1,1.2-0.5,2.2-1.2,3
                    s-1.5,1.5-2.4,1.9c-1,0.4-2,0.6-3.2,0.6c-2.3,0-4.1-0.7-5.5-2.2s-2-3.5-2-6.2s0.7-4.7,2-6.2c1.4-1.5,3.2-2.2,5.5-2.2
                    c1.8,0,3.3,0.5,4.6,1.4c1.3,0.9,2,2.3,2.2,4h-3.7c-0.3-0.8-0.7-1.4-1.1-1.8c-0.4-0.4-1.1-0.5-1.9-0.5c-1.2,0-2.1,0.5-2.7,1.4
                    s-0.9,2.2-0.9,3.8s0.3,2.9,0.9,3.8C65.6,42,66.5,42.5,67.7,42.5z"/>
                <path style="fill:#595959;" d="M87.2,45.3L82.3,39l-2.4,2.8v3.5h-3.7V29.2h3.7v7.6l6.5-7.6h4.2l-6.1,7.2l6.8,8.9
                    C91.3,45.3,87.2,45.3,87.2,45.3z"/>
            </g>
        </g>
        <rect x="15.1" y="55" style="fill:#8C8C8C;" width="103.8" height="3.8"/>
        <rect x="15.1" y="63.9" style="fill:#8C8C8C;" width="103.8" height="3.8"/>
    </g>
    </symbol>
    <symbol version="1.1" id="discover-network" xmlns="http://www.w3.org/2000/svg" xmlns:xlink="http://www.w3.org/1999/xlink" x="0px" y="0px"
        viewBox="0 0 137.6 86" style="enable-background:new 0 0 137.6 86;" xml:space="preserve">
    <g id="Page-1_4_">
        <g id="DISCOVER_2_">
            <path id="Rectangle-1_6_" style="fill-rule:evenodd;clip-rule:evenodd;fill:#F4F4F4;" d="M127.2,0.1c-6.9,0-79.6,0-120.2,0
                C3.6,0.1,0.2,3.5,0.2,7v68.7C0.2,82.6,3.6,86,10.5,86c38.3,0,109.9,0,116.7,0c6.8,0,10.3-3.4,10.3-10.3V10.4
                C137.5,3.5,134,0.1,127.2,0.1z"/>
            <path id="Rectangle-1-copy_2_" style="fill-rule:evenodd;clip-rule:evenodd;fill:#8C8C8C;" d="M42.7,85.9c36.9,0,79.3,0,84.5,0
                c6.9,0,10.3-3.4,10.3-10.3V34.8C137.5,34.8,117,70.8,42.7,85.9z"/>
            <path id="NETWORK_2_" style="fill-rule:evenodd;clip-rule:evenodd;" d="M44.8,42.1H46l3.8,5.7l0,0v-5.7h0.9V49h-1.2l-3.9-5.7l0,0
                V49h-0.9v-6.9H44.8z M52.6,42.1h4.5V43h-3.5v2h3.3v0.9h-3.3v2.2h3.7V49h-4.7V42.1z M60,43h-2.2v-0.9h5.4V43H61v6h-1V43z
                M63.3,42.1h1l1.5,5.5l0,0l1.6-5.5h1.1l1.6,5.5l0,0l1.5-5.5h1l-2,6.9h-1l-1.7-5.7l0,0L66.4,49h-1L63.3,42.1z M76.8,49.2
                c-0.5,0-1-0.1-1.5-0.3c-0.4-0.2-0.8-0.4-1.1-0.8c-0.3-0.3-0.6-0.7-0.7-1.2c-0.2-0.4-0.3-0.9-0.3-1.4s0.1-1,0.3-1.4
                c0.2-0.4,0.4-0.8,0.7-1.2s0.7-0.6,1.1-0.8s0.9-0.3,1.5-0.3c0.5,0,1,0.1,1.5,0.3c0.4,0.2,0.8,0.4,1.1,0.8s0.6,0.7,0.7,1.2
                c0.2,0.4,0.3,0.9,0.3,1.4s-0.1,1-0.3,1.4c-0.2,0.4-0.4,0.8-0.7,1.2c-0.3,0.3-0.7,0.6-1.1,0.8C77.8,49.1,77.4,49.2,76.8,49.2z
                M76.8,48.3c0.4,0,0.8-0.1,1.1-0.2c0.3-0.1,0.6-0.3,0.8-0.6c0.2-0.2,0.4-0.5,0.5-0.9c0.1-0.3,0.2-0.7,0.2-1.1s-0.1-0.7-0.2-1.1
                c-0.1-0.3-0.3-0.6-0.5-0.9c-0.2-0.2-0.5-0.4-0.8-0.6c-0.3-0.1-0.7-0.2-1.1-0.2s-0.8,0.1-1.1,0.2s-0.6,0.3-0.8,0.6
                c-0.2,0.2-0.4,0.5-0.5,0.9c-0.1,0.3-0.2,0.7-0.2,1.1s0.1,0.7,0.2,1.1c0.1,0.3,0.3,0.6,0.5,0.9c0.2,0.2,0.5,0.4,0.8,0.6
                C76.1,48.2,76.4,48.3,76.8,48.3C76.8,48.3,76.4,48.3,76.8,48.3z M81.8,42.1h2.4c0.4,0,0.8,0.1,1.1,0.2s0.5,0.3,0.7,0.5
                s0.3,0.4,0.3,0.6c0.1,0.2,0.1,0.5,0.1,0.7s0,0.4-0.1,0.6c-0.1,0.2-0.2,0.4-0.3,0.6c-0.1,0.2-0.3,0.3-0.5,0.4
                c-0.2,0.1-0.4,0.2-0.7,0.2l2,3.2h-1.2L83.8,46h-1v3h-0.9L81.8,42.1L81.8,42.1z M82.7,45.1H84c0.2,0,0.4,0,0.5,0s0.3-0.1,0.5-0.2
                s0.3-0.2,0.3-0.3c0.1-0.1,0.1-0.3,0.1-0.6c0-0.2,0-0.4-0.1-0.6c-0.1-0.1-0.2-0.3-0.3-0.3S84.7,43,84.5,43s-0.4,0-0.5,0h-1.2v2.1
                H82.7z M87.8,42.1h0.9v3h0.1l3.1-3h1.3l-3.3,3.2l3.6,3.7H92l-3.2-3.5h-0.1V49h-0.9V42.1z"/>
            <path style="fill-rule:evenodd;clip-rule:evenodd;" d="M12.3,20.6h6.5c1.1,0,2.1,0.2,3.1,0.5s1.9,0.8,2.7,1.5
                c0.8,0.7,1.4,1.5,1.9,2.6c0.5,1,0.7,2.2,0.7,3.6s-0.3,2.6-0.8,3.6s-1.2,1.9-2.1,2.5c-0.8,0.7-1.8,1.2-2.8,1.5s-2,0.5-3,0.5h-6.1
                V20.6H12.3z M17.4,34.4c0.9,0,1.8-0.1,2.6-0.3c0.8-0.2,1.5-0.5,2.1-1s1.1-1,1.4-1.7s0.5-1.6,0.5-2.6s-0.2-1.8-0.5-2.5
                s-0.7-1.3-1.3-1.7c-0.5-0.4-1.2-0.8-1.9-1c-0.7-0.2-1.6-0.3-2.5-0.3h-2.7v11.1H17.4z M29.8,20.6h2.9V37h-2.9
                C29.8,37,29.8,20.6,29.8,20.6z M44.4,24.1c-0.3-0.4-0.7-0.8-1.2-1s-1.1-0.3-1.6-0.3c-0.3,0-0.7,0-1,0.1s-0.6,0.2-0.9,0.4
                c-0.3,0.2-0.5,0.4-0.6,0.7c-0.2,0.3-0.2,0.6-0.2,1c0,0.6,0.2,1,0.6,1.3c0.4,0.3,0.9,0.5,1.4,0.8c0.6,0.2,1.2,0.4,1.9,0.6
                s1.3,0.5,1.9,0.8c0.6,0.4,1.1,0.8,1.4,1.4c0.4,0.6,0.6,1.4,0.6,2.3s-0.2,1.6-0.5,2.3s-0.8,1.2-1.3,1.6c-0.5,0.4-1.2,0.8-1.9,1
                s-1.5,0.3-2.3,0.3c-1,0-2-0.2-2.9-0.5S36,36,35.4,35.2l2.2-2.1c0.4,0.5,0.8,1,1.4,1.3s1.2,0.5,1.8,0.5c0.3,0,0.7,0,1-0.1
                s0.6-0.2,0.9-0.4c0.3-0.2,0.5-0.4,0.7-0.7s0.3-0.6,0.3-1c0-0.6-0.2-1.1-0.6-1.4c-0.4-0.3-0.9-0.6-1.4-0.8
                c-0.6-0.2-1.2-0.4-1.9-0.6s-1.3-0.5-1.9-0.8c-0.6-0.3-1.1-0.8-1.4-1.4s-0.6-1.4-0.6-2.3c0-0.8,0.2-1.6,0.5-2.2s0.8-1.1,1.4-1.5
                c0.6-0.4,1.2-0.7,1.9-0.9s1.5-0.3,2.2-0.3c0.9,0,1.7,0.1,2.5,0.4s1.5,0.7,2.2,1.3c0,0-0.6-0.6,0,0L44.4,24.1z M60.9,24.4
                c-0.6-0.6-1.2-1.1-1.7-1.3s-1.1-0.3-1.7-0.3c-0.8,0-1.6,0.2-2.3,0.5s-1.3,0.7-1.8,1.3c-0.5,0.5-0.9,1.2-1.1,1.9
                c-0.3,0.7-0.4,1.5-0.4,2.3c0,0.9,0.1,1.7,0.4,2.4c0.3,0.7,0.7,1.4,1.1,1.9c0.5,0.5,1.1,1,1.8,1.3s1.5,0.5,2.3,0.5
                c0.7,0,1.3-0.2,1.9-0.5s1.2-0.8,1.7-1.5l2.4,1.7c-0.7,1-1.6,1.8-2.7,2.2c-1.1,0.5-2.2,0.7-3.4,0.7c-1.3,0-2.4-0.2-3.5-0.6
                c-1.1-0.4-2-1-2.7-1.7c-0.8-0.7-1.4-1.6-1.8-2.7c-0.4-1.1-0.6-2.2-0.6-3.5s0.2-2.5,0.6-3.6c0.4-1.1,1-2,1.8-2.7
                c0.8-0.8,1.7-1.3,2.7-1.7c1.1-0.4,2.2-0.6,3.5-0.6c1.1,0,2.1,0.2,3.1,0.6s1.8,1.1,2.7,2c0,0-0.8-0.9,0,0L60.9,24.4z M82.9,20.6
                h3.4L90.7,33l4.6-12.4h3.2L91.9,37h-2.5L82.9,20.6z M100.3,20.6h10.9v2.6h-7.9v4h7.5v2.6h-7.5v4.4h8.4V37h-11.3L100.3,20.6
                L100.3,20.6z M114.4,20.6h5.7c0.8,0,1.5,0.1,2.3,0.2c0.7,0.1,1.4,0.4,2,0.8s1,0.8,1.4,1.4c0.3,0.6,0.5,1.4,0.5,2.3
                c0,1.2-0.3,2.2-1,3s-1.6,1.3-2.8,1.5l4.4,7.3h-3.5l-3.8-7h-2.1v7h-2.9V20.6H114.4z M119.6,27.5c0.4,0,0.8,0,1.3-0.1
                c0.4,0,0.8-0.1,1.1-0.3c0.3-0.1,0.6-0.4,0.8-0.7s0.3-0.7,0.3-1.3c0-0.5-0.1-0.9-0.3-1.2c-0.2-0.3-0.5-0.5-0.8-0.7
                c-0.3-0.1-0.7-0.2-1.1-0.3c-0.4,0-0.8-0.1-1.1-0.1h-2.5v4.4h2.3V27.5z"/>
            <circle id="Oval-1_2_" style="fill-rule:evenodd;clip-rule:evenodd;fill:#8C8C8C;" cx="74" cy="28.8" r="8.6"/>
        </g>
    </g>
    </symbol>
    <symbol version="1.1" id="master-card" xmlns="http://www.w3.org/2000/svg" xmlns:xlink="http://www.w3.org/1999/xlink" x="0px" y="0px"
        viewBox="0 0 351.4 219.6" style="enable-background:new 0 0 351.4 219.6;" xml:space="preserve">
    <g>
        <g>
            <g>
                <path style="fill:#FFFFFF;" d="M330.2,218.6H21.5c-11,0-19.9-8.9-19.9-19.9V21.2c0-11,8.9-19.9,19.9-19.9h308.7
                    c11,0,19.9,8.9,19.9,19.9v177.5C350.1,209.7,341.2,218.6,330.2,218.6z"/>
                <g>
                    <path d="M330.7,3.6c9.4,0,17.4,7.7,17.4,17.4v178c0,9.4-7.7,17.4-17.4,17.4h-310c-9.4,0-17.4-7.7-17.4-17.4V20.7
                        c0-9.4,7.7-17.4,17.4-17.4L330.7,3.6 M330.7,0h-310C9.2,0,0,9.2,0,20.7v178c0,11.7,9.2,20.9,20.7,20.9h310
                        c11.5,0,20.7-9.2,20.7-20.7V20.7C351.4,9.2,342.2,0,330.7,0L330.7,0z"/>
                </g>
            </g>
        </g>
        <g>
            <path d="M88.7,184.8c2.3,0,4.2,0.7,5.7,2.1c1.5,1.4,2.2,3.2,2.2,5.4v11.9h-4.3v-10.5c0-1.6-0.4-2.8-1.2-3.7
                c-0.8-0.9-1.9-1.3-3.3-1.3s-2.6,0.4-3.6,1.3c-1,0.9-1.4,2.1-1.4,3.7v10.5h-4.3v-10.5c0-1.6-0.4-2.8-1.2-3.7
                c-0.8-0.9-1.9-1.3-3.3-1.3s-2.6,0.4-3.6,1.3c-1,0.9-1.4,2.1-1.4,3.7v10.5h-4.3v-18.9h4.2v2.3c1.3-1.9,3.3-2.8,6-2.8
                c1.5,0,2.8,0.3,3.9,0.9c1.2,0.6,2.1,1.4,2.8,2.5C83,185.9,85.3,184.8,88.7,184.8z"/>
            <path d="M121.6,185.3v18.9h-4.2V202c-1.5,1.8-3.5,2.8-6.1,2.8c-2.7,0-5-0.9-6.9-2.8c-1.9-1.9-2.8-4.3-2.8-7.1
                c0-2.9,0.9-5.2,2.8-7.1c1.9-1.9,4.2-2.8,6.9-2.8c2.6,0,4.6,0.9,6.1,2.8v-2.3h4.2V185.3z M111.8,188.7c-1.8,0-3.2,0.6-4.3,1.7
                s-1.6,2.6-1.6,4.3s0.5,3.2,1.6,4.3s2.5,1.7,4.3,1.7c1.7,0,3.1-0.6,4.2-1.7c1.1-1.1,1.6-2.6,1.6-4.3c0-1.8-0.5-3.2-1.6-4.3
                C114.9,189.3,113.5,188.7,111.8,188.7z"/>
            <path d="M143.3,186.8l-1.8,3.2c-0.7-0.4-1.6-0.8-2.7-1.1c-1.1-0.3-2.2-0.5-3.3-0.5s-2,0.2-2.7,0.6c-0.7,0.4-1,1-1,1.6
                c0,0.3,0.1,0.6,0.2,0.8c0.2,0.2,0.4,0.4,0.7,0.6c0.3,0.1,0.6,0.3,1,0.3s0.8,0.2,1.3,0.2l2,0.3c4.5,0.6,6.7,2.5,6.7,5.6
                c0,1.9-0.8,3.4-2.3,4.5c-1.6,1.1-3.7,1.7-6.5,1.7c-3.3,0-6.1-0.8-8.3-2.4l2-3.1c1.7,1.3,3.9,1.9,6.4,1.9c1.4,0,2.5-0.2,3.3-0.6
                c0.8-0.4,1.1-1,1.1-1.7c0-1.1-1.1-1.8-3.4-2.1l-2-0.3c-2.1-0.3-3.8-0.9-4.9-1.8c-1.1-0.9-1.7-2.2-1.7-3.7c0-1.9,0.7-3.4,2.2-4.4
                c1.4-1.1,3.4-1.6,5.9-1.6C138.5,184.8,141.2,185.5,143.3,186.8z"/>
            <path d="M161.9,185.3v3.8h-7.4v8.2c0,1.2,0.3,2.1,0.9,2.7s1.3,0.9,2.2,0.9c1.2,0,2.5-0.4,3.9-1.3l1.7,3.3c-1.9,1.3-3.9,1.9-6,1.9
                c-2.2,0-4-0.6-5.2-1.8s-1.8-3.1-1.8-5.5v-8.3h-3.9v-3.8h3.9v-5.7h4.3v5.7L161.9,185.3L161.9,185.3z"/>
            <path d="M175.4,184.8c2.7,0,4.9,0.9,6.6,2.8c1.7,1.8,2.5,4.2,2.6,7.2c0,0.4,0,0.9-0.1,1.5h-14.3c0.3,1.6,0.9,2.8,2,3.6
                s2.3,1.2,3.8,1.2c2,0,3.9-0.7,5.6-2l2.1,2.9c-2.1,1.8-4.8,2.7-8,2.7c-2.9,0-5.3-0.9-7.2-2.7s-2.8-4.2-2.8-7.2s0.9-5.4,2.7-7.2
                C170.2,185.7,172.5,184.8,175.4,184.8z M175.3,188.5c-1.5,0-2.6,0.4-3.5,1.3s-1.4,2-1.7,3.4h10.1c-0.2-1.5-0.8-2.6-1.6-3.4
                C177.7,188.9,176.6,188.5,175.3,188.5z"/>
            <path d="M199.6,184.8c1.3,0,2.3,0.2,3.3,0.5l-1,4.1c-0.9-0.5-2-0.7-3.2-0.7c-1.4,0-2.5,0.5-3.3,1.4c-0.9,0.9-1.3,2.1-1.3,3.7v10.4
                h-4.2v-18.9h4.2v2.1C195.2,185.7,197.1,184.8,199.6,184.8z"/>
            <path d="M215.2,184.8c1.5,0,2.8,0.3,4.1,0.8s2.3,1.3,3.2,2.3l-2.7,2.8c-1.4-1.3-3-2-4.7-2c-1.6,0-3,0.6-4.1,1.7
                c-1.1,1.1-1.6,2.6-1.6,4.4c0,1.8,0.5,3.2,1.6,4.4c1.1,1.1,2.5,1.7,4.1,1.7c1.7,0,3.3-0.7,4.8-2l2.6,2.8c-1.8,2-4.2,3-7.2,3
                s-5.5-0.9-7.4-2.8s-2.8-4.3-2.8-7.1c0-2.9,0.9-5.2,2.8-7.1C209.7,185.8,212.1,184.8,215.2,184.8z"/>
            <path d="M245.4,185.3v18.9h-4.2V202c-1.5,1.8-3.5,2.8-6.1,2.8c-2.7,0-5-0.9-6.9-2.8c-1.9-1.9-2.8-4.3-2.8-7.1
                c0-2.9,0.9-5.2,2.8-7.1c1.9-1.9,4.2-2.8,6.9-2.8c2.6,0,4.6,0.9,6.1,2.8v-2.3h4.2V185.3z M235.6,188.7c-1.8,0-3.2,0.6-4.3,1.7
                s-1.6,2.6-1.6,4.3s0.5,3.2,1.6,4.3s2.5,1.7,4.3,1.7c1.7,0,3.1-0.6,4.2-1.7c1.1-1.1,1.6-2.6,1.6-4.3c0-1.8-0.5-3.2-1.6-4.3
                C238.7,189.3,237.3,188.7,235.6,188.7z"/>
            <path d="M261.8,184.8c1.3,0,2.3,0.2,3.3,0.5l-1,4.1c-0.9-0.5-2-0.7-3.2-0.7c-1.4,0-2.5,0.5-3.3,1.4c-0.9,0.9-1.3,2.1-1.3,3.7v10.4
                H252v-18.9h4.2v2.1C257.5,185.7,259.3,184.8,261.8,184.8z"/>
            <path d="M276.9,184.8c2.6,0,4.6,0.9,6.1,2.8v-11.8h4.2v28.5H283V202c-1.5,1.8-3.5,2.8-6.1,2.8c-2.7,0-5-0.9-6.9-2.8
                c-1.9-1.9-2.8-4.3-2.8-7.1c0-2.9,0.9-5.2,2.8-7.1C271.9,185.8,274.2,184.8,276.9,184.8z M277.4,188.7c-1.8,0-3.2,0.6-4.3,1.7
                s-1.6,2.6-1.6,4.3s0.5,3.2,1.6,4.3s2.5,1.7,4.3,1.7c1.7,0,3.1-0.6,4.2-1.7c1.1-1.1,1.6-2.6,1.6-4.3c0-1.8-0.5-3.2-1.6-4.3
                C280.6,189.3,279.1,188.7,277.4,188.7z"/>
        </g>
        <g>
            <path style="fill:#494949;" d="M130.5,171.3c-43,0-77.9-34.9-77.9-77.9s34.9-77.9,77.9-77.9s77.9,34.9,77.9,77.9
                S173.5,171.3,130.5,171.3z"/>
            <path style="fill:#AAAAAA;" d="M220.9,171.3c-43,0-77.9-34.9-77.9-77.9s34.9-77.9,77.9-77.9s77.9,34.9,77.9,77.9
                S263.9,171.3,220.9,171.3z"/>
            <path style="fill:#858585;" d="M175.7,30c19.8,14.1,32.7,37.3,32.7,63.4s-12.9,49.3-32.7,63.4c-19.8-14.1-32.7-37.3-32.7-63.4
                S155.9,44.1,175.7,30z"/>
        </g>
    </g>
    </symbol>
    <symbol version="1.1" id="Layer_1" xmlns="http://www.w3.org/2000/svg" xmlns:xlink="http://www.w3.org/1999/xlink" x="0px" y="0px"
        viewBox="0 0 137.6 86" style="enable-background:new 0 0 137.6 86;" xml:space="preserve">
    <g>
        <path style="fill:#FFFFFF;" d="M129.1,85.6H8.5c-4.4,0-7.9-3.6-7.9-7.9V8.4c0-4.4,3.6-7.9,7.9-7.9h120.6c4.4,0,7.9,3.6,7.9,7.9
            v69.2C137.1,82,133.5,85.6,129.1,85.6z"/>
        <g>
            <g>
                <path style="fill:#8C8C8C;" d="M129.5,1.4c3.7,0,6.8,3,6.8,6.8v69.7c0,3.7-3,6.8-6.8,6.8H8.1c-3.7,0-6.8-3-6.8-6.8V8.1
                    c0-3.7,3-6.8,6.8-6.8L129.5,1.4 M129.5,0H8.1C3.6,0,0,3.6,0,8.1v69.7C0,82.4,3.6,86,8.1,86h121.4c4.5,0,8.1-3.6,8.1-8.1V8.1
                    C137.6,3.6,134,0,129.5,0L129.5,0z"/>
            </g>
        </g>
        <g>
            <path style="fill:#8C8C8C;" d="M13.6,16.3h5.9l6,15.4l5.9-15.4h5.9v22.2h-5.1V24.8H32l-4.8,13.7h-3.7l-4.7-13.7h-0.2v13.7h-5.1
                V16.3H13.6z"/>
            <path style="fill:#8C8C8C;" d="M42.8,19c1.9-2,4.5-3.1,7.7-3.1s5.8,1,7.7,3.1c1.9,2,2.9,4.9,2.9,8.5s-1,6.4-2.9,8.5
                c-1.9,2-4.5,3-7.7,3s-5.8-1-7.7-3.1s-2.9-4.9-2.9-8.5C39.9,23.8,40.9,21,42.8,19z M46.6,32.7c0.9,1.3,2.2,1.9,3.9,1.9
                s3-0.6,3.9-1.9c0.9-1.3,1.4-3,1.4-5.3s-0.4-4-1.3-5.3c-0.9-1.2-2.2-1.9-3.9-1.9s-3.1,0.6-3.9,1.9c-0.9,1.2-1.3,3-1.3,5.3
                C45.2,29.7,45.7,31.5,46.6,32.7z"/>
            <path style="fill:#8C8C8C;" d="M82.7,16.3v22.2h-5.3L69,24.8h-0.1v13.7h-5.1V16.3h5.1l8.6,14h0.1v-14H82.7z"/>
            <path style="fill:#8C8C8C;" d="M91,34.2h11v4.4H85.9V16.3h15.7v4.4H91v4.5h9v4.1h-9V34.2z"/>
            <path style="fill:#8C8C8C;" d="M116.9,30.5v8.1h-5.3v-8.1l-8-14.2h5.9l4.8,9.2l4.8-9.2h5.9L116.9,30.5z"/>
            <path style="fill:#515151;" d="M15.8,48c1.9-2,4.5-3.1,7.7-3.1s5.8,1,7.7,3.1c1.9,2,2.9,4.9,2.9,8.5s-1,6.4-2.9,8.5
                s-4.5,3.1-7.7,3.1s-5.8-1-7.7-3.1s-2.9-4.9-2.9-8.5C12.9,52.9,13.9,50.1,15.8,48z M19.6,61.8c0.9,1.3,2.2,1.9,3.9,1.9
                c1.7,0,3-0.6,3.9-1.9c0.9-1.3,1.4-3,1.4-5.3s-0.4-4-1.3-5.3c-0.9-1.2-2.2-1.9-3.9-1.9c-1.7,0-3.1,0.6-3.9,1.9
                c-0.9,1.2-1.3,3-1.3,5.3C18.3,58.8,18.7,60.5,19.6,61.8z"/>
            <path style="fill:#515151;" d="M56.4,63.9c0,1.7,0.2,2.9,0.6,3.7h-5.1c-0.4-0.8-0.6-2-0.6-3.7v-1.5c0-0.8-0.3-1.5-0.8-2
                s-1.2-0.8-2.2-0.8h-5.1v7.9h-5.1V45.4h9.7c2.8,0,4.9,0.6,6.3,1.9c1.4,1.2,2.1,2.9,2.1,4.9c0,2.2-1,3.9-3,5.2c1.2,0.6,2,1.3,2.5,2
                c0.5,0.8,0.7,1.7,0.7,2.9C56.4,62.3,56.4,63.9,56.4,63.9z M47.6,55.7c1.2,0,2.1-0.2,2.6-0.7s0.7-1.3,0.7-2.3
                c0-1.9-1.1-2.8-3.2-2.8h-4.5v5.8H47.6z"/>
            <path style="fill:#515151;" d="M69.4,45.4c3.5,0,6.2,1,8,2.9s2.7,4.7,2.7,8.2c0,3.6-0.9,6.3-2.7,8.2c-1.8,1.9-4.5,2.9-8,2.9h-8.6
                V45.4H69.4z M68.9,63.2c2.3,0,3.9-0.5,4.8-1.5S75,59,75,56.5s-0.4-4.2-1.3-5.2s-2.5-1.5-4.8-1.5h-3v13.4
                C65.9,63.2,68.9,63.2,68.9,63.2z"/>
            <path style="fill:#515151;" d="M89.2,63.2h10.9v4.4h-16V45.4h15.7v4.4H89.2v4.5h9v4.1h-9V63.2z"/>
            <path style="fill:#515151;" d="M122.3,63.9c0,1.7,0.2,2.9,0.6,3.7h-5.1c-0.4-0.8-0.6-2-0.6-3.7v-1.5c0-0.8-0.3-1.5-0.8-2
                s-1.2-0.8-2.2-0.8h-5.1v7.9H104V45.4h9.7c2.8,0,4.9,0.6,6.3,1.9c1.4,1.2,2.1,2.9,2.1,4.9c0,2.2-1,3.9-3,5.2c1.2,0.6,2,1.3,2.5,2
                c0.5,0.8,0.7,1.7,0.7,2.9C122.3,62.3,122.3,63.9,122.3,63.9z M113.5,55.7c1.2,0,2.1-0.2,2.6-0.7s0.7-1.3,0.7-2.3
                c0-1.9-1.1-2.8-3.2-2.8h-4.5v5.8H113.5z"/>
        </g>
    </g>
    </symbol>
    <symbol version="1.1" id="p.o" xmlns="http://www.w3.org/2000/svg" xmlns:xlink="http://www.w3.org/1999/xlink" x="0px" y="0px"
        viewBox="0 0 137.6 86" style="enable-background:new 0 0 137.6 86;" xml:space="preserve">
    <g>
        <path style="fill:#FFFFFF;" d="M129.1,85.6H8.5c-4.4,0-7.9-3.6-7.9-7.9V8.4c0-4.4,3.6-7.9,7.9-7.9h120.6c4.4,0,7.9,3.6,7.9,7.9
            v69.2C137.1,82,133.5,85.6,129.1,85.6z"/>
        <g>
            <path style="fill:#595959;" d="M129.5,1.4c3.7,0,6.8,3,6.8,6.8v69.7c0,3.7-3,6.8-6.8,6.8H8.1c-3.7,0-6.8-3-6.8-6.8V8.1
                c0-3.7,3-6.8,6.8-6.8L129.5,1.4 M129.5,0H8.1C3.6,0,0,3.6,0,8.1v69.7C0,82.4,3.6,86,8.1,86h121.4c4.5,0,8.1-3.6,8.1-8.1V8.1
                C137.6,3.6,134,0,129.5,0L129.5,0z"/>
        </g>
        <g>
            <path style="fill:#595959;" d="M26.5,14.5c3.9,0,6.8,0.9,8.7,2.8s2.9,4.4,2.9,7.7s-1,5.8-2.9,7.6c-1.9,1.9-4.8,2.8-8.7,2.8h-5.3v9
                h-6.9V14.5H26.5z M26.5,29.5c1.4,0,2.5-0.4,3.2-1.2c0.7-0.8,1.1-1.9,1.1-3.3s-0.4-2.6-1.1-3.4s-1.8-1.2-3.2-1.2h-5.2v9.1H26.5z"/>
            <path style="fill:#595959;" d="M39.1,37h7.1v7.4h-7.1V37z"/>
            <path style="fill:#595959;" d="M53.5,18c2.6-2.8,6.1-4.1,10.4-4.1s7.8,1.4,10.4,4.1c2.6,2.8,3.9,6.6,3.9,11.4s-1.3,8.6-3.9,11.4
                S68.2,45,63.9,45s-7.8-1.4-10.4-4.2c-2.6-2.8-3.9-6.6-3.9-11.4S50.9,20.8,53.5,18z M58.6,36.5c1.2,1.7,3,2.5,5.3,2.5
                s4.1-0.8,5.3-2.5s1.8-4.1,1.8-7.1c0-3.1-0.6-5.5-1.8-7.1c-1.2-1.7-3-2.5-5.3-2.5s-4.1,0.8-5.3,2.5s-1.8,4.1-1.8,7.1
                C56.8,32.5,57.4,34.9,58.6,36.5z"/>
            <path style="fill:#595959;" d="M81.3,37h7.1v7.4h-7.1V37z"/>
        </g>
        <g>
            <path style="fill:#8C8C8C;" d="M18.4,58.8c1.2,0,2,0.3,2.6,0.8c0.6,0.6,0.9,1.3,0.9,2.3s-0.3,1.7-0.9,2.3S19.6,65,18.4,65h-1.7
                v2.8h-1.9v-9.1L18.4,58.8L18.4,58.8z M18.4,63.4c0.5,0,0.8-0.1,1.1-0.4c0.2-0.3,0.4-0.6,0.4-1.1s-0.1-0.8-0.4-1.1
                s-0.6-0.4-1.1-0.4h-1.7v3H18.4z"/>
            <path style="fill:#8C8C8C;" d="M28.7,61.2h1.8v6.7h-1.8v-1.3c-0.1,0.3-0.4,0.6-0.8,1c-0.4,0.3-0.9,0.5-1.4,0.5
                c-1.6,0-2.4-0.9-2.4-2.7v-4.1h1.8v4c0,0.9,0.4,1.3,1.1,1.3c0.4,0,0.8-0.2,1.1-0.5c0.3-0.3,0.5-0.6,0.6-0.9
                C28.7,65.2,28.7,61.2,28.7,61.2z"/>
            <path style="fill:#8C8C8C;" d="M37,61.1c0.2,0,0.4,0,0.6,0v1.6c-0.2,0-0.3,0-0.5,0c-0.7,0-1.2,0.1-1.5,0.4
                c-0.3,0.3-0.5,0.7-0.6,1.2v3.6h-1.8v-6.7H35v1.5c0.1-0.5,0.3-0.9,0.7-1.1C36,61.2,36.5,61.1,37,61.1z"/>
            <path style="fill:#8C8C8C;" d="M42.5,66.6c0.7,0,1.1-0.3,1.3-0.9h1.6c-0.1,0.4-0.2,0.8-0.4,1.1c-0.2,0.3-0.5,0.6-0.7,0.7
                c-0.3,0.2-0.6,0.3-0.9,0.4C43.1,68,42.8,68,42.5,68c-0.4,0-0.8-0.1-1.2-0.2s-0.7-0.3-1-0.6c-0.3-0.3-0.6-0.6-0.8-1.1
                s-0.3-1-0.3-1.6s0.1-1.1,0.3-1.6s0.4-0.8,0.8-1.1c0.3-0.3,0.7-0.5,1-0.6c0.4-0.1,0.8-0.2,1.2-0.2c0.3,0,0.6,0,0.9,0.1
                c0.3,0.1,0.6,0.2,0.8,0.3c0.3,0.2,0.5,0.4,0.7,0.7s0.4,0.7,0.4,1.1h-1.7c-0.2-0.5-0.6-0.8-1.2-0.8c-0.5,0-0.9,0.2-1.1,0.5
                c-0.3,0.3-0.4,0.8-0.4,1.5c0,0.6,0.1,1.1,0.4,1.5C41.7,66.4,42,66.6,42.5,66.6z"/>
            <path style="fill:#8C8C8C;" d="M51.7,61.1c1.6,0,2.4,0.9,2.4,2.7v4.1h-1.8v-4c0-0.9-0.4-1.3-1.1-1.3c-0.4,0-0.8,0.1-1.1,0.4
                c-0.3,0.3-0.5,0.6-0.5,0.9v4h-1.8v-9.2h1.8v3.8c0.1-0.3,0.4-0.6,0.8-1C50.7,61.2,51.2,61.1,51.7,61.1z"/>
            <path style="fill:#8C8C8C;" d="M62.6,66.1c0,0.4,0.2,0.6,0.5,0.6v1.2C62.9,68,62.7,68,62.4,68c-0.4,0-0.8-0.1-1-0.3
                S61,67.2,61,66.9v-0.1l-0.1,0.1c0,0.1-0.1,0.1-0.1,0.1s-0.1,0.1-0.1,0.2c-0.1,0.1-0.1,0.1-0.2,0.2c-0.1,0.1-0.1,0.1-0.2,0.2
                c-0.1,0.1-0.2,0.1-0.3,0.2c-0.1,0-0.2,0.1-0.4,0.1S59.4,68,59.2,68s-0.3,0-0.5,0c-0.6,0-1.2-0.2-1.6-0.5c-0.4-0.3-0.7-0.8-0.7-1.5
                c0-0.4,0.1-0.7,0.2-0.9c0.1-0.3,0.3-0.5,0.6-0.6s0.5-0.3,0.7-0.3c0.2-0.1,0.5-0.1,0.8-0.2c0.1,0,0.3,0,0.5-0.1
                c0.2,0,0.4,0,0.5-0.1c0.1,0,0.2,0,0.4-0.1c0.2,0,0.3-0.1,0.4-0.1c0.1,0,0.2-0.1,0.3-0.1v-0.1c0-0.4-0.1-0.7-0.3-0.8
                s-0.5-0.2-0.8-0.2c-0.7,0-1,0.2-1.1,0.7h-1.7c0.1-1.4,1.1-2,2.8-2c1.1,0,1.8,0.2,2.3,0.7c0.5,0.4,0.7,1.2,0.7,2.2v2.1H62.6z
                M60.8,65.8v-1.1c-0.1,0-0.2,0.1-0.2,0.1c-0.1,0-0.1,0.1-0.2,0.1c-0.1,0-0.1,0-0.3,0.1c-0.1,0-0.2,0-0.3,0.1c-0.1,0-0.2,0-0.4,0.1
                c-0.2,0-0.3,0.1-0.4,0.1c-0.5,0.1-0.8,0.3-0.8,0.8c0,0.2,0.1,0.4,0.2,0.6c0.1,0.2,0.4,0.2,0.7,0.2c0.4,0,0.8-0.1,1.1-0.3
                C60.5,66.2,60.7,66,60.8,65.8z"/>
            <path style="fill:#8C8C8C;" d="M69,63.2c-0.1-0.3-0.2-0.5-0.4-0.6s-0.5-0.2-0.8-0.2c-0.6,0-0.9,0.2-0.9,0.6c0,0.3,0.2,0.6,0.7,0.7
                l1.2,0.3c0.3,0.1,0.5,0.1,0.7,0.2s0.4,0.1,0.6,0.2s0.3,0.2,0.5,0.3c0.1,0.1,0.2,0.3,0.3,0.5c0.1,0.2,0.1,0.4,0.1,0.7
                c0,0.7-0.3,1.2-0.8,1.5S68.7,68,67.8,68c-0.8,0-1.5-0.2-2-0.6s-0.8-0.9-0.9-1.6h1.7c0.1,0.6,0.5,0.8,1.3,0.8s1.2-0.2,1.2-0.7
                c0-0.2-0.1-0.3-0.2-0.4s-0.3-0.2-0.6-0.2L67.2,65c-1.4-0.3-2.1-1-2.1-2c0-0.6,0.2-1.1,0.7-1.5c0.5-0.3,1.1-0.5,2-0.5
                s1.5,0.2,2,0.6c0.5,0.4,0.8,0.9,0.9,1.5H69V63.2z"/>
            <path style="fill:#8C8C8C;" d="M79.2,64.8c0,0.2,0,0.3,0,0.4h-4.7c0.1,0.5,0.2,0.9,0.5,1.1s0.6,0.3,1.1,0.3c0.7,0,1.1-0.2,1.3-0.5
                H79c-0.4,1.3-1.4,2-3.1,2c-0.4,0-0.7-0.1-1.1-0.2s-0.7-0.3-1-0.6c-0.3-0.3-0.6-0.6-0.8-1.1c-0.2-0.5-0.3-1-0.3-1.6
                s0.1-1.1,0.3-1.6c0.2-0.5,0.5-0.8,0.8-1.1s0.7-0.5,1-0.6c0.4-0.1,0.7-0.2,1.1-0.2c0.9,0,1.6,0.3,2.2,0.9
                C78.9,62.6,79.2,63.6,79.2,64.8z M74.6,63.9h2.9c0-0.4-0.2-0.8-0.4-1c-0.3-0.3-0.6-0.4-1-0.4C75.2,62.5,74.7,63,74.6,63.9z"/>
            <path style="fill:#8C8C8C;" d="M87.5,59.9c0.8-0.8,1.8-1.2,3.1-1.2s2.3,0.4,3.1,1.2c0.8,0.8,1.2,2,1.2,3.5s-0.4,2.6-1.2,3.5
                c-0.8,0.8-1.8,1.3-3.1,1.3s-2.3-0.4-3.1-1.3c-0.8-0.8-1.2-2-1.2-3.5S86.7,60.7,87.5,59.9z M90.6,66.4c0.7,0,1.3-0.3,1.7-0.8
                c0.4-0.5,0.6-1.3,0.6-2.3c0-1-0.2-1.7-0.6-2.3c-0.4-0.5-1-0.8-1.7-0.8s-1.3,0.3-1.7,0.8c-0.4,0.5-0.6,1.3-0.6,2.3
                c0,1,0.2,1.7,0.6,2.3S89.9,66.4,90.6,66.4z"/>
            <path style="fill:#8C8C8C;" d="M101.2,61.1c0.2,0,0.4,0,0.6,0v1.6c-0.2,0-0.3,0-0.5,0c-0.7,0-1.2,0.1-1.5,0.4
                c-0.3,0.3-0.5,0.7-0.6,1.2v3.6h-1.8v-6.7h1.8v1.5c0.1-0.5,0.3-0.9,0.7-1.1C100.1,61.2,100.6,61.1,101.2,61.1z"/>
            <path style="fill:#8C8C8C;" d="M106.3,61.1c0.4,0,0.8,0.1,1.2,0.3c0.3,0.2,0.6,0.4,0.7,0.6v-3.3h1.8v9.2h-1.8V67
                c0,0.1-0.1,0.2-0.2,0.3c-0.1,0.1-0.3,0.3-0.6,0.4c-0.3,0.1-0.6,0.2-1,0.2c-0.3,0-0.7-0.1-1-0.2s-0.6-0.3-0.9-0.6s-0.6-0.6-0.7-1.1
                c-0.2-0.5-0.3-1-0.3-1.6c0-0.5,0.1-0.9,0.2-1.3c0.1-0.4,0.3-0.7,0.5-1s0.4-0.5,0.7-0.7c0.3-0.2,0.5-0.3,0.8-0.4
                C105.8,61.1,106,61.1,106.3,61.1z M105.6,66c0.3,0.3,0.6,0.5,1.1,0.5s0.8-0.2,1.1-0.5c0.3-0.3,0.4-0.8,0.4-1.5
                c0-0.7-0.1-1.2-0.4-1.5s-0.7-0.5-1.1-0.5c-0.5,0-0.8,0.2-1.1,0.5c-0.3,0.3-0.4,0.8-0.4,1.5C105.2,65.2,105.3,65.7,105.6,66z"/>
            <path style="fill:#8C8C8C;" d="M118.9,64.8c0,0.2,0,0.3,0,0.4h-4.7c0.1,0.5,0.2,0.9,0.5,1.1s0.6,0.3,1.1,0.3
                c0.7,0,1.1-0.2,1.3-0.5h1.6c-0.4,1.3-1.4,2-3.1,2c-0.4,0-0.7-0.1-1.1-0.2s-0.7-0.3-1-0.6c-0.3-0.3-0.6-0.6-0.8-1.1
                c-0.2-0.5-0.3-1-0.3-1.6s0.1-1.1,0.3-1.6c0.2-0.5,0.5-0.8,0.8-1.1s0.7-0.5,1-0.6c0.4-0.1,0.7-0.2,1.1-0.2c0.9,0,1.6,0.3,2.2,0.9
                C118.5,62.6,118.9,63.6,118.9,64.8z M114.2,63.9h2.9c0-0.4-0.2-0.8-0.4-1c-0.3-0.3-0.6-0.4-1-0.4C114.8,62.5,114.4,63,114.2,63.9z
                "/>
            <path style="fill:#8C8C8C;" d="M125.1,61.1c0.2,0,0.4,0,0.6,0v1.6c-0.2,0-0.3,0-0.5,0c-0.7,0-1.2,0.1-1.5,0.4
                c-0.3,0.3-0.5,0.7-0.6,1.2v3.6h-1.8v-6.7h1.8v1.5c0.1-0.5,0.3-0.9,0.7-1.1C124,61.2,124.5,61.1,125.1,61.1z"/>
        </g>
        <rect x="117.8" y="37" style="fill:#8C8C8C;" width="7.4" height="7.4"/>
        <rect x="117.8" y="25.9" style="fill:#8C8C8C;" width="7.4" height="7.4"/>
        <rect x="117.8" y="14.9" style="fill:#8C8C8C;" width="7.4" height="7.4"/>
    </g>
    </symbol>
    <symbol version="1.1" id="pay-later" xmlns="http://www.w3.org/2000/svg" xmlns:xlink="http://www.w3.org/1999/xlink" x="0px" y="0px"
        viewBox="0 0 137.6 86" style="enable-background:new 0 0 137.6 86;" xml:space="preserve">
    <g>
        <path style="fill:#FFFFFF;" d="M128.9,85.6H8.7c-4.5,0-8.2-3.7-8.2-8.2V8.6c0-4.5,3.7-8.2,8.2-8.2h120.1c4.5,0,8.2,3.7,8.2,8.2
            v68.8C137.1,81.9,133.4,85.6,128.9,85.6z"/>
        <g>
            <path style="fill:#8C8C8C;" d="M58.8,45.8H1.1V13.4h57.7c0.8,0,1.4,0.6,1.4,1.4v29.6C60.2,45.2,59.5,45.8,58.8,45.8z"/>
            <g>
                <g>
                    <path style="fill:#595959;" d="M72.8,20.8c2.5,0,4.4,0.6,5.6,1.8c1.2,1.2,1.9,2.9,1.9,4.9c0,2.1-0.6,3.7-1.9,4.9
                        c-1.2,1.2-3.1,1.8-5.6,1.8h-3.4V40H65V20.8H72.8z M72.7,30.4c0.9,0,1.6-0.3,2.1-0.8s0.7-1.2,0.7-2.1s-0.2-1.7-0.7-2.2
                        s-1.2-0.8-2.1-0.8h-3.4v5.8h3.4V30.4z"/>
                    <path style="fill:#595959;" d="M93,40l-1.2-3.4h-7L83.7,40h-4.8l7.4-19.2h4L97.7,40H93z M85.9,33.3h4.8l-2.4-7.1L85.9,33.3z"/>
                    <path style="fill:#595959;" d="M106.5,33v7H102v-7l-7-12.2h5.1l4.1,7.9l4.1-7.9h5.1L106.5,33z"/>
                    <path style="fill:#595959;" d="M31.2,65.8h8.7v3.8H26.7V50.3h4.4v15.5H31.2z"/>
                    <path style="fill:#595959;" d="M56.3,69.5l-1.2-3.4h-7L47,69.5h-4.8l7.4-19.2h4L61,69.5H56.3z M49.3,62.9H54l-2.4-7.1L49.3,62.9
                        z"/>
                    <path style="fill:#595959;" d="M76.5,50.3v3.8h-5.7v15.4h-4.4V54.1h-5.8v-3.8H76.5z"/>
                    <path style="fill:#595959;" d="M84.1,65.8h9.5v3.8H79.7V50.3h13.6v3.8h-9.2V58h7.8v3.5h-7.8V65.8z"/>
                    <path style="fill:#595959;" d="M112.8,66.3c0,1.4,0.2,2.5,0.6,3.2H109c-0.4-0.7-0.6-1.7-0.6-3.2V65c0-0.7-0.2-1.3-0.7-1.7
                        s-1.1-0.7-1.9-0.7h-4.5v6.9H97V50.3h8.4c2.4,0,4.2,0.5,5.4,1.6c1.2,1.1,1.8,2.5,1.8,4.2c0,1.9-0.9,3.4-2.6,4.5
                        c1,0.5,1.8,1.1,2.2,1.8c0.4,0.7,0.6,1.5,0.6,2.5V66.3z M105.1,59.2c1.1,0,1.8-0.2,2.2-0.6c0.4-0.4,0.6-1.1,0.6-2
                        c0-1.6-0.9-2.4-2.8-2.4h-3.9v5.1L105.1,59.2L105.1,59.2z"/>
                </g>
            </g>
            <g id="Pay_Later_icon_4_">
                <g>
                    <path style="fill:#FFFFFF;" d="M47.6,30.7v-1.9H29v6c0,1.4,1.1,2.5,2.5,2.5h7.2l0,0h7.1l-2.2-2.2l1.5-1.5l3.2,3.2l0,0l1.5,1.5
                        l-1.5,1.5l0,0L45,43l-1.5-1.5l2.2-2.2h-3.2l0,0h-11c-2.5,0-4.5-2-4.5-4.5V22.9c0-2.5,2-4.5,4.5-4.5l0,0v2.1
                        c-1.4,0-2.5,1.1-2.5,2.4v3.7h18.6v-3.7c0-1.4-1.1-2.5-2.5-2.5h-1.6v0.9c0.8,0.4,1.3,1.2,1.3,2.1c0,1.3-1.1,2.3-2.3,2.3
                        s-2.3-1.1-2.3-2.3c0-0.9,0.5-1.7,1.3-2.1V17h2.1v1.4h1.6c2.5,0,4.5,2,4.5,4.5v7.7h-2.1V30.7z M34.2,25.8c1.3,0,2.3-1.1,2.3-2.3
                        c0-0.9-0.5-1.7-1.3-2.1v-0.9h4.2v-2.1h-4.2V17h-2.1v4.4c-0.8,0.4-1.3,1.2-1.3,2.1C31.9,24.8,33,25.8,34.2,25.8z"/>
                </g>
            </g>
            <g>
                <g>
                    <path style="fill:#595959;" d="M129.5,1.4c3.7,0,6.8,3,6.8,6.8v69.7c0,3.7-3,6.8-6.8,6.8H8.1c-3.7,0-6.8-3-6.8-6.8V8.1
                        c0-3.7,3-6.8,6.8-6.8L129.5,1.4 M129.5,0H8.1C3.6,0,0,3.6,0,8.1v69.7C0,82.4,3.6,86,8.1,86h121.4c4.5,0,8.1-3.6,8.1-8.1V8.1
                        C137.6,3.6,134,0,129.5,0L129.5,0z"/>
                </g>
            </g>
        </g>
    </g>
    </symbol>
    <symbol version="1.1" id="pay-pal" xmlns="http://www.w3.org/2000/svg" xmlns:xlink="http://www.w3.org/1999/xlink" x="0px" y="0px"
        viewBox="0 0 137.6 86" style="enable-background:new 0 0 137.6 86;" xml:space="preserve">
    <g>
        <path style="fill:#FFFFFF;" d="M128.9,85.6H8.7c-4.5,0-8.2-3.7-8.2-8.2V8.6c0-4.5,3.7-8.2,8.2-8.2h120.2c4.5,0,8.2,3.7,8.2,8.2
            v68.8C137.1,81.9,133.4,85.6,128.9,85.6z"/>
        <g>
            <path style="fill:#484848;" d="M129.5,1.4c3.7,0,6.8,3,6.8,6.8v69.7c0,3.7-3,6.8-6.8,6.8H8.1c-3.7,0-6.8-3-6.8-6.8V8.1
                c0-3.7,3-6.8,6.8-6.8L129.5,1.4 M129.5,0H8.1C3.6,0,0,3.6,0,8.1v69.7C0,82.4,3.6,86,8.1,86h121.4c4.5,0,8.1-3.6,8.1-8.1V8.1
                C137.6,3.6,134,0,129.5,0L129.5,0z"/>
        </g>
        <g>
            <path style="fill:#626262;" d="M102.6,33c-2.9,0-5.2,0.8-7,1.1l-0.5,4.4c0.9-0.4,3.7-1.2,6-1.3s3.7,0.4,3.2,2.4
                c-6.9,0-11.5,1.4-12.4,5.8c-1.4,7.6,7,7.4,10.3,4.1l-0.4,1.8h6.1l2.6-12.1C111.5,34.1,106.9,32.9,102.6,33z M103,45.3
                c-0.3,1.6-1.6,2.3-3.2,2.4c-1.4,0.1-2.6-1.1-1.7-2.5c0.7-1.2,2.6-1.5,3.7-1.5c0.5,0,1,0,1.5,0C103.2,44.3,103.1,44.8,103,45.3z"/>
            <polygon style="fill:#626262;" points="115.7,28.2 110.6,51.4 116.8,51.4 121.9,28.2 		"/>
            <path style="fill:#626262;" d="M87.2,28.2H75.8l-5,23.1h6.6l1.7-7.7h4.7c4.6,0,8.4-2.8,9.4-7.6C94.4,30.7,90.5,28.2,87.2,28.2z
                M87,36.1c-0.4,1.8-2.2,3.2-3.9,3.2H80l1.4-6.3h3.3C86.4,33,87.4,34.4,87,36.1z"/>
            <path style="fill:#484848;" d="M43.1,33c-2.9,0-5.2,0.8-6.8,1.1l-0.5,4.4c0.8-0.4,3.6-1.2,5.8-1.3c2.3-0.1,3.6,0.4,3.2,2.4
                c-6.8,0-11.3,1.4-12.3,5.8c-1.3,7.6,6.9,7.4,10.1,4.1l-0.4,1.8h6.1l2.7-12C52.1,34.1,47.4,32.9,43.1,33z M43.6,45.3
                c-0.3,1.6-1.7,2.3-3.2,2.4c-1.3,0.1-2.5-1.1-1.6-2.5c0.7-1.2,2.5-1.5,3.6-1.5c0.5,0,1,0,1.5,0C43.8,44.3,43.7,44.8,43.6,45.3z"/>
            <polygon style="fill:#484848;" points="53.6,33.3 59.7,33.3 60.7,44.1 66.7,33.3 73,33.3 58.5,59.1 51.7,59.1 56.1,51.5 		"/>
            <path style="fill:#484848;" d="M28,28.2H16.6l-5,23.1h6.7l1.6-7.7h4.8c4.6,0,8.4-2.8,9.4-7.6C35.2,30.7,31.3,28.2,28,28.2z
                M27.8,36.1c-0.4,1.8-2.1,3.2-3.8,3.2h-3.1l1.4-6.3h3.3C27.2,33,28.2,34.4,27.8,36.1z"/>
            <path style="fill:#484848;" d="M123.3,31.2v-2.7h-1v-0.4h2.5v0.4h-1v2.7H123.3z"/>
            <path style="fill:#484848;" d="M125.1,31.2v-3.1h0.6l0.7,2.2c0.1,0.2,0.1,0.4,0.1,0.5c0-0.1,0.1-0.3,0.2-0.5l0.7-2.2h0.6v3.1h-0.4
                v-2.6l-0.9,2.6h-0.4l-0.9-2.6v2.6H125.1z"/>
        </g>
    </g>
    </symbol>

    <symbol version="1.1" id="visa" xmlns="http://www.w3.org/2000/svg" xmlns:xlink="http://www.w3.org/1999/xlink" x="0px" y="0px"
        viewBox="0 0 137.6 86" style="enable-background:new 0 0 137.6 86;" xml:space="preserve">
    <g id="Page-1_5_">
        <g id="Visa_2_">
            <rect id="Rectangle-20_2_" y="7.7" style="fill-rule:evenodd;clip-rule:evenodd;fill:#F6F6F6;" width="137.6" height="68.8"/>
            <path id="Rectangle-1_8_" style="fill-rule:evenodd;clip-rule:evenodd;fill:#4F4F4F;" d="M127.3,0C120.4,0,47.6,0,6.9,0
                C3.4,0,0,3.4,0,6.9v10.3h137.6c0,0,0,16,0-6.9C137.6,3.4,134.2,0,127.3,0z"/>
            <path id="Rectangle-1_7_" style="fill-rule:evenodd;clip-rule:evenodd;fill:#8C8C8C;" d="M0,68.8c0,0,0,0,0,6.9
                C0,82.6,3.4,86,10.3,86c38.4,0,110.1,0,117,0c6.9,0,10.3-3.4,10.3-10.3v-6.9C137.6,68.8,0,68.8,0,68.8z"/>
            <path id="Shape_14_" style="fill-rule:evenodd;clip-rule:evenodd;fill:#4F4F4F;" d="M96,25.6c-1.9-0.7-5-1.5-8.7-1.5
                c-9.6,0-16.4,5-16.5,12c-0.1,5.2,4.8,8.2,8.5,9.9c3.8,1.8,5.1,2.9,5,4.5c0,2.4-3,3.6-5.8,3.6c-3.9,0-6-0.6-9.2-1.9L68,51.6
                l-1.4,8.2c2.3,1,6.5,1.9,10.8,1.9c10.2,0,16.9-4.9,17-12.5c0-4.2-2.6-7.3-8.2-9.9c-3.4-1.7-5.5-2.8-5.5-4.5c0-1.5,1.8-3.1,5.6-3.1
                c3.2-0.1,5.5,0.7,7.3,1.4l0.9,0.4L96,25.6"/>
            <path id="Shape_13_" style="fill-rule:evenodd;clip-rule:evenodd;fill:#4F4F4F;" d="M121,24.8h-7.5c-2.3,0-4.1,0.6-5.1,3
                L93.9,61.2h10.2c0,0,1.7-4.5,2-5.5c1.1,0,11,0,12.5,0c0.3,1.3,1.2,5.5,1.2,5.5h9L121,24.8L121,24.8z M109,48.3
                c0.8-2.1,3.9-10.2,3.9-10.2c-0.1,0.1,0.8-2.1,1.3-3.5l0.7,3.1c0,0,1.9,8.7,2.3,10.5L109,48.3L109,48.3L109,48.3L109,48.3z"/>
            <path id="Shape_12_" style="fill-rule:evenodd;clip-rule:evenodd;fill:#4F4F4F;" d="M51,61.2l6.1-36.5h9.7l-6.1,36.5H51z"/>
            <path id="Shape_11_" style="fill-rule:evenodd;clip-rule:evenodd;fill:#4F4F4F;" d="M42.8,24.7l-9.5,24.9l-1-5.1
                c-1.8-5.8-7.3-12.1-13.5-15.3l8.7,31.9h10.3l15.3-36.4L42.8,24.7"/>
            <path id="Shape_10_" style="fill-rule:evenodd;clip-rule:evenodd;fill:#8C8C8C;" d="M24.4,24.7H8.7l-0.1,0.8
                c12.2,3,20.3,10.3,23.7,19.1l-3.4-16.8C28.3,25.5,26.5,24.8,24.4,24.7"/>
        </g>
    </g>
    </symbol>

<symbol version="1.1" id="wire-transfer" xmlns="http://www.w3.org/2000/svg" xmlns:xlink="http://www.w3.org/1999/xlink" x="0px" y="0px"
	 viewBox="0 0 137.6 86" style="enable-background:new 0 0 137.6 86;" xml:space="preserve">
<g>
	<path style="fill:#FFFFFF;" d="M129,85.6H8.7c-4.5,0-8.1-3.6-8.1-8.1V8.6c0-4.5,3.6-8.1,8.1-8.1H129c4.5,0,8.1,3.6,8.1,8.1v68.9
		C137.1,81.9,133.4,85.6,129,85.6z"/>
	<g>
		<path style="fill:#848484;" d="M129.5,1.4c3.7,0,6.8,3,6.8,6.8v69.7c0,3.7-3,6.8-6.8,6.8H8.1c-3.7,0-6.8-3-6.8-6.8V8.1
			c0-3.7,3-6.8,6.8-6.8L129.5,1.4 M129.5,0H8.1C3.6,0,0,3.6,0,8.1v69.7C0,82.4,3.6,86,8.1,86h121.4c4.5,0,8.1-3.6,8.1-8.1V8.1
			C137.6,3.6,134,0,129.5,0L129.5,0z"/>
	</g>
	<g>
		<g>
			<path style="fill:#7F7F7F;" d="M15.9,64.1V51.9h-3.6v-3.8h11.6v3.8h-3.6v12.2H15.9L15.9,64.1z"/>
			<path style="fill:#7F7F7F;" d="M26,64.1v-16h4.6c1.8,0,3,0.1,3.7,0.2c0.7,0.2,1.3,0.4,1.8,0.8c0.6,0.4,1,1,1.3,1.7
				s0.5,1.4,0.5,2.2c0,1.2-0.3,2.3-0.9,3c-0.6,0.8-1.5,1.3-2.7,1.6l4.4,6.5h-4.9L30,57.9v6.3L26,64.1L26,64.1z M30,55.7h0.8
				c0.9,0,1.6-0.2,2.1-0.5c0.4-0.3,0.7-0.8,0.7-1.5c0-0.8-0.2-1.4-0.6-1.7c-0.4-0.3-1.1-0.5-2-0.5h-1V55.7z"/>
			<path style="fill:#7F7F7F;" d="M38.5,64.1l5.5-16h5.5l5.5,16h-4.3l-0.8-2.9h-6.2l-0.8,2.9H38.5z M44.6,58.1h4.3l-1.6-5.3
				c-0.1-0.2-0.1-0.4-0.2-0.8c-0.1-0.4-0.2-0.8-0.3-1.4c-0.1,0.4-0.2,0.8-0.3,1.1c-0.1,0.4-0.2,0.7-0.3,1L44.6,58.1z"/>
			<path style="fill:#7F7F7F;" d="M56.5,64.1v-16h4.2l6.1,8.2c0.1,0.2,0.3,0.5,0.6,1c0.3,0.5,0.6,1.1,0.9,1.8
				c-0.1-0.7-0.2-1.3-0.2-1.8s-0.1-1-0.1-1.4V48h4.2v16H68l-6-8.1c-0.1-0.2-0.3-0.5-0.6-1s-0.6-1.1-0.9-1.8c0.1,0.7,0.2,1.3,0.2,1.8
				s0.1,1,0.1,1.4v7.9h-4.3V64.1z"/>
			<path style="fill:#7F7F7F;" d="M76.4,59c0.7,0.7,1.3,1.3,1.9,1.7s1.3,0.5,1.9,0.5s1.1-0.2,1.4-0.5c0.4-0.3,0.6-0.7,0.6-1.2
				s-0.2-0.9-0.5-1.2s-1.1-0.6-2.2-0.9c-1.6-0.4-2.7-1-3.3-1.7c-0.7-0.7-1-1.6-1-2.8c0-1.5,0.5-2.8,1.5-3.8s2.4-1.5,4-1.5
				c0.9,0,1.7,0.1,2.5,0.4c0.8,0.2,1.5,0.6,2.3,1.1l-1.4,3.1c-0.5-0.4-1-0.7-1.5-1c-0.5-0.2-1-0.3-1.5-0.3s-1,0.1-1.3,0.4
				s-0.5,0.6-0.5,1s0.1,0.7,0.4,1s0.8,0.5,1.7,0.7l0.2,0.1c1.8,0.5,3,1,3.5,1.6c0.4,0.4,0.7,0.9,0.9,1.4c0.2,0.6,0.3,1.2,0.3,1.8
				c0,1.7-0.6,3.1-1.7,4.1s-2.6,1.5-4.5,1.5c-1.1,0-2.1-0.2-3.1-0.6c-0.9-0.4-1.8-1-2.6-1.8L76.4,59z"/>
			<path style="fill:#7F7F7F;" d="M88.7,64.1v-16h9.8v3.5h-5.6v2.8h5.2v3.4h-5.2v6.3H88.7z"/>
			<path style="fill:#7F7F7F;" d="M100.9,64.1v-16h9.8v3.5h-5.6v2.8h5.2v3.4h-5.2v2.7h5.6v3.6H100.9L100.9,64.1z"/>
			<path style="fill:#7F7F7F;" d="M113.6,64.1v-16h4.6c1.8,0,3,0.1,3.7,0.2c0.7,0.2,1.3,0.4,1.8,0.8c0.6,0.4,1,1,1.3,1.7
				s0.5,1.4,0.5,2.2c0,1.2-0.3,2.3-0.9,3c-0.6,0.8-1.5,1.3-2.7,1.6l4.4,6.5h-4.9l-3.7-6.3v6.3H113.6L113.6,64.1z M117.7,55.7h0.8
				c0.9,0,1.6-0.2,2.1-0.5c0.4-0.3,0.7-0.8,0.7-1.5c0-0.8-0.2-1.4-0.6-1.7s-1.1-0.5-2-0.5h-0.9L117.7,55.7L117.7,55.7z"/>
		</g>
		<g>
			<path style="fill:#515151;" d="M62.4,22l2.9,11c0.1,0.5,0.3,1,0.4,1.6c0.1,0.5,0.2,1.2,0.4,1.9c0.2-0.8,0.3-1.5,0.4-2
				s0.2-1,0.3-1.4l2.7-11h6.4l-6.5,23.2h-5.9l-2.9-9.9c-0.1-0.3-0.3-1-0.5-2c-0.1-0.5-0.2-0.8-0.3-1.1c-0.1,0.2-0.1,0.5-0.2,0.9
				c-0.2,1-0.4,1.7-0.6,2.2l-2.8,9.9h-5.9L43.8,22h6.4l2.7,11.1c0.1,0.6,0.3,1.1,0.4,1.7c0.1,0.6,0.2,1.2,0.3,1.8
				c0.1-0.4,0.2-0.9,0.3-1.4s0.3-1.2,0.5-2.1L57.3,22H62.4L62.4,22z"/>
			<path style="fill:#515151;" d="M78.2,45.2V22h6.4v23.2H78.2z"/>
			<path style="fill:#515151;" d="M89.7,45.2V22h6.6c2.6,0,4.4,0.1,5.4,0.4c1,0.2,1.9,0.6,2.6,1.2c0.8,0.6,1.5,1.4,1.9,2.4
				s0.7,2.1,0.7,3.2c0,1.8-0.4,3.3-1.3,4.4c-0.9,1.1-2.2,1.9-3.9,2.2l6.3,9.3h-7.1L95.6,36v9.1L89.7,45.2L89.7,45.2z M95.6,33h1.2
				c1.4,0,2.4-0.2,3-0.7s0.9-1.2,0.9-2.2c0-1.2-0.3-2-0.9-2.5s-1.6-0.7-3-0.7h-1.3V33H95.6z"/>
			<path style="fill:#515151;" d="M110.4,45.2V22h14.2v5.1h-8v4h7.6v5h-7.6V40h8v5.2H110.4z"/>
		</g>
		
			<linearGradient id="SVGID_1_" gradientUnits="userSpaceOnUse" x1="12.4536" y1="809.9095" x2="41.3536" y2="809.9095" gradientTransform="matrix(1 0 0 1 0 -785.7095)">
			<stop  offset="0" style="stop-color:#9C9C9C;stop-opacity:0"/>
			<stop  offset="0.7362" style="stop-color:#8A8A8A"/>
			<stop  offset="0.7811" style="stop-color:#808080"/>
			<stop  offset="0.9265" style="stop-color:#626262"/>
			<stop  offset="1" style="stop-color:#565656"/>
		</linearGradient>
		<rect x="12.5" y="21.9" style="fill:url(#SVGID_1_);" width="28.9" height="4.6"/>
		
			<linearGradient id="SVGID_2_" gradientUnits="userSpaceOnUse" x1="12.4536" y1="818.8095" x2="41.3536" y2="818.8095" gradientTransform="matrix(1 0 0 1 0 -785.7095)">
			<stop  offset="0" style="stop-color:#9C9C9C;stop-opacity:0"/>
			<stop  offset="0.7362" style="stop-color:#8A8A8A"/>
			<stop  offset="0.7811" style="stop-color:#808080"/>
			<stop  offset="0.9265" style="stop-color:#626262"/>
			<stop  offset="1" style="stop-color:#565656"/>
		</linearGradient>
		<rect x="12.5" y="30.8" style="fill:url(#SVGID_2_);" width="28.9" height="4.6"/>
		
			<linearGradient id="SVGID_3_" gradientUnits="userSpaceOnUse" x1="12.4536" y1="828.5095" x2="41.3536" y2="828.5095" gradientTransform="matrix(1 0 0 1 0 -785.7095)">
			<stop  offset="0" style="stop-color:#9C9C9C;stop-opacity:0"/>
			<stop  offset="0.7362" style="stop-color:#8A8A8A"/>
			<stop  offset="0.7811" style="stop-color:#808080"/>
			<stop  offset="0.9265" style="stop-color:#626262"/>
			<stop  offset="1" style="stop-color:#565656"/>
		</linearGradient>
		<rect x="12.5" y="40.5" style="fill:url(#SVGID_3_);" width="28.9" height="4.6"/>
	</g>
</g>

</symbol>
    <symbol version="1.1" id="money-back" xmlns="http://www.w3.org/2000/svg" xmlns:xlink="http://www.w3.org/1999/xlink" x="0px" y="0px"
        viewBox="0 0 24 24" style="enable-background:new 0 0 24 24;" xml:space="preserve">
    <g id="Shield_icon">
        <path id="Icon_4_" style="fill:#606060;" d="M12.5,1.5c-0.2-0.1-0.4-0.1-0.5-0.2c-0.2,0.1-0.4,0.1-0.5,0.2c-1.9,0.7-4,1.4-6.3,1.4
            c-0.7,0-1.3,0-2-0.1v11.1c0,2.4,2.4,4.7,4.5,6.2c1.9,1.3,3.8,2.3,4.4,2.6c1.4-0.7,8.8-4.4,8.8-8.8V2.8c-0.6,0.1-1.3,0.1-2,0.1
            C16.6,2.9,14.4,2.2,12.5,1.5z M10.2,15.9l-3.4-3.4L8.2,11l1.9,1.9l6.2-6.2l1.5,1.5L10.2,15.9z"/>
        <path style="fill:none;" d="M0,0h24v24H0V0z"/>
    </g>
    </symbol>

</svg>
