<!-- <svg version="1.1" id="team-logo" xmlns="http://www.w3.org/2000/svg" xmlns:xlink="http://www.w3.org/1999/xlink" x="0px" y="0px"
	 viewBox="0 0 115.6 138.5" style="enable-background:new 0 0 115.6 138.5;" xml:space="preserve" >
<g id="_x34_Team_animated_logo">
	<path id="blue-color"  d="M58.6,115.6h57V70.4l-47.3,7.4L58.6,115.6z"/>
	<polygon class="green"  points="62.4,65.9 69,19.4 22.7,65.9 	"/>
	<polygon class="green"  points="0,0 0,65.9 71.8,0 	"/>
	<polygon class="yellow" points="88.4,0 71.4,65.9 115.6,65.9 115.6,0 	"/>
	<polygon class="yellow"  points="55.4,115.6 60.5,79.1 0,88.6 0,115.6 	"/>
	<g>
		<path  d="M9.4,124.7h0.8v7.7h1.5v1.7h-1.5v4.5H8.3V134H2.5v-0.8L9.4,124.7z M8.3,132.4v-4l-3.2,4H8.3z"/>
		<path  d="M25.6,124.9H37v1.7h-4.8v11.9h-2v-11.9h-4.7V124.9z"/>
		<path  d="M51.9,124.9h7.7v1.7h-5.8v4.2h5.6v1.7h-5.6v4.2h6v1.7h-7.9V124.9z"/>
		<path  d="M79.2,124.8h1.4l6.1,13.7h-2l-1.8-4h-5.8l-1.7,4h-2L79.2,124.8z M82.1,132.8l-2.2-4.9l-2,4.9H82.1z
			"/>
		<path  d="M112.1,124.9h1.8v13.7h-2v-10.6l-4.2,5.3h-0.4l-4.2-5.3v10.6h-2v-13.7h1.8l4.5,5.6L112.1,124.9z"/>
	</g>
</g>
</svg>
 -->
 <svg class="team-logo" enable-background="new 0 0 106 127" version="1.1" viewBox="0 0 106 127" xml:space="preserve" xmlns="http://www.w3.org/2000/svg">
	<path class="blue" d="M53.7,106H106V64.6l-43.4,6.8L53.7,106z"></path>
	<path class="green" d="m63.3 17.8l-42.5 42.6h36.5l6-42.6z"></path>
	<path class="green" d="M0,0v60.4L65.8,0H0z"></path>
	<path class="yellow" d="M81.1,0 L65.5,60.4H106V0H81.1z"></path>
	<path class="red" d="M55.5,72.5L0,81.2V106h50.8L55.5,72.5z"></path>
	<path d="m9.3 114.3h-0.7l-6.3 7.8v0.8h5.3v4.1h1.7v-4.1h1.4v-1.5h-1.4v-7.1zm-1.7 7.1h-2.9l2.9-3.6v3.6zm15.9-5.3h4.3v10.9h1.8v-10.9h4.4v-1.6h-10.5v1.6zm25.8 5.4h5.1v-1.6h-5.1v-3.8h5.3v-1.6h-7.1v12.5h7.3v-1.6h-5.5v-3.9zm23.4-7.1l-5.4 12.6h1.8l1.6-3.7h5.3l1.7 3.7h1.8l-5.6-12.6h-1.2zm-1.3 7.3l1.9-4.5 2 4.5h-3.9zm27.2-2.1l-4.2-5.1h-1.7v12.5h1.8v-9.7l3.9 4.8h0.3l3.8-4.8v9.7h1.8v-12.5h-1.7l-4 5.1z"></path>
</svg>