<svg version="1.1" id="pay-later" xmlns="http://www.w3.org/2000/svg" xmlns:xlink="http://www.w3.org/1999/xlink" x="0px" y="0px"
	 viewBox="0 0 24 24" style="enable-background:new 0 0 24 24;" xml:space="preserve">
<g id="Pay_Later_icon">
	<path style="fill:none;" d="M0,0h24v24H0V0z"/>
	<path style="fill:#2D2D2D;" d="M17.7,12.4v-1.2H6.3v3.7c0,0.8,0.7,1.5,1.5,1.5h4.4v0h4.3l-1.3-1.3l0.9-0.9l2,2l0,0l0.9,0.9L18.1,18
		l0,0l-2,2l-0.9-0.9l1.3-1.3h-2v0H7.8c-1.5,0-2.8-1.3-2.8-2.8V7.6c0-1.5,1.3-2.8,2.8-2.8h0v1.3C7,6.1,6.3,6.8,6.3,7.6V10h11.4V7.6
		c0-0.8-0.7-1.5-1.5-1.5h-1v0.6C15.7,6.9,16,7.4,16,8c0,0.8-0.6,1.4-1.4,1.4S13.1,8.8,13.1,8c0-0.5,0.3-1,0.8-1.3V4h1.3v0.8h1
		c1.5,0,2.8,1.3,2.8,2.8v4.8H17.7z M9.5,9.4c0.8,0,1.4-0.6,1.4-1.4c0-0.5-0.3-1-0.8-1.3V6.1h2.6V4.8h-2.6V4H8.8v2.7
		C8.4,6.9,8,7.4,8,8C8,8.8,8.7,9.4,9.5,9.4z"/>
</g>
</svg>
