<?xml version="1.0" encoding="utf-8"?>
<!-- Generator: Adobe Illustrator 25.2.3, SVG Export Plug-In . SVG Version: 6.00 Build 0)  -->
<svg version="1.1" id="Layer_1" xmlns="http://www.w3.org/2000/svg" xmlns:xlink="http://www.w3.org/1999/xlink" x="0px" y="0px"
	 viewBox="0 0 24 24" style="enable-background:new 0 0 24 24;" xml:space="preserve">
<g>
	<circle style="fill:#D80027;" cx="12" cy="12" r="8.3"/>
	<g>
		<path style="fill:#F5F5F5;" d="M10.7,12.5c-0.5,0-1-0.1-1.4-0.6c0,0,0-0.1,0-0.1l0,0c0,0,0.1,0,0.1,0c0.7,0.8,1.5,0.6,2,0.4
			c-0.2,0-0.4,0-0.6-0.1c-0.6-0.4-0.3-0.9-0.8-1.4c-0.4-0.5-0.8-0.5-1.4-0.4C8.1,10.4,8,10,7.9,9.7c0,0-0.1,0-0.1,0
			c-0.7,2,1.5,4.4,3.7,2.7C11.3,12.5,11,12.5,10.7,12.5z M9.1,11.9C9,11.9,9,11.9,9.1,11.9l-0.2-0.3l-0.3,0c0,0-0.1,0,0-0.1l0.2-0.2
			l-0.1-0.3c0,0,0-0.1,0.1,0L9,11.2L9.3,11c0,0,0.1,0,0.1,0l-0.1,0.3l0.2,0.2c0,0,0,0.1,0,0.1l-0.3,0L9.1,11.9z"/>
		<path style="fill:#F5F5F5;" d="M12.3,11.2c0.4-0.3,0.9-0.5,1.5-0.3c0,0,0.1,0.1,0.1,0.1l0,0c0,0-0.1,0.1-0.1,0.1
			c-1-0.2-1.6,0.4-1.9,0.9c0.1-0.1,0.3-0.2,0.5-0.3c0.8,0,0.8,0.5,1.5,0.7c0.7,0.2,0.9-0.1,1.4-0.5c0.4-0.4,0.8-0.2,1,0
			c0,0,0.1,0,0.1,0c-0.6-2-3.8-2.7-4.6,0.1C11.9,11.6,12.1,11.4,12.3,11.2z M14,10.8C14,10.7,14.1,10.7,14,10.8l0.3,0.1l0.2-0.2
			c0,0,0.1,0,0.1,0l-0.1,0.3l0.2,0.2c0,0,0,0.1,0,0.1l-0.3,0l-0.1,0.3c0,0-0.1,0-0.1,0l-0.1-0.3l-0.3,0c0,0-0.1,0,0-0.1l0.2-0.2
			L14,10.8z"/>
		<path style="fill:#F5F5F5;" d="M11.1,11.4c-0.2-0.4-0.2-1,0-1.6c0,0,0.1-0.1,0.1,0l0,0c0,0,0.1,0.1,0,0.1c-0.4,0.9,0,1.7,0.4,2.1
			c-0.1-0.2-0.2-0.4-0.1-0.6c0.1-0.7,0.7-0.6,1-1.2c0.3-0.6,0.2-0.9-0.1-1.4c-0.3-0.5,0-0.8,0.2-1c0,0,0-0.1,0-0.1
			c-2.1,0.1-3.5,3-1,4.5C11.4,11.9,11.2,11.7,11.1,11.4z M11.1,9.6C11.1,9.6,11.1,9.6,11.1,9.6l0.2-0.3l-0.1-0.3c0,0,0-0.1,0.1,0
			l0.2,0.2L11.7,9c0,0,0.1,0,0.1,0l-0.1,0.3L12,9.5c0,0,0,0.1,0,0.1l-0.3,0l-0.1,0.3c0,0-0.1,0-0.1,0l-0.1-0.3L11.1,9.6z"/>
		<path style="fill:#F5F5F5;" d="M12.8,12.4c0.4,0.3,0.7,0.7,0.8,1.3c0,0,0,0.1-0.1,0.1l0,0c0,0-0.1,0-0.1-0.1
			c-0.1-1-0.9-1.4-1.4-1.5c0.2,0.1,0.3,0.2,0.4,0.4c0.3,0.7-0.2,0.9-0.2,1.6c0,0.7,0.4,0.9,0.9,1.1c0.5,0.3,0.4,0.7,0.4,1
			c0,0,0,0.1,0.1,0.1c1.7-1.2,1.3-4.5-1.5-4.3C12.2,12.1,12.5,12.2,12.8,12.4z M13.7,13.9C13.8,13.8,13.8,13.9,13.7,13.9l0,0.3
			l0.2,0.2c0,0,0,0.1,0,0.1l-0.3,0l-0.1,0.3c0,0-0.1,0-0.1,0l-0.1-0.3l-0.3,0c0,0-0.1,0,0-0.1l0.2-0.2l-0.1-0.3c0,0,0-0.1,0.1,0
			l0.2,0.2L13.7,13.9z"/>
		<path style="fill:#F5F5F5;" d="M11.8,13.2c-0.1,0.4-0.4,0.9-1,1.2c0,0-0.1,0-0.1,0l0,0c0,0,0-0.1,0-0.1c0.9-0.4,1-1.3,1-1.8
			c0,0.2-0.1,0.4-0.3,0.5c-0.6,0.5-0.9,0.1-1.6,0.3c-0.6,0.2-0.7,0.6-0.8,1.2C9,15,8.5,15.1,8.3,15c0,0-0.1,0.1,0,0.1
			c1.7,1.3,4.7-0.1,3.6-2.8C11.9,12.6,11.9,12.9,11.8,13.2z M10.7,14.6C10.7,14.6,10.7,14.6,10.7,14.6l-0.3,0.1l-0.1,0.3
			c0,0-0.1,0-0.1,0l-0.1-0.3l-0.3,0c0,0-0.1,0,0-0.1l0.2-0.2L10,14.1c0,0,0-0.1,0.1,0l0.2,0.2l0.2-0.2c0,0,0.1,0,0.1,0l-0.1,0.3
			L10.7,14.6z"/>
	</g>
</g>
</svg>
